  0
SECTION
  2
HEADER
  9
$ACADVER
  1
AC1015
  9
$ACADMAINTVER
 70
     6
  9
$DWGCODEPAGE
  3
ANSI_936
  9
$INSBASE
 10
0.0
 20
0.0
 30
0.0
  9
$EXTMIN
 10
-24.0
 20
-23.919946007
 30
0.0
  9
$EXTMAX
 10
24.0
 20
23.919946007
 30
0.0
  9
$LIMMIN
 10
0.0
 20
0.0
  9
$LIMMAX
 10
420.0
 20
297.0
  9
$ORTHOMODE
 70
     0
  9
$REGENMODE
 70
     1
  9
$FILLMODE
 70
     1
  9
$QTEXTMODE
 70
     0
  9
$MIRRTEXT
 70
     1
  9
$LTSCALE
 40
1.0
  9
$ATTMODE
 70
     1
  9
$TEXTSIZE
 40
3.5
  9
$TRACEWID
 40
1.0
  9
$TEXTSTYLE
  7
Standard
  9
$CLAYER
  8
0
  9
$CELTYPE
  6
ByLayer
  9
$CECOLOR
 62
   256
  9
$CELTSCALE
 40
1.0
  9
$DISPSILH
 70
     0
  9
$DIMSCALE
 40
1.0
  9
$DIMASZ
 40
4.08
  9
$DIMEXO
 40
0.0
  9
$DIMDLI
 40
3.75
  9
$DIMRND
 40
0.0
  9
$DIMDLE
 40
0.0
  9
$DIMEXE
 40
2.0
  9
$DIMTP
 40
0.0
  9
$DIMTM
 40
0.0
  9
$DIMTXT
 40
3.5
  9
$DIMCEN
 40
2.5
  9
$DIMTSZ
 40
0.0
  9
$DIMTOL
 70
     0
  9
$DIMLIM
 70
     0
  9
$DIMTIH
 70
     1
  9
$DIMTOH
 70
     1
  9
$DIMSE1
 70
     0
  9
$DIMSE2
 70
     0
  9
$DIMTAD
 70
     1
  9
$DIMZIN
 70
     0
  9
$DIMBLK
  1

  9
$DIMASO
 70
     1
  9
$DIMSHO
 70
     1
  9
$DIMPOST
  1

  9
$DIMAPOST
  1

  9
$DIMALT
 70
     0
  9
$DIMALTD
 70
     3
  9
$DIMALTF
 40
0.0393700787
  9
$DIMLFAC
 40
1.0
  9
$DIMTOFL
 70
     1
  9
$DIMTVP
 40
0.0
  9
$DIMTIX
 70
     0
  9
$DIMSOXD
 70
     0
  9
$DIMSAH
 70
     0
  9
$DIMBLK1
  1

  9
$DIMBLK2
  1

  9
$DIMSTYLE
  2
ISO-25
  9
$DIMCLRD
 70
     0
  9
$DIMCLRE
 70
     0
  9
$DIMCLRT
 70
     0
  9
$DIMTFAC
 40
1.0
  9
$DIMGAP
 40
1.524
  9
$DIMJUST
 70
     0
  9
$DIMSD1
 70
     0
  9
$DIMSD2
 70
     0
  9
$DIMTOLJ
 70
     0
  9
$DIMTZIN
 70
     0
  9
$DIMALTZ
 70
     0
  9
$DIMALTTZ
 70
     0
  9
$DIMUPT
 70
     0
  9
$DIMDEC
 70
     2
  9
$DIMTDEC
 70
     2
  9
$DIMALTU
 70
     2
  9
$DIMALTTD
 70
     3
  9
$DIMTXSTY
  7
Standard
  9
$DIMAUNIT
 70
     0
  9
$DIMADEC
 70
     2
  9
$DIMALTRND
 40
0.0
  9
$DIMAZIN
 70
     0
  9
$DIMDSEP
 70
    44
  9
$DIMATFIT
 70
     3
  9
$DIMFRAC
 70
     0
  9
$DIMLDRBLK
  1

  9
$DIMLUNIT
 70
     2
  9
$DIMLWD
 70
    -2
  9
$DIMLWE
 70
    -2
  9
$DIMTMOVE
 70
     0
  9
$LUNITS
 70
     2
  9
$LUPREC
 70
     2
  9
$SKETCHINC
 40
1.0
  9
$FILLETRAD
 40
10.0
  9
$AUNITS
 70
     0
  9
$AUPREC
 70
     2
  9
$MENU
  1
.
  9
$ELEVATION
 40
0.0
  9
$PELEVATION
 40
0.0
  9
$THICKNESS
 40
0.0
  9
$LIMCHECK
 70
     0
  9
$CHAMFERA
 40
0.0
  9
$CHAMFERB
 40
0.0
  9
$CHAMFERC
 40
0.0
  9
$CHAMFERD
 40
0.0
  9
$SKPOLY
 70
     0
  9
$TDCREATE
 40
2459325.739595405
  9
$TDUCREATE
 40
2459325.406262072
  9
$TDUPDATE
 40
2459325.739607882
  9
$TDUUPDATE
 40
2459325.406274549
  9
$TDINDWG
 40
0.0000000116
  9
$TDUSRTIMER
 40
0.0000000116
  9
$USRTIMER
 70
     1
  9
$ANGBASE
 50
0.0
  9
$ANGDIR
 70
     0
  9
$PDMODE
 70
     0
  9
$PDSIZE
 40
-1.0
  9
$PLINEWID
 40
0.0
  9
$SPLFRAME
 70
     0
  9
$SPLINETYPE
 70
     6
  9
$SPLINESEGS
 70
     8
  9
$HANDSEED
  5
12D
  9
$SURFTAB1
 70
     6
  9
$SURFTAB2
 70
     6
  9
$SURFTYPE
 70
     6
  9
$SURFU
 70
     6
  9
$SURFV
 70
     6
  9
$UCSBASE
  2

  9
$UCSNAME
  2

  9
$UCSORG
 10
0.0
 20
0.0
 30
0.0
  9
$UCSXDIR
 10
1.0
 20
0.0
 30
0.0
  9
$UCSYDIR
 10
0.0
 20
1.0
 30
0.0
  9
$UCSORTHOREF
  2

  9
$UCSORTHOVIEW
 70
     0
  9
$UCSORGTOP
 10
0.0
 20
0.0
 30
0.0
  9
$UCSORGBOTTOM
 10
0.0
 20
0.0
 30
0.0
  9
$UCSORGLEFT
 10
0.0
 20
0.0
 30
0.0
  9
$UCSORGRIGHT
 10
0.0
 20
0.0
 30
0.0
  9
$UCSORGFRONT
 10
0.0
 20
0.0
 30
0.0
  9
$UCSORGBACK
 10
0.0
 20
0.0
 30
0.0
  9
$PUCSBASE
  2

  9
$PUCSNAME
  2

  9
$PUCSORG
 10
0.0
 20
0.0
 30
0.0
  9
$PUCSXDIR
 10
1.0
 20
0.0
 30
0.0
  9
$PUCSYDIR
 10
0.0
 20
1.0
 30
0.0
  9
$PUCSORTHOREF
  2

  9
$PUCSORTHOVIEW
 70
     0
  9
$PUCSORGTOP
 10
0.0
 20
0.0
 30
0.0
  9
$PUCSORGBOTTOM
 10
0.0
 20
0.0
 30
0.0
  9
$PUCSORGLEFT
 10
0.0
 20
0.0
 30
0.0
  9
$PUCSORGRIGHT
 10
0.0
 20
0.0
 30
0.0
  9
$PUCSORGFRONT
 10
0.0
 20
0.0
 30
0.0
  9
$PUCSORGBACK
 10
0.0
 20
0.0
 30
0.0
  9
$USERI1
 70
     0
  9
$USERI2
 70
     0
  9
$USERI3
 70
     0
  9
$USERI4
 70
     0
  9
$USERI5
 70
     0
  9
$USERR1
 40
0.0
  9
$USERR2
 40
0.0
  9
$USERR3
 40
0.0
  9
$USERR4
 40
0.0
  9
$USERR5
 40
0.0
  9
$WORLDVIEW
 70
     1
  9
$SHADEDGE
 70
     3
  9
$SHADEDIF
 70
    70
  9
$TILEMODE
 70
     1
  9
$MAXACTVP
 70
    64
  9
$PINSBASE
 10
0.0
 20
0.0
 30
0.0
  9
$PLIMCHECK
 70
     0
  9
$PEXTMIN
 10
1.0000000000E+20
 20
1.0000000000E+20
 30
1.0000000000E+20
  9
$PEXTMAX
 10
-1.0000000000E+20
 20
-1.0000000000E+20
 30
-1.0000000000E+20
  9
$PLIMMIN
 10
0.0
 20
0.0
  9
$PLIMMAX
 10
420.0
 20
297.0
  9
$UNITMODE
 70
     0
  9
$VISRETAIN
 70
     1
  9
$PLINEGEN
 70
     0
  9
$PSLTSCALE
 70
     1
  9
$TREEDEPTH
 70
  3020
  9
$CMLSTYLE
  2
Standard
  9
$CMLJUST
 70
     0
  9
$CMLSCALE
 40
20.0
  9
$PROXYGRAPHICS
 70
     1
  9
$MEASUREMENT
 70
     1
  9
$CELWEIGHT
370
    -1
  9
$ENDCAPS
280
     0
  9
$JOINSTYLE
280
     0
  9
$LWDISPLAY
290
     1
  9
$INSUNITS
 70
     4
  9
$HYPERLINKBASE
  1

  9
$STYLESHEET
  1

  9
$XEDIT
290
     1
  9
$CEPSNTYPE
380
     0
  9
$PSTYLEMODE
290
     1
  9
$FINGERPRINTGUID
  2
{9BB2A9B4-12C8-47FD-A258-C2A226FF0D20}
  9
$VERSIONGUID
  2
{FAEB1C32-E019-11D5-929B-00C0DF256EC4}
  9
$EXTNAMES
290
     1
  9
$PSVPSCALE
 40
0.0
  9
$OLESTARTUP
290
     0
  0
ENDSEC
  0
SECTION
  2
CLASSES
  0
CLASS
  1
ACDBDICTIONARYWDFLT
  2
AcDbDictionaryWithDefault
  3
ObjectDBX Classes
 90
        0
280
     0
281
     0
  0
CLASS
  1
VISUALSTYLE
  2
AcDbVisualStyle
  3
ObjectDBX Classes
 90
     4095
280
     0
281
     0
  0
CLASS
  1
MATERIAL
  2
AcDbMaterial
  3
ObjectDBX Classes
 90
     1153
280
     0
281
     0
  0
CLASS
  1
SCALE
  2
AcDbScale
  3
ObjectDBX Classes
 90
     1153
280
     0
281
     0
  0
CLASS
  1
TABLESTYLE
  2
AcDbTableStyle
  3
ObjectDBX Classes
 90
     4095
280
     0
281
     0
  0
CLASS
  1
MLEADERSTYLE
  2
AcDbMLeaderStyle
  3
ACDB_MLEADERSTYLE_CLASS
 90
     4095
280
     0
281
     0
  0
CLASS
  1
SUN
  2
AcDbSun
  3
SCENEOE
 90
     1153
280
     0
281
     0
  0
CLASS
  1
ACDBPLACEHOLDER
  2
AcDbPlaceHolder
  3
ObjectDBX Classes
 90
        0
280
     0
281
     0
  0
CLASS
  1
LAYOUT
  2
AcDbLayout
  3
ObjectDBX Classes
 90
        0
280
     0
281
     0
  0
ENDSEC
  0
SECTION
  2
TABLES
  0
TABLE
  2
VPORT
  5
8
330
0
100
AcDbSymbolTable
 70
     1
  0
VPORT
  5
29
330
8
100
AcDbSymbolTableRecord
100
AcDbViewportTableRecord
  2
*Active
 70
     0
 10
0.0
 20
0.0
 11
1.0
 21
1.0
 12
0.0
 22
0.0
 13
0.0
 23
0.0
 14
10.0
 24
10.0
 15
10.0
 25
10.0
 16
0.0
 26
0.0
 36
1.0
 17
0.0
 27
0.0
 37
0.0
 40
48.7966898543
 41
1.0033467464
 42
50.0
 43
0.0
 44
0.0
 50
0.0
 51
0.0
 71
     0
 72
   100
 73
     1
 74
     3
 75
     0
 76
     0
 77
     0
 78
     0
281
     0
 65
     1
110
0.0
120
0.0
130
0.0
111
1.0
121
0.0
131
0.0
112
0.0
122
1.0
132
0.0
 79
     0
146
0.0
  0
ENDTAB
  0
TABLE
  2
LTYPE
  5
5
330
0
100
AcDbSymbolTable
 70
     6
  0
LTYPE
  5
14
330
5
100
AcDbSymbolTableRecord
100
AcDbLinetypeTableRecord
  2
ByBlock
 70
     0
  3

 72
    65
 73
     0
 40
0.0
  0
LTYPE
  5
15
330
5
100
AcDbSymbolTableRecord
100
AcDbLinetypeTableRecord
  2
ByLayer
 70
     0
  3

 72
    65
 73
     0
 40
0.0
  0
LTYPE
  5
16
330
5
100
AcDbSymbolTableRecord
100
AcDbLinetypeTableRecord
  2
Continuous
 70
     0
  3
Solid line
 72
    65
 73
     0
 40
0.0
  0
LTYPE
  5
6E
330
5
100
AcDbSymbolTableRecord
100
AcDbLinetypeTableRecord
  2
HIDDEN
 70
     0
  3
Hidden __ __ __ __ __ __ __ __ __ __ __ __ __ __
 72
    65
 73
     2
 40
1.905
 49
1.27
 74
     0
 49
-0.635
 74
     0
  0
LTYPE
  5
6F
330
5
100
AcDbSymbolTableRecord
100
AcDbLinetypeTableRecord
  2
PHANTOM
 70
     0
  3
Phantom ______  __  __  ______  __  __  ______
 72
    65
 73
     6
 40
12.7
 49
6.35
 74
     0
 49
-1.27
 74
     0
 49
1.27
 74
     0
 49
-1.27
 74
     0
 49
1.27
 74
     0
 49
-1.27
 74
     0
  0
LTYPE
  5
70
330
5
100
AcDbSymbolTableRecord
100
AcDbLinetypeTableRecord
  2
CENTER
 70
     0
  3
Center ____ _ ____ _ ____ _ ____ _ ____ _ ____
 72
    65
 73
     4
 40
10.16
 49
6.35
 74
     0
 49
-1.27
 74
     0
 49
1.27
 74
     0
 49
-1.27
 74
     0
  0
LTYPE
  5
71
330
5
100
AcDbSymbolTableRecord
100
AcDbLinetypeTableRecord
  2
CENTERX2
 70
     0
  3
Center (2x) ________  __  ________  __  _____
 72
    65
 73
     4
 40
20.32
 49
12.7
 74
     0
 49
-2.54
 74
     0
 49
2.54
 74
     0
 49
-2.54
 74
     0
  0
LTYPE
  5
72
330
5
100
AcDbSymbolTableRecord
100
AcDbLinetypeTableRecord
  2
DOT2
 70
     0
  3
Dot (.5x) ........................................
 72
    65
 73
     2
 40
0.635
 49
0.0
 74
     0
 49
-0.635
 74
     0
  0
ENDTAB
  0
TABLE
  2
LAYER
  5
2
330
0
100
AcDbSymbolTable
 70
     1
  0
LAYER
  5
10
330
2
100
AcDbSymbolTableRecord
100
AcDbLayerTableRecord
  2
0
 70
     0
 62
     7
  6
Continuous
370
    -3
390
F
  0
ENDTAB
  0
TABLE
  2
STYLE
  5
3
330
0
100
AcDbSymbolTable
 70
     1
  0
STYLE
  5
11
330
3
100
AcDbSymbolTableRecord
100
AcDbTextStyleTableRecord
  2
Standard
 70
     0
 40
0.0
 41
1.0
 50
0.0
 71
     0
 42
3.5
  3
txt
  4

  0
ENDTAB
  0
TABLE
  2
VIEW
  5
6
330
0
100
AcDbSymbolTable
 70
     0
  0
ENDTAB
  0
TABLE
  2
UCS
  5
7
330
0
100
AcDbSymbolTable
 70
     0
  0
ENDTAB
  0
TABLE
  2
APPID
  5
9
330
0
100
AcDbSymbolTable
 70
     1
  0
APPID
  5
12
330
9
100
AcDbSymbolTableRecord
100
AcDbRegAppTableRecord
  2
ACAD
 70
     0
  0
ENDTAB
  0
TABLE
  2
DIMSTYLE
  5
A
330
0
100
AcDbSymbolTable
 70
     1
100
AcDbDimStyleTable
  0
DIMSTYLE
105
27
330
A
100
AcDbSymbolTableRecord
100
AcDbDimStyleTableRecord
  2
ISO-25
 70
     0
 41
2.5
 42
0.625
 43
3.75
 44
1.25
 73
     0
 74
     0
 77
     1
 78
     8
140
2.5
141
2.5
143
0.0393700787
147
0.625
171
     3
172
     1
178
     0
271
     2
272
     2
274
     3
278
    44
283
     0
284
     8
340
11
  0
ENDTAB
  0
TABLE
  2
BLOCK_RECORD
  5
1
330
0
100
AcDbSymbolTable
 70
     1
  0
BLOCK_RECORD
  5
1F
330
1
100
AcDbSymbolTableRecord
100
AcDbBlockTableRecord
  2
*Model_Space
340
22
  0
BLOCK_RECORD
  5
1B
330
1
100
AcDbSymbolTableRecord
100
AcDbBlockTableRecord
  2
*Paper_Space
340
1E
  0
BLOCK_RECORD
  5
23
330
1
100
AcDbSymbolTableRecord
100
AcDbBlockTableRecord
  2
*Paper_Space0
340
26
  0
ENDTAB
  0
ENDSEC
  0
SECTION
  2
BLOCKS
  0
BLOCK
  5
20
330
1F
100
AcDbEntity
  8
0
100
AcDbBlockBegin
  2
*Model_Space
 70
     0
 10
0.0
 20
0.0
 30
0.0
  3
*Model_Space
  1

  0
ENDBLK
  5
21
330
1F
100
AcDbEntity
  8
0
100
AcDbBlockEnd
  0
BLOCK
  5
1C
330
1B
100
AcDbEntity
 67
     1
  8
0
100
AcDbBlockBegin
  2
*Paper_Space
 70
     0
 10
0.0
 20
0.0
 30
0.0
  3
*Paper_Space
  1

  0
ENDBLK
  5
1D
330
1B
100
AcDbEntity
 67
     1
  8
0
100
AcDbBlockEnd
  0
BLOCK
  5
24
330
23
100
AcDbEntity
  8
0
100
AcDbBlockBegin
  2
*Paper_Space0
 70
     0
 10
0.0
 20
0.0
 30
0.0
  3
*Paper_Space0
  1

  0
ENDBLK
  5
25
330
23
100
AcDbEntity
  8
0
100
AcDbBlockEnd
  0
ENDSEC
  0
SECTION
  2
ENTITIES
  0
CIRCLE
  5
73
330
1F
100
AcDbEntity
  8
0
  6
Continuous
 62
     7
370
    25
100
AcDbCircle
 10
0.0
 20
-12.0
 30
0.0
 40
1.0
  0
CIRCLE
  5
74
330
1F
100
AcDbEntity
  8
0
  6
Continuous
 62
     7
370
    25
100
AcDbCircle
 10
6.0
 20
0.0
 30
0.0
 40
1.6
  0
CIRCLE
  5
75
330
1F
100
AcDbEntity
  8
0
  6
Continuous
 62
     7
370
    25
100
AcDbCircle
 10
0.0
 20
0.0
 30
0.0
 40
2.5
  0
CIRCLE
  5
76
330
1F
100
AcDbEntity
  8
0
  6
Continuous
 62
     7
370
    25
100
AcDbCircle
 10
0.0
 20
6.0
 30
0.0
 40
1.6
  0
CIRCLE
  5
77
330
1F
100
AcDbEntity
  8
0
  6
Continuous
 62
     7
370
    25
100
AcDbCircle
 10
-6.0
 20
0.0
 30
0.0
 40
1.6
  0
CIRCLE
  5
78
330
1F
100
AcDbEntity
  8
0
  6
Continuous
 62
     7
370
    25
100
AcDbCircle
 10
0.0
 20
-6.0
 30
0.0
 40
1.6
  0
SPLINE
  5
79
330
1F
100
AcDbEntity
  8
0
  6
Continuous
 62
     7
370
    25
100
AcDbSpline
210
0.0
220
0.0
230
1.0
 70
     8
 71
     3
 72
    29
 73
    25
 74
     0
 42
0.000000001
 43
0.00000001
 40
0.1146165153578265
 40
0.1146165153578265
 40
0.1146165153578265
 40
0.1146165153578265
 40
0.1254622314784576
 40
0.1552512434876337
 40
0.1693049679957221
 40
0.1854200090396344
 40
0.2035963666329278
 40
0.2238340407850208
 40
0.2461330315027167
 40
0.2704933387910942
 40
0.2969149626540439
 40
0.3253979030946068
 40
0.3559421601152148
 40
0.3885477337178345
 40
0.4232146239040822
 40
0.4599428306753026
 40
0.4987323540326257
 40
0.5395831939770115
 40
0.5824953505092814
 40
0.6274688236301409
 40
0.6745036133402074
 40
0.7235997196400171
 40
0.7747571425300435
 40
0.7819976423039963
 40
0.7819976423039963
 40
0.7819976423039963
 40
0.7819976423039963
 10
7.87210717824874
 20
-19.62549901071637
 30
0.0
 10
7.877114638464064
 20
-19.64124737509692
 30
0.0
 10
7.895607864490104
 20
-19.70022773333432
 30
0.0
 10
7.918745468773826
 20
-19.780263689863
 30
0.0
 10
7.940026509378771
 20
-19.86901815148321
 30
0.0
 10
7.955812882131215
 20
-19.9408991201134
 30
0.0
 10
7.971866938776946
 20
-20.02234005115636
 30
0.0
 10
7.987843662944836
 20
-20.11337003142691
 30
0.0
 10
8.003328272209103
 20
-20.21402113273087
 30
0.0
 10
8.017926448668922
 20
-20.3243079702205
 30
0.0
 10
8.03123634470745
 20
-20.44423410149163
 30
0.0
 10
8.042857736992875
 20
-20.57379000448853
 30
0.0
 10
8.052389684974896
 20
-20.71295367381822
 30
0.0
 10
8.059431702719571
 20
-20.86169042916873
 30
0.0
 10
8.063583868535702
 20
-21.01995297419427
 30
0.0
 10
8.064447252828932
 20
-21.18768139252234
 30
0.0
 10
8.061624250952523
 20
-21.3648031746078
 30
0.0
 10
8.054718943495995
 20
-21.55123324757506
 30
0.0
 10
8.043337447438523
 20
-21.7468740163103
 30
0.0
 10
8.027088269250928
 20
-21.95161541309293
 30
0.0
 10
8.005582653783568
 20
-22.16533495757375
 30
0.0
 10
7.978434940933962
 20
-22.38789782234236
 30
0.0
 10
7.955200789074511
 20
-22.54987478785275
 30
0.0
 10
7.941541682477286
 20
-22.63771157652504
 30
0.0
 10
7.939832302202033
 20
-22.64859958171607
 30
0.0
  0
ARC
  5
7A
330
1F
100
AcDbEntity
  8
0
  6
Continuous
 62
     7
370
    25
100
AcDbCircle
 10
8.4153085773
 20
-19.4527788901
 30
0.0
 40
0.5700000000000043
100
AcDbArc
 50
113.3933993483
 51
197.6389469986
  0
ARC
  5
7B
330
1F
100
AcDbEntity
  8
0
  6
Continuous
 62
     7
370
    25
100
AcDbCircle
 10
0.0
 20
0.0
 30
0.0
 40
20.625
100
AcDbArc
 50
293.3933993483
 51
294.6066006517
  0
ARC
  5
7C
330
1F
100
AcDbEntity
  8
0
  6
Continuous
 62
     7
370
    25
100
AcDbCircle
 10
8.8252914423
 20
-19.2702427581
 30
0.0
 40
0.570000000000009
100
AcDbArc
 50
30.3610530014
 51
114.6066006517
  0
SPLINE
  5
7D
330
1F
100
AcDbEntity
  8
0
  6
Continuous
 62
     7
370
    25
100
AcDbSpline
210
0.0
220
0.0
230
1.0
 70
     8
 71
     3
 72
    29
 73
    25
 74
     0
 42
0.000000001
 43
0.00000001
 40
0.3326188730538295
 40
0.3326188730538295
 40
0.3326188730538295
 40
0.3326188730538295
 40
0.3398593728277818
 40
0.3910167957178082
 40
0.4401129020176182
 40
0.4871476917276847
 40
0.5321211648485444
 40
0.5750333213808144
 40
0.6158841613252003
 40
0.6546736846825236
 40
0.6914018914537441
 40
0.7260687816399919
 40
0.7586743552426116
 40
0.7892186122632198
 40
0.8177015527037828
 40
0.8441231765667325
 40
0.8684834838551101
 40
0.890782474572806
 40
0.9110201487248991
 40
0.9291965063181925
 40
0.9453115473621049
 40
0.9593652718701934
 40
0.9891542838793695
 40
1.0
 40
1.0
 40
1.0
 40
1.0
 10
11.51840478070199
 20
-21.05531646183219
 30
0.0
 10
11.50916961732444
 20
-21.04930128142301
 30
0.0
 10
11.43475443605635
 20
-21.00067769214648
 30
0.0
 10
11.29883541016881
 20
-20.90956028672705
 30
0.0
 10
11.11527360331229
 20
-20.7808113443992
 30
0.0
 10
10.94205896421018
 20
-20.65378684286329
 30
0.0
 10
10.77903363217666
 20
-20.52886360057575
 30
0.0
 10
10.62602849988043
 20
-20.40641247426471
 30
0.0
 10
10.48286340327597
 20
-20.28679805000127
 30
0.0
 10
10.3493473104825
 20
-20.17037834379183
 30
0.0
 10
10.22527852117213
 20
-20.05750450596244
 30
0.0
 10
10.11044487099977
 20
-19.94852053270482
 30
0.0
 10
10.00462395050622
 20
-19.84376297836141
 30
0.0
 10
9.9075833078824
 20
-19.74356069010015
 30
0.0
 10
9.81908073822689
 20
-19.64823449262872
 30
0.0
 10
9.73886431314006
 20
-19.55809706732432
 30
0.0
 10
9.666673307207668
 20
-19.47345220958397
 30
0.0
 10
9.602236188081259
 20
-19.39459616988848
 30
0.0
 10
9.545278244409973
 20
-19.32181220409977
 30
0.0
 10
9.495498098581209
 20
-19.25538709540436
 30
0.0
 10
9.452643273865432
 20
-19.19555777805515
 30
0.0
 10
9.400925650578271
 20
-19.12035455612782
 30
0.0
 10
9.356929422815911
 20
-19.04960545710789
 30
0.0
 10
9.325472858331315
 20
-18.99639674900959
 30
0.0
 10
9.317120187722375
 20
-18.98213776825468
 30
0.0
  0
ARC
  5
7E
330
1F
100
AcDbEntity
  8
0
  6
Continuous
 62
     7
370
    25
100
AcDbCircle
 10
0.0
 20
0.0
 30
0.0
 40
24.0
100
AcDbArc
 50
298.6810610094
 51
301.3189389906
  0
SPLINE
  5
7F
330
1F
100
AcDbEntity
  8
0
  6
Continuous
 62
     7
370
    25
100
AcDbSpline
210
0.0
220
0.0
230
1.0
 70
     8
 71
     3
 72
    29
 73
    25
 74
     0
 42
0.000000001
 43
0.00000001
 40
0.1146165153578265
 40
0.1146165153578265
 40
0.1146165153578265
 40
0.1146165153578265
 40
0.1254622314784576
 40
0.1552512434876337
 40
0.1693049679957221
 40
0.1854200090396344
 40
0.2035963666329278
 40
0.2238340407850208
 40
0.2461330315027167
 40
0.2704933387910942
 40
0.2969149626540439
 40
0.3253979030946068
 40
0.3559421601152148
 40
0.3885477337178345
 40
0.4232146239040822
 40
0.4599428306753026
 40
0.4987323540326257
 40
0.5395831939770115
 40
0.5824953505092814
 40
0.6274688236301409
 40
0.6745036133402074
 40
0.7235997196400171
 40
0.7747571425300435
 40
0.781997642303996
 40
0.781997642303996
 40
0.781997642303996
 40
0.781997642303996
 10
11.78045343158369
 20
-17.55993165680757
 30
0.0
 10
11.78862573584505
 20
-17.57429477212181
 30
0.0
 10
11.81897754651843
 20
-17.62814131013039
 30
0.0
 10
11.85824994968337
 20
-17.70161771055326
 30
0.0
 10
11.8975190386753
 20
-17.78400809710696
 30
0.0
 10
11.92790533503291
 20
-17.85103612266016
 30
0.0
 10
11.96054109369789
 20
-17.92735954789965
 30
0.0
 10
11.99509488522346
 20
-18.01307855696068
 30
0.0
 10
12.03116765927837
 20
-18.10831075891857
 30
0.0
 10
12.06837675341505
 20
-18.21315243285095
 30
0.0
 10
12.10632984101697
 20
-18.32769060742911
 30
0.0
 10
12.14463346484565
 20
-18.45199917978671
 30
0.0
 10
12.18289087068532
 20
-18.58613998562913
 30
0.0
 10
12.22070311373827
 20
-18.7301623682001
 30
0.0
 10
12.25766917809855
 20
-18.88410321308747
 30
0.0
 10
12.29338639442626
 20
-19.04798685536172
 30
0.0
 10
12.32745077110803
 20
-19.22182503663962
 30
0.0
 10
12.359457352877
 20
-19.40561685936607
 30
0.0
 10
12.38900057283625
 20
-19.59934875399951
 30
0.0
 10
12.41567460816362
 20
-19.8029944541447
 30
0.0
 10
12.43907373384573
 20
-20.01651498268243
 30
0.0
 10
12.45879268518376
 20
-20.23985864174869
 30
0.0
 10
12.46974316006015
 20
-20.40312667373464
 30
0.0
 10
12.47464483296277
 20
-20.49188390577829
 30
0.0
 10
12.47523655031669
 20
-20.50288938207594
 30
0.0
  0
ARC
  5
80
330
1F
100
AcDbEntity
  8
0
  6
Continuous
 62
     7
370
    25
100
AcDbCircle
 10
12.2758740445
 20
-17.2780479639
 30
0.0
 40
0.5699999999999997
100
AcDbArc
 50
125.3933993483
 51
209.6389469986
  0
ARC
  5
81
330
1F
100
AcDbEntity
  8
0
  6
Continuous
 62
     7
370
    25
100
AcDbCircle
 10
0.0
 20
0.0
 30
0.0
 40
20.625
100
AcDbArc
 50
305.3933993483
 51
306.6066006517
  0
ARC
  5
82
330
1F
100
AcDbEntity
  8
0
  6
Continuous
 62
     7
370
    25
100
AcDbCircle
 10
12.6389464044
 20
-17.0142604537
 30
0.0
 40
0.5700000000000117
100
AcDbArc
 50
42.3610530014
 51
126.6066006517
  0
SPLINE
  5
83
330
1F
100
AcDbEntity
  8
0
  6
Continuous
 62
     7
370
    25
100
AcDbSpline
210
0.0
220
0.0
230
1.0
 70
     8
 71
     3
 72
    29
 73
    25
 74
     0
 42
0.000000001
 43
0.00000001
 40
0.33261887305383
 40
0.33261887305383
 40
0.33261887305383
 40
0.33261887305383
 40
0.3398593728277818
 40
0.3910167957178082
 40
0.4401129020176182
 40
0.4871476917276847
 40
0.5321211648485444
 40
0.5750333213808144
 40
0.6158841613252003
 40
0.6546736846825236
 40
0.6914018914537441
 40
0.7260687816399919
 40
0.7586743552426116
 40
0.7892186122632198
 40
0.8177015527037828
 40
0.8441231765667325
 40
0.8684834838551101
 40
0.890782474572806
 40
0.9110201487248991
 40
0.9291965063181925
 40
0.9453115473621049
 40
0.9593652718701934
 40
0.9891542838793695
 40
1.0
 40
1.0
 40
1.0
 40
1.0
 10
15.64434644680699
 20
-18.20039626635303
 30
0.0
 10
15.6340624675774
 20
-18.19643263050062
 30
0.0
 10
15.55116402390174
 20
-18.16434336947067
 30
0.0
 10
15.3992707810121
 20
-18.10347625246114
 30
0.0
 10
15.19295182975864
 20
-18.01570542905925
 30
0.0
 10
14.99711246721933
 20
-17.92747006613759
 30
0.0
 10
14.81167662730547
 20
-17.83917156884737
 30
0.0
 10
14.63655600353608
 20
-17.75120784919858
 30
0.0
 10
14.4716501705888
 20
-17.66397298439326
 30
0.0
 10
14.31684670680101
 20
-17.57785688469043
 30
0.0
 10
14.17202132773893
 20
-17.49324496279523
 30
0.0
 10
14.03703802618729
 20
-17.41051780920496
 30
0.0
 10
13.91174922644962
 20
-17.33005086526892
 30
0.0
 10
13.79599592751725
 20
-17.25221412150409
 30
0.0
 10
13.68960792045443
 20
-17.17737174905913
 30
0.0
 10
13.5924037922153
 20
-17.10588197533247
 30
0.0
 10
13.50419167747615
 20
-17.03809616492453
 30
0.0
 10
13.42476757146017
 20
-16.97436054928202
 30
0.0
 10
13.35392165812382
 20
-16.9150093101481
 30
0.0
 10
13.29141877125562
 20
-16.86038562373761
 30
0.0
 10
13.23706121274947
 20
-16.8107737395853
 30
0.0
 10
13.17083811458962
 20
-16.74796658699234
 30
0.0
 10
13.11309374516146
 20
-16.68791085563558
 30
0.0
 10
13.07126186961658
 20
-16.6424050729804
 30
0.0
 10
13.06012711610264
 20
-16.63019430303522
 30
0.0
  0
ARC
  5
84
330
1F
100
AcDbEntity
  8
0
  6
Continuous
 62
     7
370
    25
100
AcDbCircle
 10
0.0
 20
0.0
 30
0.0
 40
24.00000000000001
100
AcDbArc
 50
310.6810610094
 51
313.3189389906
  0
SPLINE
  5
85
330
1F
100
AcDbEntity
  8
0
  6
Continuous
 62
     7
370
    25
100
AcDbSpline
210
0.0
220
0.0
230
1.0
 70
     8
 71
     3
 72
    29
 73
    25
 74
     0
 42
0.000000001
 43
0.00000001
 40
0.1146165153578265
 40
0.1146165153578265
 40
0.1146165153578265
 40
0.1146165153578265
 40
0.1254622314784576
 40
0.1552512434876337
 40
0.1693049679957221
 40
0.1854200090396344
 40
0.2035963666329278
 40
0.2238340407850208
 40
0.2461330315027167
 40
0.2704933387910942
 40
0.2969149626540439
 40
0.3253979030946068
 40
0.3559421601152148
 40
0.3885477337178345
 40
0.4232146239040822
 40
0.4599428306753026
 40
0.4987323540326257
 40
0.5395831939770115
 40
0.5824953505092814
 40
0.6274688236301409
 40
0.6745036133402074
 40
0.7235997196400171
 40
0.7747571425300435
 40
0.781997642303999
 40
0.781997642303999
 40
0.781997642303999
 40
0.781997642303999
 10
15.17393734107108
 20
-14.72691102759548
 30
0.0
 10
15.18491732046719
 20
-14.73926115678232
 30
0.0
 10
15.22580119601733
 20
-14.78562052246675
 30
0.0
 10
15.27949200559529
 20
-14.84932609550643
 30
0.0
 10
15.33503289535125
 20
-14.92175155174827
 30
0.0
 10
15.37869108835358
 20
-14.98099718787166
 30
0.0
 10
15.4264822097804
 20
-15.0488674073843
 30
0.0
 10
15.47810290216649
 20
-15.12552911321437
 30
0.0
 10
15.53318728768949
 20
-15.21118031162584
 30
0.0
 10
15.5913810835402
 20
-15.30599473776396
 30
0.0
 10
15.65231863065818
 20
-15.41013908780496
 30
0.0
 10
15.71563043386762
 20
-15.52376744841251
 30
0.0
 10
15.78094126535035
 20
-15.64702279387335
 30
0.0
 10
15.84787115724689
 20
-15.78003633445035
 30
0.0
 10
15.91603552575592
 20
-15.92292752558785
 30
0.0
 10
15.98504556037437
 20
-16.07580389023992
 30
0.0
 10
16.05450853889431
 20
-16.23876090802027
 30
0.0
 10
16.12402816868085
 20
-16.41188189592176
 30
0.0
 10
16.19320492418051
 20
-16.59523790302915
 30
0.0
 10
16.26163638968282
 20
-16.78888761224008
 30
0.0
 10
16.32891760244063
 20
-16.99287725315245
 30
0.0
 10
16.3946414051708
 20
-17.20724051689337
 30
0.0
 10
16.43929791848472
 20
-17.36466401891016
 30
0.0
 10
16.4625461442605
 20
-17.45046257738041
 30
0.0
 10
16.46541309835585
 20
-17.46110453266036
 30
0.0
  0
ARC
  5
86
330
1F
100
AcDbEntity
  8
0
  6
Continuous
 62
     7
370
    25
100
AcDbCircle
 10
15.5999249097
 20
-14.3481834324
 30
0.0
 40
0.5699999999999991
100
AcDbArc
 50
137.3933993483
 51
221.6389469986
  0
ARC
  5
87
330
1F
100
AcDbEntity
  8
0
  6
Continuous
 62
     7
370
    25
100
AcDbCircle
 10
0.0
 20
0.0
 30
0.0
 40
20.62500000000001
100
AcDbArc
 50
317.3933993483
 51
318.6066006517
  0
ARC
  5
88
330
1F
100
AcDbEntity
  8
0
  6
Continuous
 62
     7
370
    25
100
AcDbCircle
 10
15.9002187602
 20
-14.014673324
 30
0.0
 40
0.5700000000000103
100
AcDbArc
 50
54.3610530014
 51
138.6066006517
  0
SPLINE
  5
89
330
1F
100
AcDbEntity
  8
0
  6
Continuous
 62
     7
370
    25
100
AcDbSpline
210
0.0
220
0.0
230
1.0
 70
     8
 71
     3
 72
    29
 73
    25
 74
     0
 42
0.000000001
 43
0.00000001
 40
0.3326188730538293
 40
0.3326188730538293
 40
0.3326188730538293
 40
0.3326188730538293
 40
0.3398593728277818
 40
0.3910167957178082
 40
0.4401129020176182
 40
0.4871476917276847
 40
0.5321211648485444
 40
0.5750333213808144
 40
0.6158841613252003
 40
0.6546736846825236
 40
0.6914018914537441
 40
0.7260687816399919
 40
0.7586743552426116
 40
0.7892186122632198
 40
0.8177015527037828
 40
0.8441231765667325
 40
0.8684834838551101
 40
0.890782474572806
 40
0.9110201487248991
 40
0.9291965063181925
 40
0.9453115473621049
 40
0.9593652718701934
 40
0.9891542838793695
 40
1.0
 40
1.0
 40
1.0
 40
1.0
 10
19.0865551032834
 20
-14.55003141884328
 30
0.0
 10
19.07567176744212
 20
-14.54829255745402
 30
0.0
 10
18.98791312113838
 20
-14.53414007935902
 30
0.0
 10
18.82668412482554
 20
-14.50618343584555
 30
0.0
 10
18.6066251573731
 20
-14.4632267375234
 30
0.0
 10
18.39672019128107
 20
-14.41763682197593
 30
0.0
 10
18.196978279511
 20
-14.3698221377178
 30
0.0
 10
18.00739577584916
 20
-14.32019026137667
 30
0.0
 10
17.82795638276484
 20
-14.26914753822079
 30
0.0
 10
17.65863120217968
 20
-14.21709873181248
 30
0.0
 10
17.49937879738017
 20
-14.16444667285133
 30
0.0
 10
17.35014526244881
 20
-14.11159191250924
 30
0.0
 10
17.21086430521791
 20
-14.05893237055381
 30
0.0
 10
17.0814573245863
 20
-14.00686301049007
 30
0.0
 10
16.9618335465311
 20
-13.95577543388097
 30
0.0
 10
16.85189000198089
 20
-13.90605775788989
 30
0.0
 10
16.75151207113776
 20
-13.8580935600016
 30
0.0
 10
16.66057219278427
 20
-13.81226392065305
 30
0.0
 10
16.57893461615205
 20
-13.76893934212292
 30
0.0
 10
16.50644066432269
 20
-13.72850439520703
 30
0.0
 10
16.44295605816938
 20
-13.6912782216533
 30
0.0
 10
16.36512175230012
 20
-13.64361211234518
 30
0.0
 10
16.2961529472384
 20
-13.59687447229127
 30
0.0
 10
16.24577401432616
 20
-13.56106043614221
 30
0.0
 10
16.23234382006624
 20
-13.55143154624714
 30
0.0
  0
ARC
  5
8A
330
1F
100
AcDbEntity
  8
0
  6
Continuous
 62
     7
370
    25
100
AcDbCircle
 10
0.0
 20
0.0
 30
0.0
 40
24.00000000000001
100
AcDbArc
 50
322.6810610094
 51
325.3189389906
  0
SPLINE
  5
8B
330
1F
100
AcDbEntity
  8
0
  6
Continuous
 62
     7
370
    25
100
AcDbSpline
210
0.0
220
0.0
230
1.0
 70
     8
 71
     3
 72
    29
 73
    25
 74
     0
 42
0.000000001
 43
0.00000001
 40
0.1146165153578265
 40
0.1146165153578265
 40
0.1146165153578265
 40
0.1146165153578265
 40
0.1254622314784576
 40
0.1552512434876337
 40
0.1693049679957221
 40
0.1854200090396344
 40
0.2035963666329278
 40
0.2238340407850208
 40
0.2461330315027167
 40
0.2704933387910942
 40
0.2969149626540439
 40
0.3253979030946068
 40
0.3559421601152148
 40
0.3885477337178345
 40
0.4232146239040822
 40
0.4599428306753026
 40
0.4987323540326257
 40
0.5395831939770115
 40
0.5824953505092814
 40
0.6274688236301409
 40
0.6745036133402074
 40
0.7235997196400171
 40
0.7747571425300435
 40
0.7819976423039965
 40
0.7819976423039965
 40
0.7819976423039965
 40
0.7819976423039965
 10
17.90424737612387
 20
-11.2502537189179
 30
0.0
 10
17.91755515286733
 20
-11.26005110206937
 30
0.0
 10
17.96718427175008
 20
-11.29689716869233
 30
0.0
 10
18.03294694172542
 20
-11.34804767511374
 30
0.0
 10
18.10233222884833
 20
-11.40734286107006
 30
0.0
 10
18.15735424596591
 20
-11.45621678917294
 30
0.0
 10
18.21821202882099
 20
-11.51266754868858
 30
0.0
 10
18.28464355010675
 20
-11.57692146687925
 30
0.0
 10
18.35633209512627
 20
-11.64924829337366
 30
0.0
 10
18.43296724456753
 20
-11.72989162632519
 30
0.0
 10
18.51422598798172
 20
-11.81909054399218
 30
0.0
 10
18.59977894096794
 20
-11.91707258824178
 30
0.0
 10
18.68928880136179
 20
-12.02405562327963
 30
0.0
 10
18.78241118466078
 20
-12.14024699186968
 30
0.0
 10
18.87879474732578
 20
-12.26584349853658
 30
0.0
 10
18.97808153057527
 20
-12.401031154849
 30
0.0
 10
19.0799072454517
 20
-12.54598500550026
 30
0.0
 10
19.18390158184194
 20
-12.70086894067882
 30
0.0
 10
19.28968851671978
 20
-12.86583552290982
 30
0.0
 10
19.39688662898397
 20
-13.04102581965957
 30
0.0
 10
19.50510941696888
 20
-13.22656924678781
 30
0.0
 10
19.61396562553409
 20
-13.42258341194885
 30
0.0
 10
19.690376473368
 20
-13.56728222155656
 30
0.0
 10
19.73095519299317
 20
-13.6463722977411
 30
0.0
 10
19.73597208417882
 20
-13.65618562749184
 30
0.0
  0
ARC
  5
8C
330
1F
100
AcDbEntity
  8
0
  6
Continuous
 62
     7
370
    25
100
AcDbCircle
 10
18.2421841997
 20
-10.7912344347
 30
0.0
 40
0.5699999999999993
100
AcDbArc
 50
149.3933993483
 51
233.6389469986
  0
ARC
  5
8D
330
1F
100
AcDbEntity
  8
0
  6
Continuous
 62
     7
370
    25
100
AcDbCircle
 10
0.0
 20
0.0
 30
0.0
 40
20.625
100
AcDbArc
 50
329.3933993483
 51
330.6066006517
  0
ARC
  5
8E
330
1F
100
AcDbEntity
  8
0
  6
Continuous
 62
     7
370
    25
100
AcDbCircle
 10
18.4665752585
 20
-10.4025777201
 30
0.0
 40
0.570000000000012
100
AcDbArc
 50
66.3610530014
 51
150.6066006517
  0
SPLINE
  5
8F
330
1F
100
AcDbEntity
  8
0
  6
Continuous
 62
     7
370
    25
100
AcDbSpline
210
0.0
220
0.0
230
1.0
 70
     8
 71
     3
 72
    29
 73
    25
 74
     0
 42
0.000000001
 43
0.00000001
 40
0.3326188730538309
 40
0.3326188730538309
 40
0.3326188730538309
 40
0.3326188730538309
 40
0.3398593728277818
 40
0.3910167957178082
 40
0.4401129020176182
 40
0.4871476917276847
 40
0.5321211648485444
 40
0.5750333213808144
 40
0.6158841613252003
 40
0.6546736846825236
 40
0.6914018914537441
 40
0.7260687816399919
 40
0.7586743552426116
 40
0.7892186122632198
 40
0.8177015527037828
 40
0.8441231765667325
 40
0.8684834838551101
 40
0.890782474572806
 40
0.9110201487248991
 40
0.9291965063181925
 40
0.9453115473621049
 40
0.9593652718701934
 40
0.9891542838793695
 40
1.0
 40
1.0
 40
1.0
 40
1.0
 10
21.69458971429345
 20
-10.26376037953304
 30
0.0
 10
21.68358267584079
 20
-10.26432228919362
 30
0.0
 10
21.59479930086515
 20
-10.26872512523746
 30
0.0
 10
21.43128103193055
 20
-10.27490079469244
 30
0.0
 10
21.20709968111689
 20
-10.27863563529583
 30
0.0
 10
20.99230296572615
 20
-10.27768366519665
 30
0.0
 10
20.78698466211224
 20
-10.272442525113
 30
0.0
 10
20.59122594368577
 20
-10.26331164323581
 30
0.0
 10
20.40509535298791
 20
-10.25069187366144
 30
0.0
 10
20.22864877850933
 20
-10.23498514314557
 30
0.0
 10
20.06192944223995
 20
-10.21659409474769
 30
0.0
 10
19.90496789550733
 20
-10.195921734306
 30
0.0
 10
19.75778202695837
 20
-10.17337106900315
 30
0.0
 10
19.62037707064471
 20
-10.1493447735318
 30
0.0
 10
19.49274565471672
 20
-10.12424476500177
 30
0.0
 10
19.37486775431993
 20
-10.09847208775897
 30
0.0
 10
19.26671100461743
 20
-10.07242576799579
 30
0.0
 10
19.1682298629884
 20
-10.04650508009576
 30
0.0
 10
19.07936857689971
 20
-10.02110065414557
 30
0.0
 10
19.0000518936687
 20
-9.996621647932896
 30
0.0
 10
18.93021482179008
 20
-9.973408147393048
 30
0.0
 10
18.84417104086833
 20
-9.942966319073898
 30
0.0
 10
18.76699206790329
 20
-9.911589429465273
 30
0.0
 10
18.71026787873689
 20
-9.88703238505685
 30
0.0
 10
18.69512920766538
 20
-9.88040620390485
 30
0.0
  0
ARC
  5
90
330
1F
100
AcDbEntity
  8
0
  6
Continuous
 62
     7
370
    25
100
AcDbCircle
 10
0.0
 20
0.0
 30
0.0
 40
24.0
100
AcDbArc
 50
334.6810610094
 51
337.3189389906
  0
SPLINE
  5
91
330
1F
100
AcDbEntity
  8
0
  6
Continuous
 62
     7
370
    25
100
AcDbSpline
210
0.0
220
0.0
230
1.0
 70
     8
 71
     3
 72
    29
 73
    25
 74
     0
 42
0.000000001
 43
0.00000001
 40
0.1146165153578265
 40
0.1146165153578265
 40
0.1146165153578265
 40
0.1146165153578265
 40
0.1254622314784576
 40
0.1552512434876337
 40
0.1693049679957221
 40
0.1854200090396344
 40
0.2035963666329278
 40
0.2238340407850208
 40
0.2461330315027167
 40
0.2704933387910942
 40
0.2969149626540439
 40
0.3253979030946068
 40
0.3559421601152148
 40
0.3885477337178345
 40
0.4232146239040822
 40
0.4599428306753026
 40
0.4987323540326257
 40
0.5395831939770115
 40
0.5824953505092814
 40
0.6274688236301409
 40
0.6745036133402074
 40
0.7235997196400171
 40
0.7747571425300435
 40
0.7819976423039975
 40
0.7819976423039975
 40
0.7819976423039975
 40
0.7819976423039975
 10
19.8520558867291
 20
-7.281906338016773
 30
0.0
 10
19.86710984711844
 20
-7.288722782476089
 30
0.0
 10
19.92331517869169
 20
-7.314445200119103
 30
0.0
 10
19.99827556482218
 20
-7.350805117344262
 30
0.0
 10
20.07847277931721
 20
-7.394378548858907
 30
0.0
 10
20.14245389437708
 20
-7.430744743760052
 30
0.0
 10
20.2137185615216
 20
-7.47330887420706
 30
0.0
 10
20.29205753545306
 20
-7.52234680020889
 30
0.0
 10
20.37721710655193
 20
-7.578188225405811
 30
0.0
 10
20.4689442858169
 20
-7.641135964551128
 30
0.0
 10
20.5669728285174
 20
-7.711491029118176
 30
0.0
 10
20.67102785670627
 20
-7.7895444715061
 30
0.0
 10
20.78082473559607
 20
-7.875579524128241
 30
0.0
 10
20.89606971529658
 20
-7.9698706003759
 30
0.0
 10
21.01646004792945
 20
-8.072683252551958
 30
0.0
 10
21.14168427095111
 20
-8.184273851241521
 30
0.0
 10
21.27142244982995
 20
-8.304889355924495
 30
0.0
 10
21.40534644130345
 20
-8.434767067197244
 30
0.0
 10
21.54312015888327
 20
-8.574134393310878
 30
0.0
 10
21.68439984600979
 20
-8.723208620975162
 30
0.0
 10
21.8288343540763
 20
-8.88219669621763
 30
0.0
 10
21.9760654298122
 20
-9.05129500320094
 30
0.0
 10
22.08089109145584
 20
-9.17694508807779
 30
0.0
 10
22.13702682016448
 20
-9.245870066131069
 30
0.0
 10
22.14397438622189
 20
-9.254425880752907
 30
0.0
  0
ARC
  5
92
330
1F
100
AcDbEntity
  8
0
  6
Continuous
 62
     7
370
    25
100
AcDbCircle
 10
20.0871725044
 20
-6.7626567101
 30
0.0
 40
0.5699999999999995
100
AcDbArc
 50
161.3933993483
 51
245.6389469986
  0
ARC
  5
93
330
1F
100
AcDbEntity
  8
0
  6
Continuous
 62
     7
370
    25
100
AcDbCircle
 10
0.0
 20
0.0
 30
0.0
 40
20.62500000000001
100
AcDbArc
 50
341.3933993483
 51
342.6066006517
  0
ARC
  5
94
330
1F
100
AcDbEntity
  8
0
  6
Continuous
 62
     7
370
    25
100
AcDbCircle
 10
20.2258538055
 20
-6.3358395527
 30
0.0
 40
0.5700000000000045
100
AcDbArc
 50
78.3610530014
 51
162.6066006517
  0
SPLINE
  5
95
330
1F
100
AcDbEntity
  8
0
  6
Continuous
 62
     7
370
    25
100
AcDbSpline
210
0.0
220
0.0
230
1.0
 70
     8
 71
     3
 72
    29
 73
    25
 74
     0
 42
0.000000001
 43
0.00000001
 40
0.3326188730538291
 40
0.3326188730538291
 40
0.3326188730538291
 40
0.3326188730538291
 40
0.3398593728277818
 40
0.3910167957178082
 40
0.4401129020176182
 40
0.4871476917276847
 40
0.5321211648485444
 40
0.5750333213808144
 40
0.6158841613252003
 40
0.6546736846825236
 40
0.6914018914537441
 40
0.7260687816399919
 40
0.7586743552426116
 40
0.7892186122632198
 40
0.8177015527037828
 40
0.8441231765667325
 40
0.8684834838551101
 40
0.890782474572806
 40
0.9110201487248991
 40
0.9291965063181925
 40
0.9453115473621049
 40
0.9593652718701934
 40
0.9891542838793695
 40
1.0
 40
1.0
 40
1.0
 40
1.0
 10
23.35446665259749
 20
-5.528913760650608
 30
0.0
 10
23.34381697193145
 20
-5.531751883212525
 30
0.0
 10
23.25788912780024
 20
-5.554517608332917
 30
0.0
 10
23.09922811924403
 20
-5.594555684367015
 30
0.0
 10
22.88072218584117
 20
-5.644818833439832
 30
0.0
 10
22.67042136832329
 20
-5.688546414450337
 30
0.0
 10
22.46850006796
 20
-5.726107881512607
 30
0.0
 10
22.27512073011868
 20
-5.757877057452209
 30
0.0
 10
22.09043374177448
 20
-5.784231785946125
 30
0.0
 10
21.91457733539178
 20
-5.805553590815503
 30
0.0
 10
21.74767750265564
 20
-5.822227330045918
 30
0.0
 10
21.58984791689903
 20
-5.834640850852926
 30
0.0
 10
21.44118986576376
 20
-5.843184634486486
 30
0.0
 10
21.30179218970108
 20
-5.848251468010574
 30
0.0
 10
21.17173124121985
 20
-5.850236018375579
 30
0.0
 10
21.05107081486473
 20
-5.849534729547591
 30
0.0
 10
20.93986221525852
 20
-5.846544637067297
 30
0.0
 10
20.83814390880811
 20
-5.84166575905826
 30
0.0
 10
20.74594257786879
 20
-5.835291781006005
 30
0.0
 10
20.66326968289698
 20
-5.82783856553135
 30
0.0
 10
20.5901323604496
 20
-5.819652279369707
 30
0.0
 10
20.49963963058551
 20
-5.807765186013176
 30
0.0
 10
20.41762358118152
 20
-5.793120367488748
 30
0.0
 10
20.35703325502039
 20
-5.780893575499389
 30
0.0
 10
20.34084773970652
 20
-5.777559699002744
 30
0.0
  0
ARC
  5
96
330
1F
100
AcDbEntity
  8
0
  6
Continuous
 62
     7
370
    25
100
AcDbCircle
 10
0.0
 20
0.0
 30
0.0
 40
24.0
100
AcDbArc
 50
346.6810610094
 51
349.3189389906
  0
SPLINE
  5
97
330
1F
100
AcDbEntity
  8
0
  6
Continuous
 62
     7
370
    25
100
AcDbSpline
210
0.0
220
0.0
230
1.0
 70
     8
 71
     3
 72
    29
 73
    25
 74
     0
 42
0.000000001
 43
0.00000001
 40
0.1146165153578265
 40
0.1146165153578265
 40
0.1146165153578265
 40
0.1146165153578265
 40
0.1254622314784576
 40
0.1552512434876337
 40
0.1693049679957221
 40
0.1854200090396344
 40
0.2035963666329278
 40
0.2238340407850208
 40
0.2461330315027167
 40
0.2704933387910942
 40
0.2969149626540439
 40
0.3253979030946068
 40
0.3559421601152148
 40
0.3885477337178345
 40
0.4232146239040822
 40
0.4599428306753026
 40
0.4987323540326257
 40
0.5395831939770115
 40
0.5824953505092814
 40
0.6274688236301409
 40
0.6745036133402074
 40
0.7235997196400171
 40
0.7747571425300435
 40
0.7819976423039973
 40
0.7819976423039973
 40
0.7819976423039973
 40
0.7819976423039973
 10
20.93223429435112
 20
-2.995304707680893
 30
0.0
 10
20.94837650808039
 20
-2.998842302116258
 30
0.0
 10
21.0087016096513
 20
-3.012316877698475
 30
0.0
 10
21.0895835833632
 20
-3.032297102870403
 30
0.0
 10
21.17708772212798
 20
-3.058244411897657
 30
0.0
 10
21.24723165338657
 20
-3.080513496375525
 30
0.0
 10
21.3257885969005
 20
-3.107330741008006
 30
0.0
 10
21.41261123440475
 20
-3.139009482144638
 30
0.0
 10
21.50751994968499
 20
-3.175924967806083
 30
0.0
 10
21.61033024088396
 20
-3.218425994887768
 30
0.0
 10
21.72084426516161
 20
-3.266862352432236
 30
0.0
 10
21.83885366450987
 20
-3.321575882984161
 30
0.0
 10
21.96413891142425
 20
-3.382902808549023
 30
0.0
 10
22.0964697289066
 20
-3.451172619963488
 30
0.0
 10
22.23560519627436
 20
-3.526708011398766
 30
0.0
 10
22.38129395962967
 20
-3.609824507831636
 30
0.0
 10
22.53327442154105
 20
-3.700830190214268
 30
0.0
 10
22.69127494703181
 20
-3.800025398376187
 30
0.0
 10
22.85501407474372
 20
-3.907702447462656
 30
0.0
 10
23.02420073646998
 20
-4.024145346955044
 30
0.0
 10
23.19853448354193
 20
-4.149629528514207
 30
0.0
 10
23.37770572194578
 20
-4.284421569880913
 30
0.0
 10
23.50636481297598
 20
-4.385531418381784
 30
0.0
 10
23.57560415005442
 20
-4.441278946024127
 30
0.0
 10
23.58417874900876
 20
-4.448203315362738
 30
0.0
  0
ARC
  5
98
330
1F
100
AcDbEntity
  8
0
  6
Continuous
 62
     7
370
    25
100
AcDbCircle
 10
21.0542549817
 20
-2.4385184364
 30
0.0
 40
0.5699999999999985
100
AcDbArc
 50
173.3933993483
 51
257.6389469986
  0
ARC
  5
99
330
1F
100
AcDbEntity
  8
0
  6
Continuous
 62
     7
370
    25
100
AcDbCircle
 10
0.0
 20
0.0
 30
0.0
 40
20.625
100
AcDbArc
 50
353.3933993483
 51
354.6066006517
  0
ARC
  5
9A
330
1F
100
AcDbEntity
  8
0
  6
Continuous
 62
     7
370
    25
100
AcDbCircle
 10
21.1011654868
 20
-1.9921947942
 30
0.0
 40
0.5700000000000068
100
AcDbArc
 50
90.3610530014
 51
174.6066006517
  0
SPLINE
  5
9B
330
1F
100
AcDbEntity
  8
0
  6
Continuous
 62
     7
370
    25
100
AcDbSpline
210
0.0
220
0.0
230
1.0
 70
     8
 71
     3
 72
    29
 73
    25
 74
     0
 42
0.000000001
 43
0.00000001
 40
0.3326188730538287
 40
0.3326188730538287
 40
0.3326188730538287
 40
0.3326188730538287
 40
0.3398593728277818
 40
0.3910167957178082
 40
0.4401129020176182
 40
0.4871476917276847
 40
0.5321211648485444
 40
0.5750333213808144
 40
0.6158841613252003
 40
0.6546736846825236
 40
0.6914018914537441
 40
0.7260687816399919
 40
0.7586743552426116
 40
0.7892186122632198
 40
0.8177015527037828
 40
0.8441231765667325
 40
0.8684834838551101
 40
0.890782474572806
 40
0.9110201487248991
 40
0.9291965063181925
 40
0.9453115473621049
 40
0.9593652718701934
 40
0.9891542838793695
 40
1.0
 40
1.0
 40
1.0
 40
1.0
 10
23.99364133101836
 20
-0.5524270797559843
 30
0.0
 10
23.98381445028688
 20
-0.55741737564446
 30
0.0
 10
23.90449759611618
 20
-0.5975510184115816
 30
0.0
 10
23.75762809535226
 20
-0.6697016449781058
 30
0.0
 10
23.5543473371577
 20
-0.7642963617165086
 30
0.0
 10
23.35773357237349
 20
-0.8507923887183281
 30
0.0
 10
23.16803420501261
 20
-0.9295148465759799
 30
0.0
 10
22.98548585275712
 20
-1.0007956148984
 30
0.0
 10
22.8103141743837
 20
-1.064973013361398
 30
0.0
 10
22.64273370490847
 20
-1.122391488429856
 30
0.0
 10
22.48294769927039
 20
-1.173401292874721
 30
0.0
 10
22.33114798473774
 20
-1.218358164504477
 30
0.0
 10
22.18751482119125
 20
-1.257622992732038
 30
0.0
 10
22.05221677272776
 20
-1.291561510313201
 30
0.0
 10
21.92541057924357
 20
-1.320543885199362
 30
0.0
 10
21.80724106655482
 20
-1.344944634473128
 30
0.0
 10
21.69784096648576
 20
-1.365141450665158
 30
0.0
 10
21.59733107330443
 20
-1.381517612927569
 30
0.0
 10
21.50581933810759
 20
-1.39445265619987
 30
0.0
 10
21.42340343361384
 20
-1.40435097274397
 30
0.0
 10
21.35016231254045
 20
-1.411549680947957
 30
0.0
 10
21.25917560026136
 20
-1.418736845574327
 30
0.0
 10
21.17590696933406
 20
-1.421464146977252
 30
0.0
 10
21.11409859417609
 20
-1.422101976887548
 30
0.0
 10
21.09757361930579
 20
-1.422206111446875
 30
0.0
  0
ARC
  5
9C
330
1F
100
AcDbEntity
  8
0
  6
Continuous
 62
     7
370
    25
100
AcDbCircle
 10
0.0
 20
0.0
 30
0.0
 40
24.00000000000001
100
AcDbArc
 50
358.6810610094
 51
1.3189389906
  0
SPLINE
  5
9D
330
1F
100
AcDbEntity
  8
0
  6
Continuous
 62
     7
370
    25
100
AcDbSpline
210
0.0
220
0.0
230
1.0
 70
     8
 71
     3
 72
    29
 73
    25
 74
     0
 42
0.000000001
 43
0.00000001
 40
0.1146165153578265
 40
0.1146165153578265
 40
0.1146165153578265
 40
0.1146165153578265
 40
0.1254622314784576
 40
0.1552512434876337
 40
0.1693049679957221
 40
0.1854200090396344
 40
0.2035963666329278
 40
0.2238340407850208
 40
0.2461330315027167
 40
0.2704933387910942
 40
0.2969149626540439
 40
0.3253979030946068
 40
0.3559421601152148
 40
0.3885477337178345
 40
0.4232146239040822
 40
0.4599428306753026
 40
0.4987323540326257
 40
0.5395831939770115
 40
0.5824953505092814
 40
0.6274688236301409
 40
0.6745036133402074
 40
0.7235997196400171
 40
0.7747571425300435
 40
0.781997642303997
 40
0.781997642303997
 40
0.781997642303997
 40
0.781997642303997
 10
21.09757361930576
 20
1.422206111447297
 30
0.0
 10
21.11409859417607
 20
1.42210197688797
 30
0.0
 10
21.17590696933402
 20
1.421464146977678
 30
0.0
 10
21.25917560026134
 20
1.418736845574753
 30
0.0
 10
21.35016231254042
 20
1.411549680948385
 30
0.0
 10
21.42340343361381
 20
1.4043509727444
 30
0.0
 10
21.50581933810755
 20
1.394452656200301
 30
0.0
 10
21.59733107330441
 20
1.381517612928002
 30
0.0
 10
21.69784096648573
 20
1.365141450665593
 30
0.0
 10
21.8072410665548
 20
1.344944634473566
 30
0.0
 10
21.92541057924354
 20
1.320543885199801
 30
0.0
 10
22.05221677272774
 20
1.291561510313644
 30
0.0
 10
22.18751482119123
 20
1.257622992732483
 30
0.0
 10
22.33114798473772
 20
1.218358164504926
 30
0.0
 10
22.48294769927037
 20
1.173401292875171
 30
0.0
 10
22.64273370490844
 20
1.12239148843031
 30
0.0
 10
22.81031417438367
 20
1.064973013361855
 30
0.0
 10
22.9854858527571
 20
1.000795614898862
 30
0.0
 10
23.16803420501259
 20
0.9295148465764437
 30
0.0
 10
23.35773357237348
 20
0.8507923887187963
 30
0.0
 10
23.55434733715769
 20
0.7642963617169808
 30
0.0
 10
23.75762809535225
 20
0.6697016449785818
 30
0.0
 10
23.90449759611617
 20
0.5975510184120609
 30
0.0
 10
23.98381445028687
 20
0.5574173756449404
 30
0.0
 10
23.99364133101835
 20
0.5524270797564645
 30
0.0
  0
ARC
  5
9E
330
1F
100
AcDbEntity
  8
0
  6
Continuous
 62
     7
370
    25
100
AcDbCircle
 10
21.1011654868
 20
1.9921947942
 30
0.0
 40
0.5700000000000041
100
AcDbArc
 50
185.3933993483
 51
269.6389469986
  0
ARC
  5
9F
330
1F
100
AcDbEntity
  8
0
  6
Continuous
 62
     7
370
    25
100
AcDbCircle
 10
0.0
 20
0.0
 30
0.0
 40
20.625
100
AcDbArc
 50
5.3933993483
 51
6.6066006517
  0
ARC
  5
A0
330
1F
100
AcDbEntity
  8
0
  6
Continuous
 62
     7
370
    25
100
AcDbCircle
 10
21.0542549817
 20
2.4385184364
 30
0.0
 40
0.5700000000000113
100
AcDbArc
 50
102.3610530014
 51
186.6066006517
  0
SPLINE
  5
A1
330
1F
100
AcDbEntity
  8
0
  6
Continuous
 62
     7
370
    25
100
AcDbSpline
210
0.0
220
0.0
230
1.0
 70
     8
 71
     3
 72
    29
 73
    25
 74
     0
 42
0.000000001
 43
0.00000001
 40
0.3326188730538308
 40
0.3326188730538308
 40
0.3326188730538308
 40
0.3326188730538308
 40
0.3398593728277818
 40
0.3910167957178082
 40
0.4401129020176182
 40
0.4871476917276847
 40
0.5321211648485444
 40
0.5750333213808144
 40
0.6158841613252003
 40
0.6546736846825236
 40
0.6914018914537441
 40
0.7260687816399919
 40
0.7586743552426116
 40
0.7892186122632198
 40
0.8177015527037828
 40
0.8441231765667325
 40
0.8684834838551101
 40
0.890782474572806
 40
0.9110201487248991
 40
0.9291965063181925
 40
0.9453115473621049
 40
0.9593652718701934
 40
0.9891542838793695
 40
1.0
 40
1.0
 40
1.0
 40
1.0
 10
23.58417874900866
 20
4.448203315363203
 30
0.0
 10
23.57560415005433
 20
4.441278946024594
 30
0.0
 10
23.50636481297589
 20
4.385531418382253
 30
0.0
 10
23.3777057219457
 20
4.284421569881381
 30
0.0
 10
23.19853448354185
 20
4.149629528514672
 30
0.0
 10
23.0242007364699
 20
4.024145346955506
 30
0.0
 10
22.85501407474365
 20
3.907702447463115
 30
0.0
 10
22.69127494703173
 20
3.800025398376642
 30
0.0
 10
22.53327442154098
 20
3.70083019021472
 30
0.0
 10
22.38129395962961
 20
3.609824507832086
 30
0.0
 10
22.23560519627429
 20
3.526708011399212
 30
0.0
 10
22.09646972890652
 20
3.451172619963931
 30
0.0
 10
21.96413891142418
 20
3.382902808549463
 30
0.0
 10
21.83885366450979
 20
3.321575882984598
 30
0.0
 10
21.72084426516155
 20
3.266862352432672
 30
0.0
 10
21.61033024088389
 20
3.218425994888201
 30
0.0
 10
21.50751994968493
 20
3.175924967806515
 30
0.0
 10
21.41261123440469
 20
3.139009482145068
 30
0.0
 10
21.32578859690044
 20
3.107330741008435
 30
0.0
 10
21.24723165338651
 20
3.08051349637595
 30
0.0
 10
21.17708772212792
 20
3.058244411898082
 30
0.0
 10
21.08958358336313
 20
3.032297102870825
 30
0.0
 10
21.00870160965125
 20
3.0123168776989
 30
0.0
 10
20.94837650808033
 20
2.998842302116676
 30
0.0
 10
20.93223429435107
 20
2.995304707681312
 30
0.0
  0
ARC
  5
A2
330
1F
100
AcDbEntity
  8
0
  6
Continuous
 62
     7
370
    25
100
AcDbCircle
 10
0.0
 20
0.0
 30
0.0
 40
24.0
100
AcDbArc
 50
10.6810610094
 51
13.3189389906
  0
SPLINE
  5
A3
330
1F
100
AcDbEntity
  8
0
  6
Continuous
 62
     7
370
    25
100
AcDbSpline
210
0.0
220
0.0
230
1.0
 70
     8
 71
     3
 72
    29
 73
    25
 74
     0
 42
0.000000001
 43
0.00000001
 40
0.1146165153578265
 40
0.1146165153578265
 40
0.1146165153578265
 40
0.1146165153578265
 40
0.1254622314784576
 40
0.1552512434876337
 40
0.1693049679957221
 40
0.1854200090396344
 40
0.2035963666329278
 40
0.2238340407850208
 40
0.2461330315027167
 40
0.2704933387910942
 40
0.2969149626540439
 40
0.3253979030946068
 40
0.3559421601152148
 40
0.3885477337178345
 40
0.4232146239040822
 40
0.4599428306753026
 40
0.4987323540326257
 40
0.5395831939770115
 40
0.5824953505092814
 40
0.6274688236301409
 40
0.6745036133402074
 40
0.7235997196400171
 40
0.7747571425300435
 40
0.7819976423039963
 40
0.7819976423039963
 40
0.7819976423039963
 40
0.7819976423039963
 10
20.3408477397064
 20
5.777559699003151
 30
0.0
 10
20.35703325502028
 20
5.780893575499798
 30
0.0
 10
20.4176235811814
 20
5.793120367489158
 30
0.0
 10
20.49963963058539
 20
5.807765186013588
 30
0.0
 10
20.59013236044948
 20
5.81965227937012
 30
0.0
 10
20.66326968289687
 20
5.827838565531765
 30
0.0
 10
20.74594257786866
 20
5.83529178100642
 30
0.0
 10
20.83814390880799
 20
5.841665759058679
 30
0.0
 10
20.9398622152584
 20
5.846544637067717
 30
0.0
 10
21.05107081486462
 20
5.849534729548015
 30
0.0
 10
21.17173124121972
 20
5.850236018376002
 30
0.0
 10
21.30179218970097
 20
5.848251468011004
 30
0.0
 10
21.44118986576364
 20
5.843184634486915
 30
0.0
 10
21.58984791689891
 20
5.83464085085336
 30
0.0
 10
21.74767750265552
 20
5.822227330046355
 30
0.0
 10
21.91457733539166
 20
5.805553590815941
 30
0.0
 10
22.09043374177436
 20
5.784231785946568
 30
0.0
 10
22.27512073011857
 20
5.757877057452658
 30
0.0
 10
22.46850006795988
 20
5.726107881513056
 30
0.0
 10
22.67042136832317
 20
5.688546414450792
 30
0.0
 10
22.88072218584105
 20
5.64481883344029
 30
0.0
 10
23.09922811924392
 20
5.594555684367479
 30
0.0
 10
23.25788912780013
 20
5.554517608333383
 30
0.0
 10
23.34381697193134
 20
5.531751883212994
 30
0.0
 10
23.35446665259738
 20
5.528913760651076
 30
0.0
  0
ARC
  5
A4
330
1F
100
AcDbEntity
  8
0
  6
Continuous
 62
     7
370
    25
100
AcDbCircle
 10
20.2258538055
 20
6.3358395527
 30
0.0
 40
0.569999999999999
100
AcDbArc
 50
197.3933993483
 51
281.6389469986
  0
ARC
  5
A5
330
1F
100
AcDbEntity
  8
0
  6
Continuous
 62
     7
370
    25
100
AcDbCircle
 10
0.0
 20
0.0
 30
0.0
 40
20.625
100
AcDbArc
 50
17.3933993483
 51
18.6066006517
  0
ARC
  5
A6
330
1F
100
AcDbEntity
  8
0
  6
Continuous
 62
     7
370
    25
100
AcDbCircle
 10
20.0871725044
 20
6.7626567101
 30
0.0
 40
0.5700000000000084
100
AcDbArc
 50
114.3610530014
 51
198.6066006517
  0
SPLINE
  5
A7
330
1F
100
AcDbEntity
  8
0
  6
Continuous
 62
     7
370
    25
100
AcDbSpline
210
0.0
220
0.0
230
1.0
 70
     8
 71
     3
 72
    29
 73
    25
 74
     0
 42
0.000000001
 43
0.00000001
 40
0.3326188730538304
 40
0.3326188730538304
 40
0.3326188730538304
 40
0.3326188730538304
 40
0.3398593728277818
 40
0.3910167957178082
 40
0.4401129020176182
 40
0.4871476917276847
 40
0.5321211648485444
 40
0.5750333213808144
 40
0.6158841613252003
 40
0.6546736846825236
 40
0.6914018914537441
 40
0.7260687816399919
 40
0.7586743552426116
 40
0.7892186122632198
 40
0.8177015527037828
 40
0.8441231765667325
 40
0.8684834838551101
 40
0.890782474572806
 40
0.9110201487248991
 40
0.9291965063181925
 40
0.9453115473621049
 40
0.9593652718701934
 40
0.9891542838793695
 40
1.0
 40
1.0
 40
1.0
 40
1.0
 10
22.1439743862217
 20
9.254425880753343
 30
0.0
 10
22.1370268201643
 20
9.245870066131507
 30
0.0
 10
22.08089109145566
 20
9.17694508807823
 30
0.0
 10
21.97606542981202
 20
9.05129500320138
 30
0.0
 10
21.82883435407613
 20
8.882196696218069
 30
0.0
 10
21.68439984600961
 20
8.723208620975601
 30
0.0
 10
21.5431201588831
 20
8.574134393311311
 30
0.0
 10
21.40534644130328
 20
8.434767067197672
 30
0.0
 10
21.27142244982979
 20
8.30488935592492
 30
0.0
 10
21.14168427095096
 20
8.184273851241947
 30
0.0
 10
21.01646004792929
 20
8.072683252552379
 30
0.0
 10
20.89606971529642
 20
7.96987060037632
 30
0.0
 10
20.78082473559592
 20
7.875579524128658
 30
0.0
 10
20.67102785670611
 20
7.789544471506513
 30
0.0
 10
20.56697282851725
 20
7.711491029118589
 30
0.0
 10
20.46894428581675
 20
7.641135964551538
 30
0.0
 10
20.37721710655178
 20
7.578188225406222
 30
0.0
 10
20.29205753545291
 20
7.522346800209297
 30
0.0
 10
20.21371856152145
 20
7.473308874207468
 30
0.0
 10
20.14245389437693
 20
7.430744743760455
 30
0.0
 10
20.07847277931706
 20
7.394378548859311
 30
0.0
 10
19.99827556482203
 20
7.350805117344662
 30
0.0
 10
19.92331517869156
 20
7.314445200119508
 30
0.0
 10
19.86710984711829
 20
7.288722782476485
 30
0.0
 10
19.85205588672896
 20
7.281906338017171
 30
0.0
  0
ARC
  5
A8
330
1F
100
AcDbEntity
  8
0
  6
Continuous
 62
     7
370
    25
100
AcDbCircle
 10
0.0
 20
0.0
 30
0.0
 40
24.0
100
AcDbArc
 50
22.6810610094
 51
25.3189389906
  0
SPLINE
  5
A9
330
1F
100
AcDbEntity
  8
0
  6
Continuous
 62
     7
370
    25
100
AcDbSpline
210
0.0
220
0.0
230
1.0
 70
     8
 71
     3
 72
    29
 73
    25
 74
     0
 42
0.000000001
 43
0.00000001
 40
0.1146165153578265
 40
0.1146165153578265
 40
0.1146165153578265
 40
0.1146165153578265
 40
0.1254622314784576
 40
0.1552512434876337
 40
0.1693049679957221
 40
0.1854200090396344
 40
0.2035963666329278
 40
0.2238340407850208
 40
0.2461330315027167
 40
0.2704933387910942
 40
0.2969149626540439
 40
0.3253979030946068
 40
0.3559421601152148
 40
0.3885477337178345
 40
0.4232146239040822
 40
0.4599428306753026
 40
0.4987323540326257
 40
0.5395831939770115
 40
0.5824953505092814
 40
0.6274688236301409
 40
0.6745036133402074
 40
0.7235997196400171
 40
0.7747571425300435
 40
0.7819976423039967
 40
0.7819976423039967
 40
0.7819976423039967
 40
0.7819976423039967
 10
18.69512920766517
 20
9.880406203905238
 30
0.0
 10
18.71026787873669
 20
9.887032385057243
 30
0.0
 10
18.76699206790308
 20
9.911589429465664
 30
0.0
 10
18.84417104086812
 20
9.942966319074294
 30
0.0
 10
18.93021482178987
 20
9.973408147393444
 30
0.0
 10
19.00005189366849
 20
9.996621647933297
 30
0.0
 10
19.0793685768995
 20
10.02110065414596
 30
0.0
 10
19.16822986298819
 20
10.04650508009616
 30
0.0
 10
19.26671100461721
 20
10.0724257679962
 30
0.0
 10
19.37486775431972
 20
10.09847208775937
 30
0.0
 10
19.4927456547165
 20
10.12424476500217
 30
0.0
 10
19.6203770706445
 20
10.14934477353221
 30
0.0
 10
19.75778202695816
 20
10.17337106900356
 30
0.0
 10
19.90496789550712
 20
10.19592173430642
 30
0.0
 10
20.06192944223974
 20
10.21659409474811
 30
0.0
 10
20.22864877850911
 20
10.23498514314599
 30
0.0
 10
20.4050953529877
 20
10.25069187366186
 30
0.0
 10
20.59122594368555
 20
10.26331164323624
 30
0.0
 10
20.78698466211202
 20
10.27244252511344
 30
0.0
 10
20.99230296572593
 20
10.27768366519709
 30
0.0
 10
21.20709968111667
 20
10.27863563529628
 30
0.0
 10
21.43128103193034
 20
10.27490079469288
 30
0.0
 10
21.59479930086493
 20
10.26872512523791
 30
0.0
 10
21.68358267584058
 20
10.26432228919408
 30
0.0
 10
21.69458971429325
 20
10.26376037953349
 30
0.0
  0
ARC
  5
AA
330
1F
100
AcDbEntity
  8
0
  6
Continuous
 62
     7
370
    25
100
AcDbCircle
 10
18.4665752585
 20
10.4025777201
 30
0.0
 40
0.5699999999999974
100
AcDbArc
 50
209.3933993483
 51
293.6389469986
  0
ARC
  5
AB
330
1F
100
AcDbEntity
  8
0
  6
Continuous
 62
     7
370
    25
100
AcDbCircle
 10
0.0
 20
0.0
 30
0.0
 40
20.625
100
AcDbArc
 50
29.3933993483
 51
30.6066006517
  0
ARC
  5
AC
330
1F
100
AcDbEntity
  8
0
  6
Continuous
 62
     7
370
    25
100
AcDbCircle
 10
18.2421841997
 20
10.7912344347
 30
0.0
 40
0.5700000000000087
100
AcDbArc
 50
126.3610530014
 51
210.6066006517
  0
SPLINE
  5
AD
330
1F
100
AcDbEntity
  8
0
  6
Continuous
 62
     7
370
    25
100
AcDbSpline
210
0.0
220
0.0
230
1.0
 70
     8
 71
     3
 72
    29
 73
    25
 74
     0
 42
0.000000001
 43
0.00000001
 40
0.3326188730538293
 40
0.3326188730538293
 40
0.3326188730538293
 40
0.3326188730538293
 40
0.3398593728277818
 40
0.3910167957178082
 40
0.4401129020176182
 40
0.4871476917276847
 40
0.5321211648485444
 40
0.5750333213808144
 40
0.6158841613252003
 40
0.6546736846825236
 40
0.6914018914537441
 40
0.7260687816399919
 40
0.7586743552426116
 40
0.7892186122632198
 40
0.8177015527037828
 40
0.8441231765667325
 40
0.8684834838551101
 40
0.890782474572806
 40
0.9110201487248991
 40
0.9291965063181925
 40
0.9453115473621049
 40
0.9593652718701934
 40
0.9891542838793695
 40
1.0
 40
1.0
 40
1.0
 40
1.0
 10
19.73597208417853
 20
13.65618562749225
 30
0.0
 10
19.73095519299289
 20
13.64637229774152
 30
0.0
 10
19.69037647336772
 20
13.56728222155697
 30
0.0
 10
19.61396562553381
 20
13.42258341194927
 30
0.0
 10
19.5051094169686
 20
13.22656924678822
 30
0.0
 10
19.3968866289837
 20
13.04102581965997
 30
0.0
 10
19.28968851671952
 20
12.86583552291023
 30
0.0
 10
19.18390158184167
 20
12.70086894067922
 30
0.0
 10
19.07990724545144
 20
12.54598500550066
 30
0.0
 10
18.97808153057501
 20
12.4010311548494
 30
0.0
 10
18.87879474732553
 20
12.26584349853697
 30
0.0
 10
18.78241118466052
 20
12.14024699187007
 30
0.0
 10
18.68928880136154
 20
12.02405562328002
 30
0.0
 10
18.59977894096768
 20
11.91707258824217
 30
0.0
 10
18.51422598798148
 20
11.81909054399257
 30
0.0
 10
18.43296724456728
 20
11.72989162632558
 30
0.0
 10
18.35633209512603
 20
11.64924829337405
 30
0.0
 10
18.28464355010652
 20
11.57692146687963
 30
0.0
 10
18.21821202882075
 20
11.51266754868897
 30
0.0
 10
18.15735424596567
 20
11.45621678917332
 30
0.0
 10
18.10233222884809
 20
11.40734286107044
 30
0.0
 10
18.03294694172519
 20
11.34804767511411
 30
0.0
 10
17.96718427174985
 20
11.29689716869271
 30
0.0
 10
17.9175551528671
 20
11.26005110206974
 30
0.0
 10
17.90424737612364
 20
11.25025371891828
 30
0.0
  0
ARC
  5
AE
330
1F
100
AcDbEntity
  8
0
  6
Continuous
 62
     7
370
    25
100
AcDbCircle
 10
0.0
 20
0.0
 30
0.0
 40
24.0
100
AcDbArc
 50
34.6810610094
 51
37.3189389906
  0
SPLINE
  5
AF
330
1F
100
AcDbEntity
  8
0
  6
Continuous
 62
     7
370
    25
100
AcDbSpline
210
0.0
220
0.0
230
1.0
 70
     8
 71
     3
 72
    29
 73
    25
 74
     0
 42
0.000000001
 43
0.00000001
 40
0.1146165153578265
 40
0.1146165153578265
 40
0.1146165153578265
 40
0.1146165153578265
 40
0.1254622314784576
 40
0.1552512434876337
 40
0.1693049679957221
 40
0.1854200090396344
 40
0.2035963666329278
 40
0.2238340407850208
 40
0.2461330315027167
 40
0.2704933387910942
 40
0.2969149626540439
 40
0.3253979030946068
 40
0.3559421601152148
 40
0.3885477337178345
 40
0.4232146239040822
 40
0.4599428306753026
 40
0.4987323540326257
 40
0.5395831939770115
 40
0.5824953505092814
 40
0.6274688236301409
 40
0.6745036133402074
 40
0.7235997196400171
 40
0.7747571425300435
 40
0.781997642303997
 40
0.781997642303997
 40
0.781997642303997
 40
0.781997642303997
 10
16.23234382006596
 20
13.55143154624747
 30
0.0
 10
16.24577401432588
 20
13.56106043614254
 30
0.0
 10
16.29615294723811
 20
13.5968744722916
 30
0.0
 10
16.36512175229984
 20
13.64361211234551
 30
0.0
 10
16.4429560581691
 20
13.69127822165363
 30
0.0
 10
16.5064406643224
 20
13.72850439520737
 30
0.0
 10
16.57893461615177
 20
13.76893934212325
 30
0.0
 10
16.66057219278398
 20
13.8122639206534
 30
0.0
 10
16.75151207113748
 20
13.85809356000194
 30
0.0
 10
16.85189000198061
 20
13.90605775789024
 30
0.0
 10
16.96183354653081
 20
13.95577543388131
 30
0.0
 10
17.08145732458602
 20
14.00686301049042
 30
0.0
 10
17.21086430521762
 20
14.05893237055416
 30
0.0
 10
17.35014526244852
 20
14.1115919125096
 30
0.0
 10
17.49937879737988
 20
14.16444667285169
 30
0.0
 10
17.65863120217939
 20
14.21709873181284
 30
0.0
 10
17.82795638276454
 20
14.26914753822115
 30
0.0
 10
18.00739577584887
 20
14.32019026137704
 30
0.0
 10
18.1969782795107
 20
14.36982213771816
 30
0.0
 10
18.39672019128077
 20
14.41763682197631
 30
0.0
 10
18.6066251573728
 20
14.46322673752379
 30
0.0
 10
18.82668412482524
 20
14.50618343584593
 30
0.0
 10
18.98791312113807
 20
14.53414007935941
 30
0.0
 10
19.07567176744182
 20
14.54829255745441
 30
0.0
 10
19.08655510328311
 20
14.55003141884367
 30
0.0
  0
ARC
  5
B0
330
1F
100
AcDbEntity
  8
0
  6
Continuous
 62
     7
370
    25
100
AcDbCircle
 10
15.9002187602
 20
14.014673324
 30
0.0
 40
0.5699999999999993
100
AcDbArc
 50
221.3933993483
 51
305.6389469986
  0
ARC
  5
B1
330
1F
100
AcDbEntity
  8
0
  6
Continuous
 62
     7
370
    25
100
AcDbCircle
 10
0.0
 20
0.0
 30
0.0
 40
20.62500000000001
100
AcDbArc
 50
41.3933993483
 51
42.6066006517
  0
ARC
  5
B2
330
1F
100
AcDbEntity
  8
0
  6
Continuous
 62
     7
370
    25
100
AcDbCircle
 10
15.5999249097
 20
14.3481834324
 30
0.0
 40
0.5700000000000073
100
AcDbArc
 50
138.3610530014
 51
222.6066006517
  0
SPLINE
  5
B3
330
1F
100
AcDbEntity
  8
0
  6
Continuous
 62
     7
370
    25
100
AcDbSpline
210
0.0
220
0.0
230
1.0
 70
     8
 71
     3
 72
    29
 73
    25
 74
     0
 42
0.000000001
 43
0.00000001
 40
0.3326188730538305
 40
0.3326188730538305
 40
0.3326188730538305
 40
0.3326188730538305
 40
0.3398593728277818
 40
0.3910167957178082
 40
0.4401129020176182
 40
0.4871476917276847
 40
0.5321211648485444
 40
0.5750333213808144
 40
0.6158841613252003
 40
0.6546736846825236
 40
0.6914018914537441
 40
0.7260687816399919
 40
0.7586743552426116
 40
0.7892186122632198
 40
0.8177015527037828
 40
0.8441231765667325
 40
0.8684834838551101
 40
0.890782474572806
 40
0.9110201487248991
 40
0.9291965063181925
 40
0.9453115473621049
 40
0.9593652718701934
 40
0.9891542838793695
 40
1.0
 40
1.0
 40
1.0
 40
1.0
 10
16.46541309835549
 20
17.46110453266068
 30
0.0
 10
16.46254614426014
 20
17.45046257738074
 30
0.0
 10
16.43929791848437
 20
17.36466401891049
 30
0.0
 10
16.39464140517045
 20
17.20724051689371
 30
0.0
 10
16.32891760244028
 20
16.99287725315278
 30
0.0
 10
16.26163638968248
 20
16.78888761224041
 30
0.0
 10
16.19320492418017
 20
16.59523790302948
 30
0.0
 10
16.12402816868051
 20
16.41188189592208
 30
0.0
 10
16.05450853889398
 20
16.23876090802061
 30
0.0
 10
15.98504556037405
 20
16.07580389024026
 30
0.0
 10
15.91603552575559
 20
15.92292752558818
 30
0.0
 10
15.84787115724656
 20
15.78003633445068
 30
0.0
 10
15.78094126535003
 20
15.64702279387367
 30
0.0
 10
15.7156304338673
 20
15.52376744841283
 30
0.0
 10
15.65231863065786
 20
15.41013908780528
 30
0.0
 10
15.59138108353988
 20
15.30599473776428
 30
0.0
 10
15.53318728768918
 20
15.21118031162616
 30
0.0
 10
15.47810290216618
 20
15.12552911321469
 30
0.0
 10
15.4264822097801
 20
15.04886740738463
 30
0.0
 10
15.37869108835327
 20
14.98099718787197
 30
0.0
 10
15.33503289535095
 20
14.92175155174859
 30
0.0
 10
15.27949200559499
 20
14.84932609550674
 30
0.0
 10
15.22580119601702
 20
14.78562052246706
 30
0.0
 10
15.18491732046689
 20
14.73926115678262
 30
0.0
 10
15.17393734107078
 20
14.72691102759579
 30
0.0
  0
ARC
  5
B4
330
1F
100
AcDbEntity
  8
0
  6
Continuous
 62
     7
370
    25
100
AcDbCircle
 10
0.0
 20
0.0
 30
0.0
 40
24.00000000000001
100
AcDbArc
 50
46.6810610094
 51
49.3189389906
  0
SPLINE
  5
B5
330
1F
100
AcDbEntity
  8
0
  6
Continuous
 62
     7
370
    25
100
AcDbSpline
210
0.0
220
0.0
230
1.0
 70
     8
 71
     3
 72
    29
 73
    25
 74
     0
 42
0.000000001
 43
0.00000001
 40
0.1146165153578265
 40
0.1146165153578265
 40
0.1146165153578265
 40
0.1146165153578265
 40
0.1254622314784576
 40
0.1552512434876337
 40
0.1693049679957221
 40
0.1854200090396344
 40
0.2035963666329278
 40
0.2238340407850208
 40
0.2461330315027167
 40
0.2704933387910942
 40
0.2969149626540439
 40
0.3253979030946068
 40
0.3559421601152148
 40
0.3885477337178345
 40
0.4232146239040822
 40
0.4599428306753026
 40
0.4987323540326257
 40
0.5395831939770115
 40
0.5824953505092814
 40
0.6274688236301409
 40
0.6745036133402074
 40
0.7235997196400171
 40
0.7747571425300435
 40
0.781997642303998
 40
0.781997642303998
 40
0.781997642303998
 40
0.781997642303998
 10
13.0601271161023
 20
16.63019430303549
 30
0.0
 10
13.07126186961625
 20
16.64240507298067
 30
0.0
 10
13.11309374516112
 20
16.68791085563585
 30
0.0
 10
13.17083811458928
 20
16.74796658699261
 30
0.0
 10
13.23706121274912
 20
16.81077373958556
 30
0.0
 10
13.29141877125528
 20
16.86038562373788
 30
0.0
 10
13.35392165812347
 20
16.91500931014836
 30
0.0
 10
13.42476757145982
 20
16.97436054928229
 30
0.0
 10
13.5041916774758
 20
17.0380961649248
 30
0.0
 10
13.59240379221495
 20
17.10588197533275
 30
0.0
 10
13.68960792045407
 20
17.1773717490594
 30
0.0
 10
13.7959959275169
 20
17.25221412150437
 30
0.0
 10
13.91174922644926
 20
17.3300508652692
 30
0.0
 10
14.03703802618694
 20
17.41051780920525
 30
0.0
 10
14.17202132773857
 20
17.49324496279552
 30
0.0
 10
14.31684670680065
 20
17.57785688469071
 30
0.0
 10
14.47165017058844
 20
17.66397298439355
 30
0.0
 10
14.63655600353573
 20
17.75120784919888
 30
0.0
 10
14.8116766273051
 20
17.83917156884766
 30
0.0
 10
14.99711246721896
 20
17.9274700661379
 30
0.0
 10
15.19295182975827
 20
18.01570542905956
 30
0.0
 10
15.39927078101173
 20
18.10347625246146
 30
0.0
 10
15.55116402390137
 20
18.16434336947099
 30
0.0
 10
15.63406246757704
 20
18.19643263050093
 30
0.0
 10
15.64434644680663
 20
18.20039626635335
 30
0.0
  0
ARC
  5
B6
330
1F
100
AcDbEntity
  8
0
  6
Continuous
 62
     7
370
    25
100
AcDbCircle
 10
12.6389464044
 20
17.0142604537
 30
0.0
 40
0.5699999999999986
100
AcDbArc
 50
233.3933993483
 51
317.6389469986
  0
ARC
  5
B7
330
1F
100
AcDbEntity
  8
0
  6
Continuous
 62
     7
370
    25
100
AcDbCircle
 10
0.0
 20
0.0
 30
0.0
 40
20.625
100
AcDbArc
 50
53.3933993483
 51
54.6066006517
  0
ARC
  5
B8
330
1F
100
AcDbEntity
  8
0
  6
Continuous
 62
     7
370
    25
100
AcDbCircle
 10
12.2758740445
 20
17.2780479639
 30
0.0
 40
0.5700000000000077
100
AcDbArc
 50
150.3610530014
 51
234.6066006517
  0
SPLINE
  5
B9
330
1F
100
AcDbEntity
  8
0
  6
Continuous
 62
     7
370
    25
100
AcDbSpline
210
0.0
220
0.0
230
1.0
 70
     8
 71
     3
 72
    29
 73
    25
 74
     0
 42
0.000000001
 43
0.00000001
 40
0.3326188730538291
 40
0.3326188730538291
 40
0.3326188730538291
 40
0.3326188730538291
 40
0.3398593728277818
 40
0.3910167957178082
 40
0.4401129020176182
 40
0.4871476917276847
 40
0.5321211648485444
 40
0.5750333213808144
 40
0.6158841613252003
 40
0.6546736846825236
 40
0.6914018914537441
 40
0.7260687816399919
 40
0.7586743552426116
 40
0.7892186122632198
 40
0.8177015527037828
 40
0.8441231765667325
 40
0.8684834838551101
 40
0.890782474572806
 40
0.9110201487248991
 40
0.9291965063181925
 40
0.9453115473621049
 40
0.9593652718701934
 40
0.9891542838793695
 40
1.0
 40
1.0
 40
1.0
 40
1.0
 10
12.47523655031627
 20
20.50288938207621
 30
0.0
 10
12.47464483296235
 20
20.49188390577855
 30
0.0
 10
12.46974316005974
 20
20.4031266737349
 30
0.0
 10
12.45879268518335
 20
20.23985864174894
 30
0.0
 10
12.43907373384532
 20
20.01651498268269
 30
0.0
 10
12.41567460816322
 20
19.80299445414496
 30
0.0
 10
12.38900057283585
 20
19.59934875399977
 30
0.0
 10
12.35945735287659
 20
19.40561685936631
 30
0.0
 10
12.32745077110764
 20
19.22182503663987
 30
0.0
 10
12.29338639442587
 20
19.04798685536198
 30
0.0
 10
12.25766917809816
 20
18.88410321308772
 30
0.0
 10
12.22070311373788
 20
18.73016236820034
 30
0.0
 10
12.18289087068494
 20
18.58613998562938
 30
0.0
 10
12.14463346484526
 20
18.45199917978695
 30
0.0
 10
12.10632984101659
 20
18.32769060742936
 30
0.0
 10
12.06837675341467
 20
18.2131524328512
 30
0.0
 10
12.03116765927801
 20
18.10831075891882
 30
0.0
 10
11.99509488522309
 20
18.01307855696092
 30
0.0
 10
11.96054109369753
 20
17.9273595478999
 30
0.0
 10
11.92790533503254
 20
17.8510361226604
 30
0.0
 10
11.89751903867494
 20
17.7840080971072
 30
0.0
 10
11.85824994968301
 20
17.7016177105535
 30
0.0
 10
11.81897754651807
 20
17.62814131013064
 30
0.0
 10
11.78862573584469
 20
17.57429477212205
 30
0.0
 10
11.78045343158333
 20
17.55993165680781
 30
0.0
  0
ARC
  5
BA
330
1F
100
AcDbEntity
  8
0
  6
Continuous
 62
     7
370
    25
100
AcDbCircle
 10
0.0
 20
0.0
 30
0.0
 40
24.00000000000001
100
AcDbArc
 50
58.6810610094
 51
61.3189389906
  0
SPLINE
  5
BB
330
1F
100
AcDbEntity
  8
0
  6
Continuous
 62
     7
370
    25
100
AcDbSpline
210
0.0
220
0.0
230
1.0
 70
     8
 71
     3
 72
    29
 73
    25
 74
     0
 42
0.000000001
 43
0.00000001
 40
0.1146165153578265
 40
0.1146165153578265
 40
0.1146165153578265
 40
0.1146165153578265
 40
0.1254622314784576
 40
0.1552512434876337
 40
0.1693049679957221
 40
0.1854200090396344
 40
0.2035963666329278
 40
0.2238340407850208
 40
0.2461330315027167
 40
0.2704933387910942
 40
0.2969149626540439
 40
0.3253979030946068
 40
0.3559421601152148
 40
0.3885477337178345
 40
0.4232146239040822
 40
0.4599428306753026
 40
0.4987323540326257
 40
0.5395831939770115
 40
0.5824953505092814
 40
0.6274688236301409
 40
0.6745036133402074
 40
0.7235997196400171
 40
0.7747571425300435
 40
0.7819976423039956
 40
0.7819976423039956
 40
0.7819976423039956
 40
0.7819976423039956
 10
9.317120187721997
 20
18.98213776825487
 30
0.0
 10
9.325472858330938
 20
18.99639674900979
 30
0.0
 10
9.356929422815524
 20
19.04960545710808
 30
0.0
 10
9.400925650577893
 20
19.12035455612802
 30
0.0
 10
9.452643273865048
 20
19.19555777805534
 30
0.0
 10
9.495498098580827
 20
19.25538709540456
 30
0.0
 10
9.545278244409584
 20
19.32181220409996
 30
0.0
 10
9.602236188080873
 20
19.39459616988868
 30
0.0
 10
9.666673307207278
 20
19.47345220958416
 30
0.0
 10
9.73886431313967
 20
19.55809706732452
 30
0.0
 10
9.819080738226498
 20
19.64823449262892
 30
0.0
 10
9.907583307882009
 20
19.74356069010036
 30
0.0
 10
10.00462395050583
 20
19.84376297836161
 30
0.0
 10
10.11044487099937
 20
19.94852053270502
 30
0.0
 10
10.22527852117173
 20
20.05750450596265
 30
0.0
 10
10.3493473104821
 20
20.17037834379203
 30
0.0
 10
10.48286340327556
 20
20.28679805000148
 30
0.0
 10
10.62602849988002
 20
20.40641247426493
 30
0.0
 10
10.77903363217625
 20
20.52886360057596
 30
0.0
 10
10.94205896420977
 20
20.65378684286351
 30
0.0
 10
11.11527360331187
 20
20.78081134439942
 30
0.0
 10
11.2988354101684
 20
20.90956028672727
 30
0.0
 10
11.43475443605593
 20
21.00067769214671
 30
0.0
 10
11.50916961732401
 20
21.04930128142324
 30
0.0
 10
11.51840478070157
 20
21.05531646183242
 30
0.0
  0
ARC
  5
BC
330
1F
100
AcDbEntity
  8
0
  6
Continuous
 62
     7
370
    25
100
AcDbCircle
 10
8.8252914423
 20
19.2702427581
 30
0.0
 40
0.5700000000000028
100
AcDbArc
 50
245.3933993483
 51
329.6389469986
  0
ARC
  5
BD
330
1F
100
AcDbEntity
  8
0
  6
Continuous
 62
     7
370
    25
100
AcDbCircle
 10
0.0
 20
0.0
 30
0.0
 40
20.62500000000001
100
AcDbArc
 50
65.3933993483
 51
66.6066006517
  0
ARC
  5
BE
330
1F
100
AcDbEntity
  8
0
  6
Continuous
 62
     7
370
    25
100
AcDbCircle
 10
8.4153085773
 20
19.4527788901
 30
0.0
 40
0.5700000000000081
100
AcDbArc
 50
162.3610530014
 51
246.6066006517
  0
SPLINE
  5
BF
330
1F
100
AcDbEntity
  8
0
  6
Continuous
 62
     7
370
    25
100
AcDbSpline
210
0.0
220
0.0
230
1.0
 70
     8
 71
     3
 72
    29
 73
    25
 74
     0
 42
0.000000001
 43
0.00000001
 40
0.3326188730538283
 40
0.3326188730538283
 40
0.3326188730538283
 40
0.3326188730538283
 40
0.3398593728277818
 40
0.3910167957178082
 40
0.4401129020176182
 40
0.4871476917276847
 40
0.5321211648485444
 40
0.5750333213808144
 40
0.6158841613252003
 40
0.6546736846825236
 40
0.6914018914537441
 40
0.7260687816399919
 40
0.7586743552426116
 40
0.7892186122632198
 40
0.8177015527037828
 40
0.8441231765667325
 40
0.8684834838551101
 40
0.890782474572806
 40
0.9110201487248991
 40
0.9291965063181925
 40
0.9453115473621049
 40
0.9593652718701934
 40
0.9891542838793695
 40
1.0
 40
1.0
 40
1.0
 40
1.0
 10
7.939832302201582
 20
22.64859958171624
 30
0.0
 10
7.941541682476835
 20
22.63771157652521
 30
0.0
 10
7.955200789074062
 20
22.54987478785292
 30
0.0
 10
7.978434940933516
 20
22.38789782234252
 30
0.0
 10
8.005582653783128
 20
22.16533495757391
 30
0.0
 10
8.02708826925049
 20
21.95161541309309
 30
0.0
 10
8.043337447438091
 20
21.74687401631048
 30
0.0
 10
8.054718943495562
 20
21.55123324757522
 30
0.0
 10
8.0616242509521
 20
21.36480317460797
 30
0.0
 10
8.064447252828511
 20
21.18768139252251
 30
0.0
 10
8.06358386853528
 20
21.01995297419444
 30
0.0
 10
8.059431702719152
 20
20.86169042916889
 30
0.0
 10
8.052389684974486
 20
20.71295367381838
 30
0.0
 10
8.042857736992463
 20
20.57379000448869
 30
0.0
 10
8.031236344707043
 20
20.4442341014918
 30
0.0
 10
8.017926448668513
 20
20.32430797022066
 30
0.0
 10
8.0033282722087
 20
20.21402113273104
 30
0.0
 10
7.987843662944433
 20
20.11337003142708
 30
0.0
 10
7.97186693877655
 20
20.02234005115653
 30
0.0
 10
7.955812882130816
 20
19.94089912011356
 30
0.0
 10
7.940026509378377
 20
19.86901815148338
 30
0.0
 10
7.918745468773431
 20
19.78026368986316
 30
0.0
 10
7.895607864489711
 20
19.70022773333448
 30
0.0
 10
7.877114638463672
 20
19.64124737509708
 30
0.0
 10
7.87210717824835
 20
19.62549901071653
 30
0.0
  0
ARC
  5
C0
330
1F
100
AcDbEntity
  8
0
  6
Continuous
 62
     7
370
    25
100
AcDbCircle
 10
0.0
 20
0.0
 30
0.0
 40
24.00000000000001
100
AcDbArc
 50
70.6810610094
 51
73.3189389906
  0
SPLINE
  5
C1
330
1F
100
AcDbEntity
  8
0
  6
Continuous
 62
     7
370
    25
100
AcDbSpline
210
0.0
220
0.0
230
1.0
 70
     8
 71
     3
 72
    29
 73
    25
 74
     0
 42
0.000000001
 43
0.00000001
 40
0.1146165153578265
 40
0.1146165153578265
 40
0.1146165153578265
 40
0.1146165153578265
 40
0.1254622314784576
 40
0.1552512434876337
 40
0.1693049679957221
 40
0.1854200090396344
 40
0.2035963666329278
 40
0.2238340407850208
 40
0.2461330315027167
 40
0.2704933387910942
 40
0.2969149626540439
 40
0.3253979030946068
 40
0.3559421601152148
 40
0.3885477337178345
 40
0.4232146239040822
 40
0.4599428306753026
 40
0.4987323540326257
 40
0.5395831939770115
 40
0.5824953505092814
 40
0.6274688236301409
 40
0.6745036133402074
 40
0.7235997196400171
 40
0.7747571425300435
 40
0.7819976423039978
 40
0.7819976423039978
 40
0.7819976423039978
 40
0.7819976423039978
 10
5.166910398635251
 20
20.50447072659861
 30
0.0
 10
5.172115934553013
 20
20.52015473228209
 30
0.0
 10
5.191822385163996
 20
20.57874088995588
 30
0.0
 10
5.220147624990025
 20
20.65709128152
 30
0.0
 10
5.255099465098157
 20
20.74140383111837
 30
0.0
 10
5.284578594543214
 20
20.80883575340341
 30
0.0
 10
5.319460368088181
 20
20.8841591883907
 30
0.0
 10
5.360041006641428
 20
20.96719487227303
 30
0.0
 10
5.406674927568838
 20
21.05772494869354
 30
0.0
 10
5.459689731324342
 20
21.15552946731196
 30
0.0
 10
5.519412610561468
 20
21.26037510618094
 30
0.0
 10
5.58616175583327
 20
21.3720189164235
 30
0.0
 10
5.660248600413215
 20
21.49020742836024
 30
0.0
 10
5.741976759651945
 20
21.6146771853037
 30
0.0
 10
5.831641976899521
 20
21.74515485563419
 30
0.0
 10
5.929531775017204
 20
21.88135748105585
 30
0.0
 10
6.035925202879966
 20
22.02299269396682
 30
0.0
 10
6.15109256143764
 20
22.1697589533744
 30
0.0
 10
6.275295143779287
 20
22.32134578454218
 30
0.0
 10
6.408784978640265
 20
22.47743402669085
 30
0.0
 10
6.551804583400342
 20
22.63769608659273
 30
0.0
 10
6.704586714073034
 20
22.80179620126083
 30
0.0
 10
6.818591209315319
 20
22.91918162724352
 30
0.0
 10
6.881270827670758
 20
22.98221446059338
 30
0.0
 10
6.889053554241459
 20
22.99001829331142
 30
0.0
  0
ARC
  5
C2
330
1F
100
AcDbEntity
  8
0
  6
Continuous
 62
     7
370
    25
100
AcDbCircle
 10
4.6259288958
 20
20.6840229852
 30
0.0
 40
0.5700000000000054
100
AcDbArc
 50
257.3933993483
 51
341.6389469986
  0
ARC
  5
C3
330
1F
100
AcDbEntity
  8
0
  6
Continuous
 62
     7
370
    25
100
AcDbCircle
 10
0.0
 20
0.0
 30
0.0
 40
20.625
100
AcDbArc
 50
77.3933993483
 51
78.6066006517
  0
ARC
  5
C4
330
1F
100
AcDbEntity
  8
0
  6
Continuous
 62
     7
370
    25
100
AcDbCircle
 10
4.1869537442
 20
20.7773300341
 30
0.0
 40
0.5700000000000127
100
AcDbArc
 50
174.3610530014
 51
258.6066006517
  0
SPLINE
  5
C5
330
1F
100
AcDbEntity
  8
0
  6
Continuous
 62
     7
370
    25
100
AcDbSpline
210
0.0
220
0.0
230
1.0
 70
     8
 71
     3
 72
    29
 73
    25
 74
     0
 42
0.000000001
 43
0.00000001
 40
0.3326188730538286
 40
0.3326188730538286
 40
0.3326188730538286
 40
0.3326188730538286
 40
0.3398593728277818
 40
0.3910167957178082
 40
0.4401129020176182
 40
0.4871476917276847
 40
0.5321211648485444
 40
0.5750333213808144
 40
0.6158841613252003
 40
0.6546736846825236
 40
0.6914018914537441
 40
0.7260687816399919
 40
0.7586743552426116
 40
0.7892186122632198
 40
0.8177015527037828
 40
0.8441231765667325
 40
0.8684834838551101
 40
0.890782474572806
 40
0.9110201487248991
 40
0.9291965063181925
 40
0.9453115473621049
 40
0.9593652718701934
 40
0.9891542838793695
 40
1.0
 40
1.0
 40
1.0
 40
1.0
 10
3.057419282938218
 20
23.8044572995966
 30
0.0
 10
3.061355052722098
 20
23.7941626235855
 30
0.0
 10
3.092977970317201
 20
23.71108516743722
 30
0.0
 10
3.149381304986409
 20
23.5574784390469
 30
0.0
 10
3.222209196702949
 20
23.34542343374144
 30
0.0
 10
3.287679654728464
 20
23.1408454429515
 30
0.0
 10
3.346141879372026
 20
22.94395653102908
 30
0.0
 10
3.397950665454037
 20
22.75495732857431
 30
0.0
 10
3.443466067064874
 20
22.57403689414569
 30
0.0
 10
3.483053068771197
 20
22.4013725830544
 30
0.0
 10
3.517081250549044
 20
22.23712992540368
 30
0.0
 10
3.545924452847531
 20
22.08146251288553
 30
0.0
 10
3.569960430377929
 20
21.93451189468244
 30
0.0
 10
3.589570532119736
 20
21.79640748199655
 30
0.0
 10
3.605139281986072
 20
21.66726646299953
 30
0.0
 10
3.617054283835782
 20
21.5471937224414
 30
0.0
 10
3.625705035413938
 20
21.4362817854078
 30
0.0
 10
3.63148534266857
 20
21.33461072086233
 30
0.0
 10
3.634783945369326
 20
21.24224821633036
 30
0.0
 10
3.636013230054175
 20
21.15924913896746
 30
0.0
 10
3.635516721147607
 20
21.08565677051258
 30
0.0
 10
3.633153812521839
 20
20.99441722968981
 30
0.0
 10
3.627162231453084
 20
20.91131967241075
 30
0.0
 10
3.621335832792061
 20
20.84978321861866
 30
0.0
 10
3.619712066662647
 20
20.83333788426429
 30
0.0
  0
ARC
  5
C6
330
1F
100
AcDbEntity
  8
0
  6
Continuous
 62
     7
370
    25
100
AcDbCircle
 10
0.0
 20
0.0
 30
0.0
 40
24.00000000000001
100
AcDbArc
 50
82.6810610094
 51
85.3189389906
  0
SPLINE
  5
C7
330
1F
100
AcDbEntity
  8
0
  6
Continuous
 62
     7
370
    25
100
AcDbSpline
210
0.0
220
0.0
230
1.0
 70
     8
 71
     3
 72
    29
 73
    25
 74
     0
 42
0.000000001
 43
0.00000001
 40
0.1146165153578265
 40
0.1146165153578265
 40
0.1146165153578265
 40
0.1146165153578265
 40
0.1254622314784576
 40
0.1552512434876337
 40
0.1693049679957221
 40
0.1854200090396344
 40
0.2035963666329278
 40
0.2238340407850208
 40
0.2461330315027167
 40
0.2704933387910942
 40
0.2969149626540439
 40
0.3253979030946068
 40
0.3559421601152148
 40
0.3885477337178345
 40
0.4232146239040822
 40
0.4599428306753026
 40
0.4987323540326257
 40
0.5395831939770115
 40
0.5824953505092814
 40
0.6274688236301409
 40
0.6745036133402074
 40
0.7235997196400171
 40
0.7747571425300435
 40
0.7819976423039965
 40
0.7819976423039965
 40
0.7819976423039965
 40
0.7819976423039965
 10
0.7908818315415249
 20
21.13065992282309
 30
0.0
 10
0.7927127258695698
 20
21.14708348712656
 30
0.0
 10
0.7998077961532084
 20
21.20848659815794
 30
0.0
 10
0.8112240991429203
 20
21.29101399418798
 30
0.0
 10
0.8278825929417691
 20
21.38075100846345
 30
0.0
 10
0.8426976477028022
 20
21.45283843710618
 30
0.0
 10
0.8611565480787393
 20
21.53376820283449
 30
0.0
 10
0.8835863128816607
 20
21.62342654697536
 30
0.0
 10
0.9103789094911718
 20
21.7216740613698
 30
0.0
 10
0.9419005097524189
 20
21.82836371408451
 30
0.0
 10
0.9785196667350129
 20
21.9433353089943
 30
0.0
 10
1.020598129676792
 20
22.06641736177394
 30
0.0
 10
1.068493225596601
 20
22.19742669228314
 30
0.0
 10
1.122556710846568
 20
22.33616872617604
 30
0.0
 10
1.183134694914187
 20
22.48243759328463
 30
0.0
 10
1.250567247934082
 20
22.63601629799493
 30
0.0
 10
1.325188107536237
 20
22.79667687916206
 30
0.0
 10
1.40732436184385
 20
22.964180583915
 30
0.0
 10
1.497296145392478
 20
23.13827804802319
 30
0.0
 10
1.595416336742196
 20
23.31870948485659
 30
0.0
 10
1.70199026414803
 20
23.50520488208402
 30
0.0
 10
1.817315406396491
 20
23.69748420664167
 30
0.0
 10
1.904422827497177
 20
23.8360073467944
 30
0.0
 10
1.952627482847655
 20
23.91069458693512
 30
0.0
 10
1.958617630114686
 20
23.91994600702527
 30
0.0
  0
ARC
  5
C8
330
1F
100
AcDbEntity
  8
0
  6
Continuous
 62
     7
370
    25
100
AcDbCircle
 10
0.2243910588
 20
21.1938121548
 30
0.0
 40
0.5699999999999991
100
AcDbArc
 50
269.3933993483
 51
353.6389469986
  0
ARC
  5
C9
330
1F
100
AcDbEntity
  8
0
  6
Continuous
 62
     7
370
    25
100
AcDbCircle
 10
0.0
 20
0.0
 30
0.0
 40
20.62500000000001
100
AcDbArc
 50
89.3933993483
 51
90.6066006517
  0
ARC
  5
CA
330
1F
100
AcDbEntity
  8
0
  6
Continuous
 62
     7
370
    25
100
AcDbCircle
 10
-0.2243910588
 20
21.1938121548
 30
0.0
 40
0.570000000000009
100
AcDbArc
 50
186.3610530014
 51
270.6066006517
  0
SPLINE
  5
CB
330
1F
100
AcDbEntity
  8
0
  6
Continuous
 62
     7
370
    25
100
AcDbSpline
210
0.0
220
0.0
230
1.0
 70
     8
 71
     3
 72
    29
 73
    25
 74
     0
 42
0.000000001
 43
0.00000001
 40
0.3326188730538296
 40
0.3326188730538296
 40
0.3326188730538296
 40
0.3326188730538296
 40
0.3398593728277818
 40
0.3910167957178082
 40
0.4401129020176182
 40
0.4871476917276847
 40
0.5321211648485444
 40
0.5750333213808144
 40
0.6158841613252003
 40
0.6546736846825236
 40
0.6914018914537441
 40
0.7260687816399919
 40
0.7586743552426116
 40
0.7892186122632198
 40
0.8177015527037828
 40
0.8441231765667325
 40
0.8684834838551101
 40
0.890782474572806
 40
0.9110201487248991
 40
0.9291965063181925
 40
0.9453115473621049
 40
0.9593652718701934
 40
0.9891542838793695
 40
1.0
 40
1.0
 40
1.0
 40
1.0
 10
-1.958617630114684
 20
23.91994600702527
 30
0.0
 10
-1.952627482847654
 20
23.91069458693511
 30
0.0
 10
-1.904422827497176
 20
23.8360073467944
 30
0.0
 10
-1.81731540639649
 20
23.69748420664167
 30
0.0
 10
-1.701990264148031
 20
23.50520488208402
 30
0.0
 10
-1.595416336742196
 20
23.31870948485659
 30
0.0
 10
-1.497296145392478
 20
23.1382780480232
 30
0.0
 10
-1.407324361843851
 20
22.96418058391499
 30
0.0
 10
-1.325188107536237
 20
22.79667687916206
 30
0.0
 10
-1.250567247934083
 20
22.63601629799494
 30
0.0
 10
-1.183134694914187
 20
22.48243759328463
 30
0.0
 10
-1.122556710846569
 20
22.33616872617604
 30
0.0
 10
-1.068493225596601
 20
22.19742669228314
 30
0.0
 10
-1.020598129676792
 20
22.06641736177393
 30
0.0
 10
-0.9785196667350129
 20
21.9433353089943
 30
0.0
 10
-0.941900509752419
 20
21.82836371408451
 30
0.0
 10
-0.910378909491172
 20
21.7216740613698
 30
0.0
 10
-0.8835863128816607
 20
21.62342654697536
 30
0.0
 10
-0.8611565480787394
 20
21.5337682028345
 30
0.0
 10
-0.8426976477028023
 20
21.45283843710618
 30
0.0
 10
-0.8278825929417692
 20
21.38075100846346
 30
0.0
 10
-0.8112240991429197
 20
21.29101399418798
 30
0.0
 10
-0.7998077961532111
 20
21.20848659815795
 30
0.0
 10
-0.7927127258695681
 20
21.14708348712656
 30
0.0
 10
-0.7908818315415239
 20
21.1306599228231
 30
0.0
  0
ARC
  5
CC
330
1F
100
AcDbEntity
  8
0
  6
Continuous
 62
     7
370
    25
100
AcDbCircle
 10
0.0
 20
0.0
 30
0.0
 40
24.00000000000001
100
AcDbArc
 50
94.6810610094
 51
97.3189389906
  0
SPLINE
  5
CD
330
1F
100
AcDbEntity
  8
0
  6
Continuous
 62
     7
370
    25
100
AcDbSpline
210
0.0
220
0.0
230
1.0
 70
     8
 71
     3
 72
    29
 73
    25
 74
     0
 42
0.000000001
 43
0.00000001
 40
0.1146165153578265
 40
0.1146165153578265
 40
0.1146165153578265
 40
0.1146165153578265
 40
0.1254622314784576
 40
0.1552512434876337
 40
0.1693049679957221
 40
0.1854200090396344
 40
0.2035963666329278
 40
0.2238340407850208
 40
0.2461330315027167
 40
0.2704933387910942
 40
0.2969149626540439
 40
0.3253979030946068
 40
0.3559421601152148
 40
0.3885477337178345
 40
0.4232146239040822
 40
0.4599428306753026
 40
0.4987323540326257
 40
0.5395831939770115
 40
0.5824953505092814
 40
0.6274688236301409
 40
0.6745036133402074
 40
0.7235997196400171
 40
0.7747571425300435
 40
0.7819976423039983
 40
0.7819976423039983
 40
0.7819976423039983
 40
0.7819976423039983
 10
-3.619712066662922
 20
20.83333788426423
 30
0.0
 10
-3.621335832792336
 20
20.84978321861862
 30
0.0
 10
-3.627162231453362
 20
20.9113196724107
 30
0.0
 10
-3.633153812522118
 20
20.99441722968977
 30
0.0
 10
-3.635516721147885
 20
21.08565677051253
 30
0.0
 10
-3.636013230054456
 20
21.15924913896741
 30
0.0
 10
-3.634783945369607
 20
21.24224821633031
 30
0.0
 10
-3.631485342668853
 20
21.33461072086228
 30
0.0
 10
-3.625705035414222
 20
21.43628178540774
 30
0.0
 10
-3.617054283836069
 20
21.54719372244136
 30
0.0
 10
-3.605139281986358
 20
21.66726646299948
 30
0.0
 10
-3.589570532120026
 20
21.79640748199652
 30
0.0
 10
-3.56996043037822
 20
21.93451189468239
 30
0.0
 10
-3.545924452847825
 20
22.08146251288549
 30
0.0
 10
-3.517081250549338
 20
22.23712992540364
 30
0.0
 10
-3.483053068771493
 20
22.40137258305435
 30
0.0
 10
-3.443466067065173
 20
22.57403689414564
 30
0.0
 10
-3.397950665454341
 20
22.75495732857427
 30
0.0
 10
-3.346141879372329
 20
22.94395653102903
 30
0.0
 10
-3.287679654728771
 20
23.14084544295146
 30
0.0
 10
-3.222209196703259
 20
23.34542343374141
 30
0.0
 10
-3.14938130498672
 20
23.55747843904686
 30
0.0
 10
-3.092977970317514
 20
23.71108516743719
 30
0.0
 10
-3.06135505272241
 20
23.79416262358546
 30
0.0
 10
-3.05741928293853
 20
23.80445729959656
 30
0.0
  0
ARC
  5
CE
330
1F
100
AcDbEntity
  8
0
  6
Continuous
 62
     7
370
    25
100
AcDbCircle
 10
-4.1869537442
 20
20.7773300341
 30
0.0
 40
0.57
100
AcDbArc
 50
281.3933993483
 51
5.6389469986
  0
ARC
  5
CF
330
1F
100
AcDbEntity
  8
0
  6
Continuous
 62
     7
370
    25
100
AcDbCircle
 10
0.0
 20
0.0
 30
0.0
 40
20.625
100
AcDbArc
 50
101.3933993483
 51
102.6066006517
  0
ARC
  5
D0
330
1F
100
AcDbEntity
  8
0
  6
Continuous
 62
     7
370
    25
100
AcDbCircle
 10
-4.6259288958
 20
20.6840229852
 30
0.0
 40
0.5700000000000102
100
AcDbArc
 50
198.3610530014
 51
282.6066006517
  0
SPLINE
  5
D1
330
1F
100
AcDbEntity
  8
0
  6
Continuous
 62
     7
370
    25
100
AcDbSpline
210
0.0
220
0.0
230
1.0
 70
     8
 71
     3
 72
    29
 73
    25
 74
     0
 42
0.000000001
 43
0.00000001
 40
0.3326188730538296
 40
0.3326188730538296
 40
0.3326188730538296
 40
0.3326188730538296
 40
0.3398593728277818
 40
0.3910167957178082
 40
0.4401129020176182
 40
0.4871476917276847
 40
0.5321211648485444
 40
0.5750333213808144
 40
0.6158841613252003
 40
0.6546736846825236
 40
0.6914018914537441
 40
0.7260687816399919
 40
0.7586743552426116
 40
0.7892186122632198
 40
0.8177015527037828
 40
0.8441231765667325
 40
0.8684834838551101
 40
0.890782474572806
 40
0.9110201487248991
 40
0.9291965063181925
 40
0.9453115473621049
 40
0.9593652718701934
 40
0.9891542838793695
 40
1.0
 40
1.0
 40
1.0
 40
1.0
 10
-6.889053554241756
 20
22.99001829331132
 30
0.0
 10
-6.881270827671059
 20
22.98221446059329
 30
0.0
 10
-6.818591209315622
 20
22.91918162724343
 30
0.0
 10
-6.704586714073336
 20
22.80179620126074
 30
0.0
 10
-6.551804583400643
 20
22.63769608659264
 30
0.0
 10
-6.408784978640563
 20
22.47743402669077
 30
0.0
 10
-6.275295143779585
 20
22.32134578454211
 30
0.0
 10
-6.151092561437933
 20
22.16975895337431
 30
0.0
 10
-6.035925202880259
 20
22.02299269396674
 30
0.0
 10
-5.929531775017496
 20
21.88135748105578
 30
0.0
 10
-5.831641976899808
 20
21.74515485563411
 30
0.0
 10
-5.741976759652231
 20
21.61467718530362
 30
0.0
 10
-5.6602486004135
 20
21.49020742836017
 30
0.0
 10
-5.586161755833552
 20
21.37201891642341
 30
0.0
 10
-5.51941261056175
 20
21.26037510618087
 30
0.0
 10
-5.459689731324621
 20
21.15552946731189
 30
0.0
 10
-5.406674927569119
 20
21.05772494869347
 30
0.0
 10
-5.360041006641705
 20
20.96719487227296
 30
0.0
 10
-5.319460368088459
 20
20.88415918839064
 30
0.0
 10
-5.284578594543491
 20
20.80883575340333
 30
0.0
 10
-5.255099465098433
 20
20.74140383111831
 30
0.0
 10
-5.220147624990297
 20
20.65709128151993
 30
0.0
 10
-5.191822385164273
 20
20.57874088995582
 30
0.0
 10
-5.172115934553283
 20
20.52015473228203
 30
0.0
 10
-5.166910398635522
 20
20.50447072659854
 30
0.0
  0
ARC
  5
D2
330
1F
100
AcDbEntity
  8
0
  6
Continuous
 62
     7
370
    25
100
AcDbCircle
 10
0.0
 20
0.0
 30
0.0
 40
24.00000000000001
100
AcDbArc
 50
106.6810610094
 51
109.3189389906
  0
SPLINE
  5
D3
330
1F
100
AcDbEntity
  8
0
  6
Continuous
 62
     7
370
    25
100
AcDbSpline
210
0.0
220
0.0
230
1.0
 70
     8
 71
     3
 72
    29
 73
    25
 74
     0
 42
0.000000001
 43
0.00000001
 40
0.1146165153578265
 40
0.1146165153578265
 40
0.1146165153578265
 40
0.1146165153578265
 40
0.1254622314784576
 40
0.1552512434876337
 40
0.1693049679957221
 40
0.1854200090396344
 40
0.2035963666329278
 40
0.2238340407850208
 40
0.2461330315027167
 40
0.2704933387910942
 40
0.2969149626540439
 40
0.3253979030946068
 40
0.3559421601152148
 40
0.3885477337178345
 40
0.4232146239040822
 40
0.4599428306753026
 40
0.4987323540326257
 40
0.5395831939770115
 40
0.5824953505092814
 40
0.6274688236301409
 40
0.6745036133402074
 40
0.7235997196400171
 40
0.7747571425300435
 40
0.781997642303997
 40
0.781997642303997
 40
0.781997642303997
 40
0.781997642303997
 10
-7.87210717824861
 20
19.62549901071642
 30
0.0
 10
-7.877114638463932
 20
19.64124737509697
 30
0.0
 10
-7.895607864489973
 20
19.70022773333436
 30
0.0
 10
-7.918745468773697
 20
19.78026368986305
 30
0.0
 10
-7.940026509378641
 20
19.86901815148326
 30
0.0
 10
-7.955812882131083
 20
19.94089912011345
 30
0.0
 10
-7.971866938776812
 20
20.02234005115641
 30
0.0
 10
-7.987843662944701
 20
20.11337003142697
 30
0.0
 10
-8.003328272208968
 20
20.21402113273093
 30
0.0
 10
-8.017926448668785
 20
20.32430797022056
 30
0.0
 10
-8.031236344707315
 20
20.44423410149168
 30
0.0
 10
-8.042857736992739
 20
20.57379000448858
 30
0.0
 10
-8.05238968497476
 20
20.71295367381827
 30
0.0
 10
-8.059431702719431
 20
20.86169042916878
 30
0.0
 10
-8.063583868535563
 20
21.01995297419433
 30
0.0
 10
-8.064447252828792
 20
21.18768139252239
 30
0.0
 10
-8.061624250952383
 20
21.36480317460786
 30
0.0
 10
-8.054718943495853
 20
21.55123324757511
 30
0.0
 10
-8.043337447438379
 20
21.74687401631035
 30
0.0
 10
-8.02708826925078
 20
21.95161541309298
 30
0.0
 10
-8.005582653783422
 20
22.1653349575738
 30
0.0
 10
-7.978434940933814
 20
22.38789782234241
 30
0.0
 10
-7.95520078907436
 20
22.5498747878528
 30
0.0
 10
-7.941541682477133
 20
22.6377115765251
 30
0.0
 10
-7.93983230220188
 20
22.64859958171613
 30
0.0
  0
ARC
  5
D4
330
1F
100
AcDbEntity
  8
0
  6
Continuous
 62
     7
370
    25
100
AcDbCircle
 10
-8.4153085773
 20
19.4527788901
 30
0.0
 40
0.5699999999999996
100
AcDbArc
 50
293.3933993483
 51
17.6389469986
  0
ARC
  5
D5
330
1F
100
AcDbEntity
  8
0
  6
Continuous
 62
     7
370
    25
100
AcDbCircle
 10
0.0
 20
0.0
 30
0.0
 40
20.62500000000001
100
AcDbArc
 50
113.3933993483
 51
114.6066006517
  0
ARC
  5
D6
330
1F
100
AcDbEntity
  8
0
  6
Continuous
 62
     7
370
    25
100
AcDbCircle
 10
-8.8252914423
 20
19.2702427581
 30
0.0
 40
0.57000000000001
100
AcDbArc
 50
210.3610530014
 51
294.6066006517
  0
SPLINE
  5
D7
330
1F
100
AcDbEntity
  8
0
  6
Continuous
 62
     7
370
    25
100
AcDbSpline
210
0.0
220
0.0
230
1.0
 70
     8
 71
     3
 72
    29
 73
    25
 74
     0
 42
0.000000001
 43
0.00000001
 40
0.332618873053829
 40
0.332618873053829
 40
0.332618873053829
 40
0.332618873053829
 40
0.3398593728277818
 40
0.3910167957178082
 40
0.4401129020176182
 40
0.4871476917276847
 40
0.5321211648485444
 40
0.5750333213808144
 40
0.6158841613252003
 40
0.6546736846825236
 40
0.6914018914537441
 40
0.7260687816399919
 40
0.7586743552426116
 40
0.7892186122632198
 40
0.8177015527037828
 40
0.8441231765667325
 40
0.8684834838551101
 40
0.890782474572806
 40
0.9110201487248991
 40
0.9291965063181925
 40
0.9453115473621049
 40
0.9593652718701934
 40
0.9891542838793695
 40
1.0
 40
1.0
 40
1.0
 40
1.0
 10
-11.51840478070186
 20
21.05531646183227
 30
0.0
 10
-11.50916961732429
 20
21.04930128142309
 30
0.0
 10
-11.43475443605621
 20
21.00067769214655
 30
0.0
 10
-11.29883541016867
 20
20.90956028672712
 30
0.0
 10
-11.11527360331215
 20
20.78081134439927
 30
0.0
 10
-10.94205896421004
 20
20.65378684286335
 30
0.0
 10
-10.77903363217653
 20
20.52886360057582
 30
0.0
 10
-10.62602849988029
 20
20.40641247426478
 30
0.0
 10
-10.48286340327583
 20
20.28679805000133
 30
0.0
 10
-10.34934731048237
 20
20.1703783437919
 30
0.0
 10
-10.225278521172
 20
20.05750450596251
 30
0.0
 10
-10.11044487099963
 20
19.94852053270488
 30
0.0
 10
-10.00462395050609
 20
19.84376297836148
 30
0.0
 10
-9.90758330788227
 20
19.74356069010021
 30
0.0
 10
-9.81908073822676
 20
19.64823449262878
 30
0.0
 10
-9.738864313139931
 20
19.55809706732438
 30
0.0
 10
-9.666673307207539
 20
19.47345220958403
 30
0.0
 10
-9.60223618808113
 20
19.39459616988855
 30
0.0
 10
-9.545278244409845
 20
19.32181220409983
 30
0.0
 10
-9.49549809858108
 20
19.25538709540442
 30
0.0
 10
-9.452643273865306
 20
19.19555777805521
 30
0.0
 10
-9.400925650578145
 20
19.12035455612789
 30
0.0
 10
-9.356929422815783
 20
19.04960545710795
 30
0.0
 10
-9.325472858331189
 20
18.99639674900966
 30
0.0
 10
-9.317120187722251
 20
18.98213776825474
 30
0.0
  0
ARC
  5
D8
330
1F
100
AcDbEntity
  8
0
  6
Continuous
 62
     7
370
    25
100
AcDbCircle
 10
0.0
 20
0.0
 30
0.0
 40
24.00000000000001
100
AcDbArc
 50
118.6810610094
 51
121.3189389906
  0
SPLINE
  5
D9
330
1F
100
AcDbEntity
  8
0
  6
Continuous
 62
     7
370
    25
100
AcDbSpline
210
0.0
220
0.0
230
1.0
 70
     8
 71
     3
 72
    29
 73
    25
 74
     0
 42
0.000000001
 43
0.00000001
 40
0.1146165153578265
 40
0.1146165153578265
 40
0.1146165153578265
 40
0.1146165153578265
 40
0.1254622314784576
 40
0.1552512434876337
 40
0.1693049679957221
 40
0.1854200090396344
 40
0.2035963666329278
 40
0.2238340407850208
 40
0.2461330315027167
 40
0.2704933387910942
 40
0.2969149626540439
 40
0.3253979030946068
 40
0.3559421601152148
 40
0.3885477337178345
 40
0.4232146239040822
 40
0.4599428306753026
 40
0.4987323540326257
 40
0.5395831939770115
 40
0.5824953505092814
 40
0.6274688236301409
 40
0.6745036133402074
 40
0.7235997196400171
 40
0.7747571425300435
 40
0.7819976423039968
 40
0.7819976423039968
 40
0.7819976423039968
 40
0.7819976423039968
 10
-11.78045343158356
 20
17.55993165680765
 30
0.0
 10
-11.78862573584493
 20
17.5742947721219
 30
0.0
 10
-11.8189775465183
 20
17.62814131013047
 30
0.0
 10
-11.85824994968325
 20
17.70161771055334
 30
0.0
 10
-11.89751903867517
 20
17.78400809710703
 30
0.0
 10
-11.92790533503278
 20
17.85103612266024
 30
0.0
 10
-11.96054109369777
 20
17.92735954789974
 30
0.0
 10
-11.99509488522333
 20
18.01307855696076
 30
0.0
 10
-12.03116765927825
 20
18.10831075891865
 30
0.0
 10
-12.06837675341492
 20
18.21315243285103
 30
0.0
 10
-12.10632984101684
 20
18.3276906074292
 30
0.0
 10
-12.14463346484552
 20
18.45199917978679
 30
0.0
 10
-12.18289087068519
 20
18.58613998562922
 30
0.0
 10
-12.22070311373814
 20
18.73016236820018
 30
0.0
 10
-12.25766917809842
 20
18.88410321308756
 30
0.0
 10
-12.29338639442613
 20
19.04798685536181
 30
0.0
 10
-12.32745077110789
 20
19.2218250366397
 30
0.0
 10
-12.35945735287686
 20
19.40561685936615
 30
0.0
 10
-12.38900057283611
 20
19.5993487539996
 30
0.0
 10
-12.41567460816349
 20
19.80299445414479
 30
0.0
 10
-12.43907373384559
 20
20.01651498268252
 30
0.0
 10
-12.45879268518362
 20
20.23985864174877
 30
0.0
 10
-12.46974316006001
 20
20.40312667373473
 30
0.0
 10
-12.47464483296262
 20
20.49188390577838
 30
0.0
 10
-12.47523655031654
 20
20.50288938207604
 30
0.0
  0
ARC
  5
DA
330
1F
100
AcDbEntity
  8
0
  6
Continuous
 62
     7
370
    25
100
AcDbCircle
 10
-12.2758740445
 20
17.2780479639
 30
0.0
 40
0.5699999999999995
100
AcDbArc
 50
305.3933993483
 51
29.6389469986
  0
ARC
  5
DB
330
1F
100
AcDbEntity
  8
0
  6
Continuous
 62
     7
370
    25
100
AcDbCircle
 10
0.0
 20
0.0
 30
0.0
 40
20.62500000000001
100
AcDbArc
 50
125.3933993483
 51
126.6066006517
  0
ARC
  5
DC
330
1F
100
AcDbEntity
  8
0
  6
Continuous
 62
     7
370
    25
100
AcDbCircle
 10
-12.6389464044
 20
17.0142604537
 30
0.0
 40
0.5700000000000088
100
AcDbArc
 50
222.3610530014
 51
306.6066006517
  0
SPLINE
  5
DD
330
1F
100
AcDbEntity
  8
0
  6
Continuous
 62
     7
370
    25
100
AcDbSpline
210
0.0
220
0.0
230
1.0
 70
     8
 71
     3
 72
    29
 73
    25
 74
     0
 42
0.000000001
 43
0.00000001
 40
0.3326188730538299
 40
0.3326188730538299
 40
0.3326188730538299
 40
0.3326188730538299
 40
0.3398593728277818
 40
0.3910167957178082
 40
0.4401129020176182
 40
0.4871476917276847
 40
0.5321211648485444
 40
0.5750333213808144
 40
0.6158841613252003
 40
0.6546736846825236
 40
0.6914018914537441
 40
0.7260687816399919
 40
0.7586743552426116
 40
0.7892186122632198
 40
0.8177015527037828
 40
0.8441231765667325
 40
0.8684834838551101
 40
0.890782474572806
 40
0.9110201487248991
 40
0.9291965063181925
 40
0.9453115473621049
 40
0.9593652718701934
 40
0.9891542838793695
 40
1.0
 40
1.0
 40
1.0
 40
1.0
 10
-15.64434644680687
 20
18.20039626635314
 30
0.0
 10
-15.63406246757728
 20
18.19643263050073
 30
0.0
 10
-15.55116402390162
 20
18.16434336947078
 30
0.0
 10
-15.39927078101197
 20
18.10347625246125
 30
0.0
 10
-15.19295182975851
 20
18.01570542905936
 30
0.0
 10
-14.9971124672192
 20
17.9274700661377
 30
0.0
 10
-14.81167662730535
 20
17.83917156884747
 30
0.0
 10
-14.63655600353596
 20
17.75120784919868
 30
0.0
 10
-14.47165017058868
 20
17.66397298439336
 30
0.0
 10
-14.31684670680089
 20
17.57785688469053
 30
0.0
 10
-14.17202132773881
 20
17.49324496279533
 30
0.0
 10
-14.03703802618717
 20
17.41051780920506
 30
0.0
 10
-13.9117492264495
 20
17.33005086526902
 30
0.0
 10
-13.79599592751713
 20
17.25221412150418
 30
0.0
 10
-13.68960792045431
 20
17.17737174905923
 30
0.0
 10
-13.59240379221518
 20
17.10588197533256
 30
0.0
 10
-13.50419167747603
 20
17.03809616492462
 30
0.0
 10
-13.42476757146005
 20
16.97436054928211
 30
0.0
 10
-13.3539216581237
 20
16.91500931014819
 30
0.0
 10
-13.2914187712555
 20
16.86038562373771
 30
0.0
 10
-13.23706121274935
 20
16.81077373958539
 30
0.0
 10
-13.17083811458951
 20
16.74796658699243
 30
0.0
 10
-13.11309374516135
 20
16.68791085563568
 30
0.0
 10
-13.07126186961647
 20
16.64240507298049
 30
0.0
 10
-13.06012711610252
 20
16.63019430303531
 30
0.0
  0
ARC
  5
DE
330
1F
100
AcDbEntity
  8
0
  6
Continuous
 62
     7
370
    25
100
AcDbCircle
 10
0.0
 20
0.0
 30
0.0
 40
24.00000000000001
100
AcDbArc
 50
130.6810610094
 51
133.3189389906
  0
SPLINE
  5
DF
330
1F
100
AcDbEntity
  8
0
  6
Continuous
 62
     7
370
    25
100
AcDbSpline
210
0.0
220
0.0
230
1.0
 70
     8
 71
     3
 72
    29
 73
    25
 74
     0
 42
0.000000001
 43
0.00000001
 40
0.1146165153578265
 40
0.1146165153578265
 40
0.1146165153578265
 40
0.1146165153578265
 40
0.1254622314784576
 40
0.1552512434876337
 40
0.1693049679957221
 40
0.1854200090396344
 40
0.2035963666329278
 40
0.2238340407850208
 40
0.2461330315027167
 40
0.2704933387910942
 40
0.2969149626540439
 40
0.3253979030946068
 40
0.3559421601152148
 40
0.3885477337178345
 40
0.4232146239040822
 40
0.4599428306753026
 40
0.4987323540326257
 40
0.5395831939770115
 40
0.5824953505092814
 40
0.6274688236301409
 40
0.6745036133402074
 40
0.7235997196400171
 40
0.7747571425300435
 40
0.7819976423039989
 40
0.7819976423039989
 40
0.7819976423039989
 40
0.7819976423039989
 10
-15.17393734107098
 20
14.72691102759558
 30
0.0
 10
-15.18491732046709
 20
14.73926115678242
 30
0.0
 10
-15.22580119601722
 20
14.78562052246685
 30
0.0
 10
-15.27949200559519
 20
14.84932609550653
 30
0.0
 10
-15.33503289535115
 20
14.92175155174838
 30
0.0
 10
-15.37869108835348
 20
14.98099718787176
 30
0.0
 10
-15.4264822097803
 20
15.04886740738441
 30
0.0
 10
-15.47810290216639
 20
15.12552911321448
 30
0.0
 10
-15.53318728768938
 20
15.21118031162595
 30
0.0
 10
-15.59138108354009
 20
15.30599473776407
 30
0.0
 10
-15.65231863065807
 20
15.41013908780506
 30
0.0
 10
-15.71563043386752
 20
15.52376744841262
 30
0.0
 10
-15.78094126535025
 20
15.64702279387346
 30
0.0
 10
-15.84787115724678
 20
15.78003633445046
 30
0.0
 10
-15.91603552575581
 20
15.92292752558796
 30
0.0
 10
-15.98504556037426
 20
16.07580389024004
 30
0.0
 10
-16.05450853889419
 20
16.23876090802038
 30
0.0
 10
-16.12402816868074
 20
16.41188189592187
 30
0.0
 10
-16.1932049241804
 20
16.59523790302925
 30
0.0
 10
-16.26163638968271
 20
16.78888761224018
 30
0.0
 10
-16.32891760244051
 20
16.99287725315256
 30
0.0
 10
-16.39464140517068
 20
17.20724051689348
 30
0.0
 10
-16.43929791848461
 20
17.36466401891026
 30
0.0
 10
-16.46254614426038
 20
17.45046257738052
 30
0.0
 10
-16.46541309835573
 20
17.46110453266047
 30
0.0
  0
ARC
  5
E0
330
1F
100
AcDbEntity
  8
0
  6
Continuous
 62
     7
370
    25
100
AcDbCircle
 10
-15.5999249097
 20
14.3481834324
 30
0.0
 40
0.5699999999999988
100
AcDbArc
 50
317.3933993483
 51
41.6389469986
  0
ARC
  5
E1
330
1F
100
AcDbEntity
  8
0
  6
Continuous
 62
     7
370
    25
100
AcDbCircle
 10
0.0
 20
0.0
 30
0.0
 40
20.62500000000001
100
AcDbArc
 50
137.3933993483
 51
138.6066006517
  0
ARC
  5
E2
330
1F
100
AcDbEntity
  8
0
  6
Continuous
 62
     7
370
    25
100
AcDbCircle
 10
-15.9002187602
 20
14.014673324
 30
0.0
 40
0.5700000000000076
100
AcDbArc
 50
234.3610530014
 51
318.6066006517
  0
SPLINE
  5
E3
330
1F
100
AcDbEntity
  8
0
  6
Continuous
 62
     7
370
    25
100
AcDbSpline
210
0.0
220
0.0
230
1.0
 70
     8
 71
     3
 72
    29
 73
    25
 74
     0
 42
0.000000001
 43
0.00000001
 40
0.3326188730538282
 40
0.3326188730538282
 40
0.3326188730538282
 40
0.3326188730538282
 40
0.3398593728277818
 40
0.3910167957178082
 40
0.4401129020176182
 40
0.4871476917276847
 40
0.5321211648485444
 40
0.5750333213808144
 40
0.6158841613252003
 40
0.6546736846825236
 40
0.6914018914537441
 40
0.7260687816399919
 40
0.7586743552426116
 40
0.7892186122632198
 40
0.8177015527037828
 40
0.8441231765667325
 40
0.8684834838551101
 40
0.890782474572806
 40
0.9110201487248991
 40
0.9291965063181925
 40
0.9453115473621049
 40
0.9593652718701934
 40
0.9891542838793695
 40
1.0
 40
1.0
 40
1.0
 40
1.0
 10
-19.0865551032833
 20
14.55003141884341
 30
0.0
 10
-19.07567176744202
 20
14.54829255745414
 30
0.0
 10
-18.98791312113828
 20
14.53414007935915
 30
0.0
 10
-18.82668412482544
 20
14.50618343584567
 30
0.0
 10
-18.606625157373
 20
14.46322673752353
 30
0.0
 10
-18.39672019128097
 20
14.41763682197606
 30
0.0
 10
-18.1969782795109
 20
14.36982213771792
 30
0.0
 10
-18.00739577584907
 20
14.32019026137679
 30
0.0
 10
-17.82795638276474
 20
14.26914753822091
 30
0.0
 10
-17.65863120217958
 20
14.2170987318126
 30
0.0
 10
-17.49937879738007
 20
14.16444667285145
 30
0.0
 10
-17.35014526244872
 20
14.11159191250935
 30
0.0
 10
-17.21086430521781
 20
14.05893237055393
 30
0.0
 10
-17.0814573245862
 20
14.00686301049018
 30
0.0
 10
-16.96183354653101
 20
13.95577543388108
 30
0.0
 10
-16.8518900019808
 20
13.90605775789001
 30
0.0
 10
-16.75151207113767
 20
13.85809356000171
 30
0.0
 10
-16.66057219278417
 20
13.81226392065316
 30
0.0
 10
-16.57893461615196
 20
13.76893934212303
 30
0.0
 10
-16.50644066432259
 20
13.72850439520714
 30
0.0
 10
-16.44295605816929
 20
13.69127822165341
 30
0.0
 10
-16.36512175230003
 20
13.64361211234529
 30
0.0
 10
-16.2961529472383
 20
13.59687447229138
 30
0.0
 10
-16.24577401432607
 20
13.56106043614231
 30
0.0
 10
-16.23234382006614
 20
13.55143154624725
 30
0.0
  0
ARC
  5
E4
330
1F
100
AcDbEntity
  8
0
  6
Continuous
 62
     7
370
    25
100
AcDbCircle
 10
0.0
 20
0.0
 30
0.0
 40
24.00000000000001
100
AcDbArc
 50
142.6810610094
 51
145.3189389906
  0
SPLINE
  5
E5
330
1F
100
AcDbEntity
  8
0
  6
Continuous
 62
     7
370
    25
100
AcDbSpline
210
0.0
220
0.0
230
1.0
 70
     8
 71
     3
 72
    29
 73
    25
 74
     0
 42
0.000000001
 43
0.00000001
 40
0.1146165153578265
 40
0.1146165153578265
 40
0.1146165153578265
 40
0.1146165153578265
 40
0.1254622314784576
 40
0.1552512434876337
 40
0.1693049679957221
 40
0.1854200090396344
 40
0.2035963666329278
 40
0.2238340407850208
 40
0.2461330315027167
 40
0.2704933387910942
 40
0.2969149626540439
 40
0.3253979030946068
 40
0.3559421601152148
 40
0.3885477337178345
 40
0.4232146239040822
 40
0.4599428306753026
 40
0.4987323540326257
 40
0.5395831939770115
 40
0.5824953505092814
 40
0.6274688236301409
 40
0.6745036133402074
 40
0.7235997196400171
 40
0.7747571425300435
 40
0.7819976423039988
 40
0.7819976423039988
 40
0.7819976423039988
 40
0.7819976423039988
 10
-17.90424737612379
 20
11.25025371891803
 30
0.0
 10
-17.91755515286725
 20
11.2600511020695
 30
0.0
 10
-17.96718427175
 20
11.29689716869245
 30
0.0
 10
-18.03294694172535
 20
11.34804767511386
 30
0.0
 10
-18.10233222884824
 20
11.40734286107019
 30
0.0
 10
-18.15735424596583
 20
11.45621678917307
 30
0.0
 10
-18.2182120288209
 20
11.51266754868871
 30
0.0
 10
-18.28464355010668
 20
11.57692146687938
 30
0.0
 10
-18.35633209512619
 20
11.64924829337379
 30
0.0
 10
-18.43296724456744
 20
11.72989162632532
 30
0.0
 10
-18.51422598798164
 20
11.81909054399231
 30
0.0
 10
-18.59977894096785
 20
11.91707258824191
 30
0.0
 10
-18.68928880136171
 20
12.02405562327976
 30
0.0
 10
-18.7824111846607
 20
12.14024699186981
 30
0.0
 10
-18.8787947473257
 20
12.26584349853671
 30
0.0
 10
-18.97808153057518
 20
12.40103115484913
 30
0.0
 10
-19.07990724545161
 20
12.54598500550039
 30
0.0
 10
-19.18390158184186
 20
12.70086894067895
 30
0.0
 10
-19.28968851671969
 20
12.86583552290995
 30
0.0
 10
-19.39688662898389
 20
13.0410258196597
 30
0.0
 10
-19.50510941696879
 20
13.22656924678795
 30
0.0
 10
-19.613965625534
 20
13.42258341194899
 30
0.0
 10
-19.69037647336791
 20
13.5672822215567
 30
0.0
 10
-19.73095519299308
 20
13.64637229774125
 30
0.0
 10
-19.73597208417872
 20
13.65618562749199
 30
0.0
  0
ARC
  5
E6
330
1F
100
AcDbEntity
  8
0
  6
Continuous
 62
     7
370
    25
100
AcDbCircle
 10
-18.2421841997
 20
10.7912344347
 30
0.0
 40
0.5700000000000021
100
AcDbArc
 50
329.3933993483
 51
53.6389469986
  0
ARC
  5
E7
330
1F
100
AcDbEntity
  8
0
  6
Continuous
 62
     7
370
    25
100
AcDbCircle
 10
0.0
 20
0.0
 30
0.0
 40
20.62500000000001
100
AcDbArc
 50
149.3933993483
 51
150.6066006517
  0
ARC
  5
E8
330
1F
100
AcDbEntity
  8
0
  6
Continuous
 62
     7
370
    25
100
AcDbCircle
 10
-18.4665752585
 20
10.4025777201
 30
0.0
 40
0.5700000000000099
100
AcDbArc
 50
246.3610530014
 51
330.6066006517
  0
SPLINE
  5
E9
330
1F
100
AcDbEntity
  8
0
  6
Continuous
 62
     7
370
    25
100
AcDbSpline
210
0.0
220
0.0
230
1.0
 70
     8
 71
     3
 72
    29
 73
    25
 74
     0
 42
0.000000001
 43
0.00000001
 40
0.3326188730538284
 40
0.3326188730538284
 40
0.3326188730538284
 40
0.3326188730538284
 40
0.3398593728277818
 40
0.3910167957178082
 40
0.4401129020176182
 40
0.4871476917276847
 40
0.5321211648485444
 40
0.5750333213808144
 40
0.6158841613252003
 40
0.6546736846825236
 40
0.6914018914537441
 40
0.7260687816399919
 40
0.7586743552426116
 40
0.7892186122632198
 40
0.8177015527037828
 40
0.8441231765667325
 40
0.8684834838551101
 40
0.890782474572806
 40
0.9110201487248991
 40
0.9291965063181925
 40
0.9453115473621049
 40
0.9593652718701934
 40
0.9891542838793695
 40
1.0
 40
1.0
 40
1.0
 40
1.0
 10
-21.6945897142934
 20
10.26376037953319
 30
0.0
 10
-21.68358267584073
 20
10.26432228919378
 30
0.0
 10
-21.59479930086508
 20
10.26872512523761
 30
0.0
 10
-21.43128103193048
 20
10.27490079469258
 30
0.0
 10
-21.20709968111681
 20
10.27863563529598
 30
0.0
 10
-20.99230296572608
 20
10.2776836651968
 30
0.0
 10
-20.78698466211216
 20
10.27244252511315
 30
0.0
 10
-20.5912259436857
 20
10.26331164323595
 30
0.0
 10
-20.40509535298785
 20
10.25069187366158
 30
0.0
 10
-20.22864877850926
 20
10.23498514314571
 30
0.0
 10
-20.06192944223988
 20
10.21659409474783
 30
0.0
 10
-19.90496789550726
 20
10.19592173430614
 30
0.0
 10
-19.7577820269583
 20
10.17337106900329
 30
0.0
 10
-19.62037707064464
 20
10.14934477353193
 30
0.0
 10
-19.49274565471665
 20
10.1242447650019
 30
0.0
 10
-19.37486775431986
 20
10.0984720877591
 30
0.0
 10
-19.26671100461736
 20
10.07242576799593
 30
0.0
 10
-19.16822986298834
 20
10.04650508009589
 30
0.0
 10
-19.07936857689965
 20
10.0211006541457
 30
0.0
 10
-19.00005189366863
 20
9.99662164793303
 30
0.0
 10
-18.93021482179002
 20
9.973408147393181
 30
0.0
 10
-18.84417104086826
 20
9.942966319074028
 30
0.0
 10
-18.76699206790322
 20
9.911589429465403
 30
0.0
 10
-18.71026787873682
 20
9.887032385056981
 30
0.0
 10
-18.69512920766531
 20
9.88040620390498
 30
0.0
  0
ARC
  5
EA
330
1F
100
AcDbEntity
  8
0
  6
Continuous
 62
     7
370
    25
100
AcDbCircle
 10
0.0
 20
0.0
 30
0.0
 40
24.00000000000001
100
AcDbArc
 50
154.6810610094
 51
157.3189389906
  0
SPLINE
  5
EB
330
1F
100
AcDbEntity
  8
0
  6
Continuous
 62
     7
370
    25
100
AcDbSpline
210
0.0
220
0.0
230
1.0
 70
     8
 71
     3
 72
    29
 73
    25
 74
     0
 42
0.000000001
 43
0.00000001
 40
0.1146165153578265
 40
0.1146165153578265
 40
0.1146165153578265
 40
0.1146165153578265
 40
0.1254622314784576
 40
0.1552512434876337
 40
0.1693049679957221
 40
0.1854200090396344
 40
0.2035963666329278
 40
0.2238340407850208
 40
0.2461330315027167
 40
0.2704933387910942
 40
0.2969149626540439
 40
0.3253979030946068
 40
0.3559421601152148
 40
0.3885477337178345
 40
0.4232146239040822
 40
0.4599428306753026
 40
0.4987323540326257
 40
0.5395831939770115
 40
0.5824953505092814
 40
0.6274688236301409
 40
0.6745036133402074
 40
0.7235997196400171
 40
0.7747571425300435
 40
0.7819976423039977
 40
0.7819976423039977
 40
0.7819976423039977
 40
0.7819976423039977
 10
-19.85205588672905
 20
7.281906338016912
 30
0.0
 10
-19.86710984711839
 20
7.288722782476229
 30
0.0
 10
-19.92331517869165
 20
7.314445200119242
 30
0.0
 10
-19.99827556482213
 20
7.350805117344402
 30
0.0
 10
-20.07847277931716
 20
7.394378548859048
 30
0.0
 10
-20.14245389437703
 20
7.430744743760193
 30
0.0
 10
-20.21371856152155
 20
7.473308874207202
 30
0.0
 10
-20.29205753545301
 20
7.522346800209031
 30
0.0
 10
-20.37721710655187
 20
7.578188225405954
 30
0.0
 10
-20.46894428581685
 20
7.641135964551271
 30
0.0
 10
-20.56697282851735
 20
7.71149102911832
 30
0.0
 10
-20.67102785670622
 20
7.789544471506244
 30
0.0
 10
-20.78082473559602
 20
7.875579524128387
 30
0.0
 10
-20.89606971529653
 20
7.969870600376048
 30
0.0
 10
-21.0164600479294
 20
8.072683252552105
 30
0.0
 10
-21.14168427095106
 20
8.184273851241668
 30
0.0
 10
-21.2714224498299
 20
8.304889355924644
 30
0.0
 10
-21.4053464413034
 20
8.434767067197395
 30
0.0
 10
-21.54312015888321
 20
8.574134393311029
 30
0.0
 10
-21.68439984600973
 20
8.723208620975315
 30
0.0
 10
-21.82883435407624
 20
8.88219669621778
 30
0.0
 10
-21.97606542981215
 20
9.051295003201094
 30
0.0
 10
-22.08089109145578
 20
9.176945088077947
 30
0.0
 10
-22.13702682016442
 20
9.245870066131225
 30
0.0
 10
-22.14397438622182
 20
9.254425880753065
 30
0.0
  0
ARC
  5
EC
330
1F
100
AcDbEntity
  8
0
  6
Continuous
 62
     7
370
    25
100
AcDbCircle
 10
-20.0871725044
 20
6.7626567101
 30
0.0
 40
0.5700000000000001
100
AcDbArc
 50
341.3933993483
 51
65.6389469986
  0
ARC
  5
ED
330
1F
100
AcDbEntity
  8
0
  6
Continuous
 62
     7
370
    25
100
AcDbCircle
 10
0.0
 20
0.0
 30
0.0
 40
20.62500000000001
100
AcDbArc
 50
161.3933993483
 51
162.6066006517
  0
ARC
  5
EE
330
1F
100
AcDbEntity
  8
0
  6
Continuous
 62
     7
370
    25
100
AcDbCircle
 10
-20.2258538055
 20
6.3358395527
 30
0.0
 40
0.5700000000000086
100
AcDbArc
 50
258.3610530014
 51
342.6066006517
  0
SPLINE
  5
EF
330
1F
100
AcDbEntity
  8
0
  6
Continuous
 62
     7
370
    25
100
AcDbSpline
210
0.0
220
0.0
230
1.0
 70
     8
 71
     3
 72
    29
 73
    25
 74
     0
 42
0.000000001
 43
0.00000001
 40
0.3326188730538299
 40
0.3326188730538299
 40
0.3326188730538299
 40
0.3326188730538299
 40
0.3398593728277818
 40
0.3910167957178082
 40
0.4401129020176182
 40
0.4871476917276847
 40
0.5321211648485444
 40
0.5750333213808144
 40
0.6158841613252003
 40
0.6546736846825236
 40
0.6914018914537441
 40
0.7260687816399919
 40
0.7586743552426116
 40
0.7892186122632198
 40
0.8177015527037828
 40
0.8441231765667325
 40
0.8684834838551101
 40
0.890782474572806
 40
0.9110201487248991
 40
0.9291965063181925
 40
0.9453115473621049
 40
0.9593652718701934
 40
0.9891542838793695
 40
1.0
 40
1.0
 40
1.0
 40
1.0
 10
-23.35446665259746
 20
5.52891376065077
 30
0.0
 10
-23.34381697193141
 20
5.531751883212689
 30
0.0
 10
-23.2578891278002
 20
5.55451760833308
 30
0.0
 10
-23.09922811924399
 20
5.594555684367177
 30
0.0
 10
-22.88072218584113
 20
5.644818833439991
 30
0.0
 10
-22.67042136832325
 20
5.688546414450496
 30
0.0
 10
-22.46850006795996
 20
5.726107881512763
 30
0.0
 10
-22.27512073011864
 20
5.757877057452364
 30
0.0
 10
-22.09043374177444
 20
5.78423178594628
 30
0.0
 10
-21.91457733539174
 20
5.805553590815656
 30
0.0
 10
-21.7476775026556
 20
5.822227330046071
 30
0.0
 10
-21.58984791689899
 20
5.834640850853077
 30
0.0
 10
-21.44118986576373
 20
5.843184634486636
 30
0.0
 10
-21.30179218970104
 20
5.848251468010723
 30
0.0
 10
-21.1717312412198
 20
5.850236018375727
 30
0.0
 10
-21.05107081486469
 20
5.849534729547739
 30
0.0
 10
-20.93986221525849
 20
5.846544637067445
 30
0.0
 10
-20.83814390880807
 20
5.841665759058406
 30
0.0
 10
-20.74594257786875
 20
5.83529178100615
 30
0.0
 10
-20.66326968289694
 20
5.827838565531495
 30
0.0
 10
-20.59013236044957
 20
5.819652279369851
 30
0.0
 10
-20.49963963058547
 20
5.80776518601332
 30
0.0
 10
-20.41762358118148
 20
5.793120367488892
 30
0.0
 10
-20.35703325502035
 20
5.780893575499531
 30
0.0
 10
-20.34084773970648
 20
5.777559699002887
 30
0.0
  0
ARC
  5
F0
330
1F
100
AcDbEntity
  8
0
  6
Continuous
 62
     7
370
    25
100
AcDbCircle
 10
0.0
 20
0.0
 30
0.0
 40
24.0
100
AcDbArc
 50
166.6810610094
 51
169.3189389906
  0
SPLINE
  5
F1
330
1F
100
AcDbEntity
  8
0
  6
Continuous
 62
     7
370
    25
100
AcDbSpline
210
0.0
220
0.0
230
1.0
 70
     8
 71
     3
 72
    29
 73
    25
 74
     0
 42
0.000000001
 43
0.00000001
 40
0.1146165153578265
 40
0.1146165153578265
 40
0.1146165153578265
 40
0.1146165153578265
 40
0.1254622314784576
 40
0.1552512434876337
 40
0.1693049679957221
 40
0.1854200090396344
 40
0.2035963666329278
 40
0.2238340407850208
 40
0.2461330315027167
 40
0.2704933387910942
 40
0.2969149626540439
 40
0.3253979030946068
 40
0.3559421601152148
 40
0.3885477337178345
 40
0.4232146239040822
 40
0.4599428306753026
 40
0.4987323540326257
 40
0.5395831939770115
 40
0.5824953505092814
 40
0.6274688236301409
 40
0.6745036133402074
 40
0.7235997196400171
 40
0.7747571425300435
 40
0.7819976423039946
 40
0.7819976423039946
 40
0.7819976423039946
 40
0.7819976423039946
 10
-20.9322342943511
 20
2.995304707681035
 30
0.0
 10
-20.94837650808038
 20
2.9988423021164
 30
0.0
 10
-21.00870160965129
 20
3.012316877698618
 30
0.0
 10
-21.08958358336318
 20
3.032297102870546
 30
0.0
 10
-21.17708772212796
 20
3.0582444118978
 30
0.0
 10
-21.24723165338656
 20
3.080513496375668
 30
0.0
 10
-21.32578859690048
 20
3.107330741008151
 30
0.0
 10
-21.41261123440473
 20
3.139009482144783
 30
0.0
 10
-21.50751994968497
 20
3.17592496780623
 30
0.0
 10
-21.61033024088395
 20
3.218425994887914
 30
0.0
 10
-21.7208442651616
 20
3.266862352432383
 30
0.0
 10
-21.83885366450985
 20
3.321575882984309
 30
0.0
 10
-21.96413891142423
 20
3.382902808549172
 30
0.0
 10
-22.09646972890658
 20
3.451172619963638
 30
0.0
 10
-22.23560519627435
 20
3.526708011398917
 30
0.0
 10
-22.38129395962965
 20
3.609824507831788
 30
0.0
 10
-22.53327442154103
 20
3.700830190214421
 30
0.0
 10
-22.69127494703179
 20
3.800025398376342
 30
0.0
 10
-22.8550140747437
 20
3.907702447462811
 30
0.0
 10
-23.02420073646996
 20
4.0241453469552
 30
0.0
 10
-23.19853448354191
 20
4.149629528514365
 30
0.0
 10
-23.37770572194576
 20
4.284421569881072
 30
0.0
 10
-23.50636481297595
 20
4.385531418381942
 30
0.0
 10
-23.57560415005439
 20
4.441278946024283
 30
0.0
 10
-23.58417874900872
 20
4.448203315362891
 30
0.0
  0
ARC
  5
F2
330
1F
100
AcDbEntity
  8
0
  6
Continuous
 62
     7
370
    25
100
AcDbCircle
 10
-21.0542549817
 20
2.4385184364
 30
0.0
 40
0.5699999999999984
100
AcDbArc
 50
353.3933993483
 51
77.6389469986
  0
ARC
  5
F3
330
1F
100
AcDbEntity
  8
0
  6
Continuous
 62
     7
370
    25
100
AcDbCircle
 10
0.0
 20
0.0
 30
0.0
 40
20.62500000000001
100
AcDbArc
 50
173.3933993483
 51
174.6066006517
  0
ARC
  5
F4
330
1F
100
AcDbEntity
  8
0
  6
Continuous
 62
     7
370
    25
100
AcDbCircle
 10
-21.1011654868
 20
1.9921947942
 30
0.0
 40
0.5700000000000073
100
AcDbArc
 50
270.3610530014
 51
354.6066006517
  0
SPLINE
  5
F5
330
1F
100
AcDbEntity
  8
0
  6
Continuous
 62
     7
370
    25
100
AcDbSpline
210
0.0
220
0.0
230
1.0
 70
     8
 71
     3
 72
    29
 73
    25
 74
     0
 42
0.000000001
 43
0.00000001
 40
0.3326188730538285
 40
0.3326188730538285
 40
0.3326188730538285
 40
0.3326188730538285
 40
0.3398593728277818
 40
0.3910167957178082
 40
0.4401129020176182
 40
0.4871476917276847
 40
0.5321211648485444
 40
0.5750333213808144
 40
0.6158841613252003
 40
0.6546736846825236
 40
0.6914018914537441
 40
0.7260687816399919
 40
0.7586743552426116
 40
0.7892186122632198
 40
0.8177015527037828
 40
0.8441231765667325
 40
0.8684834838551101
 40
0.890782474572806
 40
0.9110201487248991
 40
0.9291965063181925
 40
0.9453115473621049
 40
0.9593652718701934
 40
0.9891542838793695
 40
1.0
 40
1.0
 40
1.0
 40
1.0
 10
-23.99364133101836
 20
0.5524270797561466
 30
0.0
 10
-23.98381445028688
 20
0.5574173756446223
 30
0.0
 10
-23.90449759611618
 20
0.5975510184117435
 30
0.0
 10
-23.75762809535226
 20
0.6697016449782669
 30
0.0
 10
-23.5543473371577
 20
0.7642963617166677
 30
0.0
 10
-23.35773357237349
 20
0.8507923887184864
 30
0.0
 10
-23.16803420501261
 20
0.9295148465761365
 30
0.0
 10
-22.98548585275712
 20
1.000795614898556
 30
0.0
 10
-22.81031417438369
 20
1.064973013361553
 30
0.0
 10
-22.64273370490846
 20
1.122391488430009
 30
0.0
 10
-22.48294769927038
 20
1.173401292874873
 30
0.0
 10
-22.33114798473773
 20
1.218358164504628
 30
0.0
 10
-22.18751482119125
 20
1.257622992732188
 30
0.0
 10
-22.05221677272775
 20
1.29156151031335
 30
0.0
 10
-21.92541057924357
 20
1.32054388519951
 30
0.0
 10
-21.80724106655482
 20
1.344944634473276
 30
0.0
 10
-21.69784096648576
 20
1.365141450665305
 30
0.0
 10
-21.59733107330443
 20
1.381517612927716
 30
0.0
 10
-21.50581933810758
 20
1.394452656200016
 30
0.0
 10
-21.42340343361383
 20
1.404350972744115
 30
0.0
 10
-21.35016231254045
 20
1.411549680948102
 30
0.0
 10
-21.25917560026136
 20
1.418736845574471
 30
0.0
 10
-21.17590696933405
 20
1.421464146977395
 30
0.0
 10
-21.11409859417609
 20
1.422101976887691
 30
0.0
 10
-21.09757361930579
 20
1.422206111447018
 30
0.0
  0
ARC
  5
F6
330
1F
100
AcDbEntity
  8
0
  6
Continuous
 62
     7
370
    25
100
AcDbCircle
 10
0.0
 20
0.0
 30
0.0
 40
24.00000000000001
100
AcDbArc
 50
178.6810610094
 51
181.3189389906
  0
SPLINE
  5
F7
330
1F
100
AcDbEntity
  8
0
  6
Continuous
 62
     7
370
    25
100
AcDbSpline
210
0.0
220
0.0
230
1.0
 70
     8
 71
     3
 72
    29
 73
    25
 74
     0
 42
0.000000001
 43
0.00000001
 40
0.1146165153578265
 40
0.1146165153578265
 40
0.1146165153578265
 40
0.1146165153578265
 40
0.1254622314784576
 40
0.1552512434876337
 40
0.1693049679957221
 40
0.1854200090396344
 40
0.2035963666329278
 40
0.2238340407850208
 40
0.2461330315027167
 40
0.2704933387910942
 40
0.2969149626540439
 40
0.3253979030946068
 40
0.3559421601152148
 40
0.3885477337178345
 40
0.4232146239040822
 40
0.4599428306753026
 40
0.4987323540326257
 40
0.5395831939770115
 40
0.5824953505092814
 40
0.6274688236301409
 40
0.6745036133402074
 40
0.7235997196400171
 40
0.7747571425300435
 40
0.7819976423039963
 40
0.7819976423039963
 40
0.7819976423039963
 40
0.7819976423039963
 10
-21.09757361930577
 20
-1.422206111447159
 30
0.0
 10
-21.11409859417607
 20
-1.422101976887832
 30
0.0
 10
-21.17590696933403
 20
-1.42146414697754
 30
0.0
 10
-21.25917560026135
 20
-1.418736845574615
 30
0.0
 10
-21.35016231254043
 20
-1.411549680948246
 30
0.0
 10
-21.42340343361382
 20
-1.40435097274426
 30
0.0
 10
-21.50581933810756
 20
-1.39445265620016
 30
0.0
 10
-21.59733107330442
 20
-1.381517612927861
 30
0.0
 10
-21.69784096648574
 20
-1.365141450665451
 30
0.0
 10
-21.80724106655481
 20
-1.344944634473424
 30
0.0
 10
-21.92541057924355
 20
-1.320543885199658
 30
0.0
 10
-22.05221677272774
 20
-1.2915615103135
 30
0.0
 10
-22.18751482119124
 20
-1.257622992732337
 30
0.0
 10
-22.33114798473773
 20
-1.218358164504779
 30
0.0
 10
-22.48294769927037
 20
-1.173401292875025
 30
0.0
 10
-22.64273370490845
 20
-1.122391488430162
 30
0.0
 10
-22.81031417438368
 20
-1.064973013361706
 30
0.0
 10
-22.98548585275711
 20
-1.000795614898712
 30
0.0
 10
-23.16803420501259
 20
-0.9295148465762924
 30
0.0
 10
-23.35773357237348
 20
-0.8507923887186438
 30
0.0
 10
-23.55434733715769
 20
-0.7642963617168271
 30
0.0
 10
-23.75762809535225
 20
-0.6697016449784265
 30
0.0
 10
-23.90449759611617
 20
-0.5975510184119054
 30
0.0
 10
-23.98381445028687
 20
-0.5574173756447849
 30
0.0
 10
-23.99364133101835
 20
-0.5524270797563093
 30
0.0
  0
ARC
  5
F8
330
1F
100
AcDbEntity
  8
0
  6
Continuous
 62
     7
370
    25
100
AcDbCircle
 10
-21.1011654868
 20
-1.9921947942
 30
0.0
 40
0.5700000000000003
100
AcDbArc
 50
5.3933993483
 51
89.6389469986
  0
ARC
  5
F9
330
1F
100
AcDbEntity
  8
0
  6
Continuous
 62
     7
370
    25
100
AcDbCircle
 10
0.0
 20
0.0
 30
0.0
 40
20.625
100
AcDbArc
 50
185.3933993483
 51
186.6066006517
  0
ARC
  5
FA
330
1F
100
AcDbEntity
  8
0
  6
Continuous
 62
     7
370
    25
100
AcDbCircle
 10
-21.0542549817
 20
-2.4385184364
 30
0.0
 40
0.5700000000000108
100
AcDbArc
 50
282.3610530014
 51
6.6066006517
  0
SPLINE
  5
FB
330
1F
100
AcDbEntity
  8
0
  6
Continuous
 62
     7
370
    25
100
AcDbSpline
210
0.0
220
0.0
230
1.0
 70
     8
 71
     3
 72
    29
 73
    25
 74
     0
 42
0.000000001
 43
0.00000001
 40
0.3326188730538288
 40
0.3326188730538288
 40
0.3326188730538288
 40
0.3326188730538288
 40
0.3398593728277818
 40
0.3910167957178082
 40
0.4401129020176182
 40
0.4871476917276847
 40
0.5321211648485444
 40
0.5750333213808144
 40
0.6158841613252003
 40
0.6546736846825236
 40
0.6914018914537441
 40
0.7260687816399919
 40
0.7586743552426116
 40
0.7892186122632198
 40
0.8177015527037828
 40
0.8441231765667325
 40
0.8684834838551101
 40
0.890782474572806
 40
0.9110201487248991
 40
0.9291965063181925
 40
0.9453115473621049
 40
0.9593652718701934
 40
0.9891542838793695
 40
1.0
 40
1.0
 40
1.0
 40
1.0
 10
-23.5841787490087
 20
-4.448203315363054
 30
0.0
 10
-23.57560415005436
 20
-4.441278946024444
 30
0.0
 10
-23.50636481297592
 20
-4.385531418382102
 30
0.0
 10
-23.37770572194572
 20
-4.284421569881228
 30
0.0
 10
-23.19853448354188
 20
-4.14962952851452
 30
0.0
 10
-23.02420073646993
 20
-4.024145346955355
 30
0.0
 10
-22.85501407474367
 20
-3.907702447462966
 30
0.0
 10
-22.69127494703175
 20
-3.800025398376493
 30
0.0
 10
-22.533274421541
 20
-3.700830190214572
 30
0.0
 10
-22.38129395962963
 20
-3.60982450783194
 30
0.0
 10
-22.23560519627431
 20
-3.526708011399066
 30
0.0
 10
-22.09646972890655
 20
-3.451172619963787
 30
0.0
 10
-21.9641389114242
 20
-3.38290280854932
 30
0.0
 10
-21.83885366450981
 20
-3.321575882984455
 30
0.0
 10
-21.72084426516157
 20
-3.26686235243253
 30
0.0
 10
-21.61033024088391
 20
-3.218425994888059
 30
0.0
 10
-21.50751994968495
 20
-3.175924967806375
 30
0.0
 10
-21.4126112344047
 20
-3.139009482144928
 30
0.0
 10
-21.32578859690047
 20
-3.107330741008296
 30
0.0
 10
-21.24723165338653
 20
-3.080513496375811
 30
0.0
 10
-21.17708772212794
 20
-3.058244411897943
 30
0.0
 10
-21.08958358336315
 20
-3.032297102870687
 30
0.0
 10
-21.00870160965127
 20
-3.012316877698764
 30
0.0
 10
-20.94837650808035
 20
-2.99884230211654
 30
0.0
 10
-20.93223429435109
 20
-2.995304707681176
 30
0.0
  0
ARC
  5
FC
330
1F
100
AcDbEntity
  8
0
  6
Continuous
 62
     7
370
    25
100
AcDbCircle
 10
0.0
 20
0.0
 30
0.0
 40
24.00000000000001
100
AcDbArc
 50
190.6810610094
 51
193.3189389906
  0
SPLINE
  5
FD
330
1F
100
AcDbEntity
  8
0
  6
Continuous
 62
     7
370
    25
100
AcDbSpline
210
0.0
220
0.0
230
1.0
 70
     8
 71
     3
 72
    29
 73
    25
 74
     0
 42
0.000000001
 43
0.00000001
 40
0.1146165153578265
 40
0.1146165153578265
 40
0.1146165153578265
 40
0.1146165153578265
 40
0.1254622314784576
 40
0.1552512434876337
 40
0.1693049679957221
 40
0.1854200090396344
 40
0.2035963666329278
 40
0.2238340407850208
 40
0.2461330315027167
 40
0.2704933387910942
 40
0.2969149626540439
 40
0.3253979030946068
 40
0.3559421601152148
 40
0.3885477337178345
 40
0.4232146239040822
 40
0.4599428306753026
 40
0.4987323540326257
 40
0.5395831939770115
 40
0.5824953505092814
 40
0.6274688236301409
 40
0.6745036133402074
 40
0.7235997196400171
 40
0.7747571425300435
 40
0.7819976423039983
 40
0.7819976423039983
 40
0.7819976423039983
 40
0.7819976423039983
 10
-20.34084773970644
 20
-5.777559699003022
 30
0.0
 10
-20.35703325502032
 20
-5.780893575499669
 30
0.0
 10
-20.41762358118143
 20
-5.79312036748903
 30
0.0
 10
-20.49963963058543
 20
-5.80776518601346
 30
0.0
 10
-20.59013236044952
 20
-5.819652279369991
 30
0.0
 10
-20.66326968289691
 20
-5.827838565531636
 30
0.0
 10
-20.7459425778687
 20
-5.83529178100629
 30
0.0
 10
-20.83814390880803
 20
-5.841665759058547
 30
0.0
 10
-20.93986221525844
 20
-5.846544637067585
 30
0.0
 10
-21.05107081486465
 20
-5.849534729547882
 30
0.0
 10
-21.17173124121976
 20
-5.850236018375869
 30
0.0
 10
-21.30179218970101
 20
-5.848251468010869
 30
0.0
 10
-21.44118986576369
 20
-5.84318463448678
 30
0.0
 10
-21.58984791689895
 20
-5.834640850853225
 30
0.0
 10
-21.74767750265556
 20
-5.822227330046217
 30
0.0
 10
-21.91457733539169
 20
-5.805553590815803
 30
0.0
 10
-22.09043374177439
 20
-5.784231785946428
 30
0.0
 10
-22.27512073011861
 20
-5.757877057452517
 30
0.0
 10
-22.46850006795992
 20
-5.726107881512914
 30
0.0
 10
-22.67042136832321
 20
-5.68854641445065
 30
0.0
 10
-22.88072218584109
 20
-5.644818833440147
 30
0.0
 10
-23.09922811924396
 20
-5.594555684367333
 30
0.0
 10
-23.25788912780016
 20
-5.554517608333235
 30
0.0
 10
-23.34381697193138
 20
-5.531751883212845
 30
0.0
 10
-23.35446665259743
 20
-5.528913760650926
 30
0.0
  0
ARC
  5
FE
330
1F
100
AcDbEntity
  8
0
  6
Continuous
 62
     7
370
    25
100
AcDbCircle
 10
-20.2258538055
 20
-6.3358395527
 30
0.0
 40
0.5700000000000015
100
AcDbArc
 50
17.3933993483
 51
101.6389469986
  0
ARC
  5
FF
330
1F
100
AcDbEntity
  8
0
  6
Continuous
 62
     7
370
    25
100
AcDbCircle
 10
0.0
 20
0.0
 30
0.0
 40
20.62500000000001
100
AcDbArc
 50
197.3933993483
 51
198.6066006517
  0
ARC
  5
100
330
1F
100
AcDbEntity
  8
0
  6
Continuous
 62
     7
370
    25
100
AcDbCircle
 10
-20.0871725044
 20
-6.7626567101
 30
0.0
 40
0.5700000000000078
100
AcDbArc
 50
294.3610530014
 51
18.6066006517
  0
SPLINE
  5
101
330
1F
100
AcDbEntity
  8
0
  6
Continuous
 62
     7
370
    25
100
AcDbSpline
210
0.0
220
0.0
230
1.0
 70
     8
 71
     3
 72
    29
 73
    25
 74
     0
 42
0.000000001
 43
0.00000001
 40
0.3326188730538287
 40
0.3326188730538287
 40
0.3326188730538287
 40
0.3326188730538287
 40
0.3398593728277818
 40
0.3910167957178082
 40
0.4401129020176182
 40
0.4871476917276847
 40
0.5321211648485444
 40
0.5750333213808144
 40
0.6158841613252003
 40
0.6546736846825236
 40
0.6914018914537441
 40
0.7260687816399919
 40
0.7586743552426116
 40
0.7892186122632198
 40
0.8177015527037828
 40
0.8441231765667325
 40
0.8684834838551101
 40
0.890782474572806
 40
0.9110201487248991
 40
0.9291965063181925
 40
0.9453115473621049
 40
0.9593652718701934
 40
0.9891542838793695
 40
1.0
 40
1.0
 40
1.0
 40
1.0
 10
-22.14397438622176
 20
-9.25442588075321
 30
0.0
 10
-22.13702682016436
 20
-9.245870066131374
 30
0.0
 10
-22.08089109145572
 20
-9.176945088078096
 30
0.0
 10
-21.97606542981208
 20
-9.051295003201243
 30
0.0
 10
-21.82883435407618
 20
-8.88219669621793
 30
0.0
 10
-21.68439984600967
 20
-8.723208620975463
 30
0.0
 10
-21.54312015888316
 20
-8.574134393311176
 30
0.0
 10
-21.40534644130333
 20
-8.434767067197539
 30
0.0
 10
-21.27142244982984
 20
-8.304889355924788
 30
0.0
 10
-21.14168427095101
 20
-8.184273851241814
 30
0.0
 10
-21.01646004792934
 20
-8.072683252552247
 30
0.0
 10
-20.89606971529647
 20
-7.969870600376186
 30
0.0
 10
-20.78082473559597
 20
-7.875579524128527
 30
0.0
 10
-20.67102785670616
 20
-7.789544471506384
 30
0.0
 10
-20.5669728285173
 20
-7.71149102911846
 30
0.0
 10
-20.46894428581679
 20
-7.641135964551409
 30
0.0
 10
-20.37721710655183
 20
-7.578188225406094
 30
0.0
 10
-20.29205753545296
 20
-7.522346800209168
 30
0.0
 10
-20.21371856152151
 20
-7.473308874207341
 30
0.0
 10
-20.14245389437698
 20
-7.430744743760328
 30
0.0
 10
-20.07847277931711
 20
-7.394378548859184
 30
0.0
 10
-19.99827556482208
 20
-7.350805117344535
 30
0.0
 10
-19.9233151786916
 20
-7.314445200119382
 30
0.0
 10
-19.86710984711834
 20
-7.288722782476361
 30
0.0
 10
-19.852055886729
 20
-7.281906338017046
 30
0.0
  0
ARC
  5
102
330
1F
100
AcDbEntity
  8
0
  6
Continuous
 62
     7
370
    25
100
AcDbCircle
 10
0.0
 20
0.0
 30
0.0
 40
24.0
100
AcDbArc
 50
202.6810610094
 51
205.3189389906
  0
SPLINE
  5
103
330
1F
100
AcDbEntity
  8
0
  6
Continuous
 62
     7
370
    25
100
AcDbSpline
210
0.0
220
0.0
230
1.0
 70
     8
 71
     3
 72
    29
 73
    25
 74
     0
 42
0.000000001
 43
0.00000001
 40
0.1146165153578265
 40
0.1146165153578265
 40
0.1146165153578265
 40
0.1146165153578265
 40
0.1254622314784576
 40
0.1552512434876337
 40
0.1693049679957221
 40
0.1854200090396344
 40
0.2035963666329278
 40
0.2238340407850208
 40
0.2461330315027167
 40
0.2704933387910942
 40
0.2969149626540439
 40
0.3253979030946068
 40
0.3559421601152148
 40
0.3885477337178345
 40
0.4232146239040822
 40
0.4599428306753026
 40
0.4987323540326257
 40
0.5395831939770115
 40
0.5824953505092814
 40
0.6274688236301409
 40
0.6745036133402074
 40
0.7235997196400171
 40
0.7747571425300435
 40
0.781997642303996
 40
0.781997642303996
 40
0.781997642303996
 40
0.781997642303996
 10
-18.69512920766524
 20
-9.880406203905109
 30
0.0
 10
-18.71026787873675
 20
-9.887032385057111
 30
0.0
 10
-18.76699206790315
 20
-9.911589429465533
 30
0.0
 10
-18.8441710408682
 20
-9.942966319074165
 30
0.0
 10
-18.93021482178995
 20
-9.973408147393313
 30
0.0
 10
-19.00005189366857
 20
-9.996621647933166
 30
0.0
 10
-19.07936857689957
 20
-10.02110065414583
 30
0.0
 10
-19.16822986298827
 20
-10.04650508009602
 30
0.0
 10
-19.26671100461729
 20
-10.07242576799606
 30
0.0
 10
-19.37486775431979
 20
-10.09847208775924
 30
0.0
 10
-19.49274565471658
 20
-10.12424476500204
 30
0.0
 10
-19.62037707064458
 20
-10.14934477353207
 30
0.0
 10
-19.75778202695824
 20
-10.17337106900343
 30
0.0
 10
-19.90496789550719
 20
-10.19592173430628
 30
0.0
 10
-20.06192944223982
 20
-10.21659409474797
 30
0.0
 10
-20.22864877850919
 20
-10.23498514314585
 30
0.0
 10
-20.40509535298778
 20
-10.25069187366172
 30
0.0
 10
-20.59122594368564
 20
-10.2633116432361
 30
0.0
 10
-20.78698466211209
 20
-10.27244252511329
 30
0.0
 10
-20.99230296572601
 20
-10.27768366519695
 30
0.0
 10
-21.20709968111674
 20
-10.27863563529613
 30
0.0
 10
-21.43128103193041
 20
-10.27490079469273
 30
0.0
 10
-21.59479930086501
 20
-10.26872512523776
 30
0.0
 10
-21.68358267584065
 20
-10.26432228919393
 30
0.0
 10
-21.69458971429333
 20
-10.26376037953335
 30
0.0
  0
ARC
  5
104
330
1F
100
AcDbEntity
  8
0
  6
Continuous
 62
     7
370
    25
100
AcDbCircle
 10
-18.4665752585
 20
-10.4025777201
 30
0.0
 40
0.570000000000002
100
AcDbArc
 50
29.3933993483
 51
113.6389469986
  0
ARC
  5
105
330
1F
100
AcDbEntity
  8
0
  6
Continuous
 62
     7
370
    25
100
AcDbCircle
 10
0.0
 20
0.0
 30
0.0
 40
20.62500000000001
100
AcDbArc
 50
209.3933993483
 51
210.6066006517
  0
ARC
  5
106
330
1F
100
AcDbEntity
  8
0
  6
Continuous
 62
     7
370
    25
100
AcDbCircle
 10
-18.2421841997
 20
-10.7912344347
 30
0.0
 40
0.57000000000001
100
AcDbArc
 50
306.3610530014
 51
30.6066006517
  0
SPLINE
  5
107
330
1F
100
AcDbEntity
  8
0
  6
Continuous
 62
     7
370
    25
100
AcDbSpline
210
0.0
220
0.0
230
1.0
 70
     8
 71
     3
 72
    29
 73
    25
 74
     0
 42
0.000000001
 43
0.00000001
 40
0.3326188730538315
 40
0.3326188730538315
 40
0.3326188730538315
 40
0.3326188730538315
 40
0.3398593728277818
 40
0.3910167957178082
 40
0.4401129020176182
 40
0.4871476917276847
 40
0.5321211648485444
 40
0.5750333213808144
 40
0.6158841613252003
 40
0.6546736846825236
 40
0.6914018914537441
 40
0.7260687816399919
 40
0.7586743552426116
 40
0.7892186122632198
 40
0.8177015527037828
 40
0.8441231765667325
 40
0.8684834838551101
 40
0.890782474572806
 40
0.9110201487248991
 40
0.9291965063181925
 40
0.9453115473621049
 40
0.9593652718701934
 40
0.9891542838793695
 40
1.0
 40
1.0
 40
1.0
 40
1.0
 10
-19.73597208417862
 20
-13.65618562749211
 30
0.0
 10
-19.73095519299298
 20
-13.64637229774138
 30
0.0
 10
-19.69037647336782
 20
-13.56728222155684
 30
0.0
 10
-19.61396562553391
 20
-13.42258341194913
 30
0.0
 10
-19.5051094169687
 20
-13.22656924678809
 30
0.0
 10
-19.3968866289838
 20
-13.04102581965984
 30
0.0
 10
-19.28968851671961
 20
-12.8658355229101
 30
0.0
 10
-19.18390158184177
 20
-12.70086894067908
 30
0.0
 10
-19.07990724545153
 20
-12.54598500550053
 30
0.0
 10
-18.97808153057511
 20
-12.40103115484927
 30
0.0
 10
-18.87879474732562
 20
-12.26584349853684
 30
0.0
 10
-18.78241118466062
 20
-12.14024699186994
 30
0.0
 10
-18.68928880136163
 20
-12.02405562327989
 30
0.0
 10
-18.59977894096777
 20
-11.91707258824204
 30
0.0
 10
-18.51422598798156
 20
-11.81909054399244
 30
0.0
 10
-18.43296724456736
 20
-11.72989162632545
 30
0.0
 10
-18.35633209512611
 20
-11.64924829337392
 30
0.0
 10
-18.2846435501066
 20
-11.57692146687951
 30
0.0
 10
-18.21821202882084
 20
-11.51266754868884
 30
0.0
 10
-18.15735424596575
 20
-11.45621678917319
 30
0.0
 10
-18.10233222884818
 20
-11.40734286107032
 30
0.0
 10
-18.03294694172526
 20
-11.34804767511399
 30
0.0
 10
-17.96718427174994
 20
-11.29689716869258
 30
0.0
 10
-17.91755515286718
 20
-11.26005110206962
 30
0.0
 10
-17.90424737612372
 20
-11.25025371891816
 30
0.0
  0
ARC
  5
108
330
1F
100
AcDbEntity
  8
0
  6
Continuous
 62
     7
370
    25
100
AcDbCircle
 10
0.0
 20
0.0
 30
0.0
 40
24.0
100
AcDbArc
 50
214.6810610094
 51
217.3189389906
  0
SPLINE
  5
109
330
1F
100
AcDbEntity
  8
0
  6
Continuous
 62
     7
370
    25
100
AcDbSpline
210
0.0
220
0.0
230
1.0
 70
     8
 71
     3
 72
    29
 73
    25
 74
     0
 42
0.000000001
 43
0.00000001
 40
0.1146165153578265
 40
0.1146165153578265
 40
0.1146165153578265
 40
0.1146165153578265
 40
0.1254622314784576
 40
0.1552512434876337
 40
0.1693049679957221
 40
0.1854200090396344
 40
0.2035963666329278
 40
0.2238340407850208
 40
0.2461330315027167
 40
0.2704933387910942
 40
0.2969149626540439
 40
0.3253979030946068
 40
0.3559421601152148
 40
0.3885477337178345
 40
0.4232146239040822
 40
0.4599428306753026
 40
0.4987323540326257
 40
0.5395831939770115
 40
0.5824953505092814
 40
0.6274688236301409
 40
0.6745036133402074
 40
0.7235997196400171
 40
0.7747571425300435
 40
0.781997642303997
 40
0.781997642303997
 40
0.781997642303997
 40
0.781997642303997
 10
-16.23234382006605
 20
-13.55143154624735
 30
0.0
 10
-16.24577401432597
 20
-13.56106043614242
 30
0.0
 10
-16.29615294723821
 20
-13.59687447229149
 30
0.0
 10
-16.36512175229994
 20
-13.6436121123454
 30
0.0
 10
-16.44295605816919
 20
-13.69127822165352
 30
0.0
 10
-16.5064406643225
 20
-13.72850439520725
 30
0.0
 10
-16.57893461615186
 20
-13.76893934212314
 30
0.0
 10
-16.66057219278408
 20
-13.81226392065328
 30
0.0
 10
-16.75151207113758
 20
-13.85809356000182
 30
0.0
 10
-16.8518900019807
 20
-13.90605775789012
 30
0.0
 10
-16.96183354653091
 20
-13.9557754338812
 30
0.0
 10
-17.08145732458611
 20
-14.0068630104903
 30
0.0
 10
-17.21086430521772
 20
-14.05893237055404
 30
0.0
 10
-17.35014526244862
 20
-14.11159191250947
 30
0.0
 10
-17.49937879737998
 20
-14.16444667285157
 30
0.0
 10
-17.65863120217948
 20
-14.21709873181271
 30
0.0
 10
-17.82795638276464
 20
-14.26914753822103
 30
0.0
 10
-18.00739577584897
 20
-14.32019026137692
 30
0.0
 10
-18.19697827951079
 20
-14.36982213771804
 30
0.0
 10
-18.39672019128088
 20
-14.41763682197618
 30
0.0
 10
-18.6066251573729
 20
-14.46322673752366
 30
0.0
 10
-18.82668412482534
 20
-14.5061834358458
 30
0.0
 10
-18.98791312113817
 20
-14.53414007935928
 30
0.0
 10
-19.07567176744192
 20
-14.54829255745427
 30
0.0
 10
-19.0865551032832
 20
-14.55003141884354
 30
0.0
  0
ARC
  5
10A
330
1F
100
AcDbEntity
  8
0
  6
Continuous
 62
     7
370
    25
100
AcDbCircle
 10
-15.9002187602
 20
-14.014673324
 30
0.0
 40
0.5699999999999985
100
AcDbArc
 50
41.3933993483
 51
125.6389469986
  0
ARC
  5
10B
330
1F
100
AcDbEntity
  8
0
  6
Continuous
 62
     7
370
    25
100
AcDbCircle
 10
0.0
 20
0.0
 30
0.0
 40
20.625
100
AcDbArc
 50
221.3933993483
 51
222.6066006517
  0
ARC
  5
10C
330
1F
100
AcDbEntity
  8
0
  6
Continuous
 62
     7
370
    25
100
AcDbCircle
 10
-15.5999249097
 20
-14.3481834324
 30
0.0
 40
0.5700000000000114
100
AcDbArc
 50
318.3610530014
 51
42.6066006517
  0
SPLINE
  5
10D
330
1F
100
AcDbEntity
  8
0
  6
Continuous
 62
     7
370
    25
100
AcDbSpline
210
0.0
220
0.0
230
1.0
 70
     8
 71
     3
 72
    29
 73
    25
 74
     0
 42
0.000000001
 43
0.00000001
 40
0.3326188730538309
 40
0.3326188730538309
 40
0.3326188730538309
 40
0.3326188730538309
 40
0.3398593728277818
 40
0.3910167957178082
 40
0.4401129020176182
 40
0.4871476917276847
 40
0.5321211648485444
 40
0.5750333213808144
 40
0.6158841613252003
 40
0.6546736846825236
 40
0.6914018914537441
 40
0.7260687816399919
 40
0.7586743552426116
 40
0.7892186122632198
 40
0.8177015527037828
 40
0.8441231765667325
 40
0.8684834838551101
 40
0.890782474572806
 40
0.9110201487248991
 40
0.9291965063181925
 40
0.9453115473621049
 40
0.9593652718701934
 40
0.9891542838793695
 40
1.0
 40
1.0
 40
1.0
 40
1.0
 10
-16.46541309835561
 20
-17.46110453266057
 30
0.0
 10
-16.46254614426026
 20
-17.45046257738062
 30
0.0
 10
-16.43929791848449
 20
-17.36466401891037
 30
0.0
 10
-16.39464140517057
 20
-17.20724051689359
 30
0.0
 10
-16.3289176024404
 20
-16.99287725315267
 30
0.0
 10
-16.2616363896826
 20
-16.78888761224029
 30
0.0
 10
-16.19320492418029
 20
-16.59523790302937
 30
0.0
 10
-16.12402816868062
 20
-16.41188189592197
 30
0.0
 10
-16.05450853889409
 20
-16.23876090802049
 30
0.0
 10
-15.98504556037416
 20
-16.07580389024015
 30
0.0
 10
-15.9160355257557
 20
-15.92292752558807
 30
0.0
 10
-15.84787115724667
 20
-15.78003633445057
 30
0.0
 10
-15.78094126535014
 20
-15.64702279387356
 30
0.0
 10
-15.71563043386741
 20
-15.52376744841272
 30
0.0
 10
-15.65231863065797
 20
-15.41013908780517
 30
0.0
 10
-15.59138108353999
 20
-15.30599473776417
 30
0.0
 10
-15.53318728768928
 20
-15.21118031162605
 30
0.0
 10
-15.47810290216629
 20
-15.12552911321458
 30
0.0
 10
-15.4264822097802
 20
-15.04886740738452
 30
0.0
 10
-15.37869108835337
 20
-14.98099718787186
 30
0.0
 10
-15.33503289535105
 20
-14.92175155174848
 30
0.0
 10
-15.27949200559508
 20
-14.84932609550663
 30
0.0
 10
-15.22580119601713
 20
-14.78562052246696
 30
0.0
 10
-15.18491732046699
 20
-14.73926115678252
 30
0.0
 10
-15.17393734107088
 20
-14.72691102759569
 30
0.0
  0
ARC
  5
10E
330
1F
100
AcDbEntity
  8
0
  6
Continuous
 62
     7
370
    25
100
AcDbCircle
 10
0.0
 20
0.0
 30
0.0
 40
24.00000000000001
100
AcDbArc
 50
226.6810610094
 51
229.3189389906
  0
SPLINE
  5
10F
330
1F
100
AcDbEntity
  8
0
  6
Continuous
 62
     7
370
    25
100
AcDbSpline
210
0.0
220
0.0
230
1.0
 70
     8
 71
     3
 72
    29
 73
    25
 74
     0
 42
0.000000001
 43
0.00000001
 40
0.1146165153578265
 40
0.1146165153578265
 40
0.1146165153578265
 40
0.1146165153578265
 40
0.1254622314784576
 40
0.1552512434876337
 40
0.1693049679957221
 40
0.1854200090396344
 40
0.2035963666329278
 40
0.2238340407850208
 40
0.2461330315027167
 40
0.2704933387910942
 40
0.2969149626540439
 40
0.3253979030946068
 40
0.3559421601152148
 40
0.3885477337178345
 40
0.4232146239040822
 40
0.4599428306753026
 40
0.4987323540326257
 40
0.5395831939770115
 40
0.5824953505092814
 40
0.6274688236301409
 40
0.6745036133402074
 40
0.7235997196400171
 40
0.7747571425300435
 40
0.7819976423039977
 40
0.7819976423039977
 40
0.7819976423039977
 40
0.7819976423039977
 10
-13.06012711610241
 20
-16.6301943030354
 30
0.0
 10
-13.07126186961636
 20
-16.64240507298058
 30
0.0
 10
-13.11309374516123
 20
-16.68791085563575
 30
0.0
 10
-13.1708381145894
 20
-16.74796658699251
 30
0.0
 10
-13.23706121274924
 20
-16.81077373958547
 30
0.0
 10
-13.29141877125539
 20
-16.86038562373779
 30
0.0
 10
-13.35392165812359
 20
-16.91500931014827
 30
0.0
 10
-13.42476757145994
 20
-16.9743605492822
 30
0.0
 10
-13.50419167747592
 20
-17.03809616492471
 30
0.0
 10
-13.59240379221507
 20
-17.10588197533265
 30
0.0
 10
-13.6896079204542
 20
-17.17737174905931
 30
0.0
 10
-13.79599592751702
 20
-17.25221412150428
 30
0.0
 10
-13.91174922644939
 20
-17.33005086526911
 30
0.0
 10
-14.03703802618706
 20
-17.41051780920515
 30
0.0
 10
-14.17202132773869
 20
-17.49324496279542
 30
0.0
 10
-14.31684670680077
 20
-17.57785688469062
 30
0.0
 10
-14.47165017058856
 20
-17.66397298439345
 30
0.0
 10
-14.63655600353585
 20
-17.75120784919878
 30
0.0
 10
-14.81167662730523
 20
-17.83917156884756
 30
0.0
 10
-14.99711246721909
 20
-17.92747006613779
 30
0.0
 10
-15.1929518297584
 20
-18.01570542905945
 30
0.0
 10
-15.39927078101185
 20
-18.10347625246135
 30
0.0
 10
-15.5511640239015
 20
-18.16434336947088
 30
0.0
 10
-15.63406246757716
 20
-18.19643263050083
 30
0.0
 10
-15.64434644680676
 20
-18.20039626635324
 30
0.0
  0
ARC
  5
110
330
1F
100
AcDbEntity
  8
0
  6
Continuous
 62
     7
370
    25
100
AcDbCircle
 10
-12.6389464044
 20
-17.0142604537
 30
0.0
 40
0.5700000000000043
100
AcDbArc
 50
53.3933993483
 51
137.6389469986
  0
ARC
  5
111
330
1F
100
AcDbEntity
  8
0
  6
Continuous
 62
     7
370
    25
100
AcDbCircle
 10
0.0
 20
0.0
 30
0.0
 40
20.625
100
AcDbArc
 50
233.3933993483
 51
234.6066006517
  0
ARC
  5
112
330
1F
100
AcDbEntity
  8
0
  6
Continuous
 62
     7
370
    25
100
AcDbCircle
 10
-12.2758740445
 20
-17.2780479639
 30
0.0
 40
0.5700000000000108
100
AcDbArc
 50
330.3610530014
 51
54.6066006517
  0
SPLINE
  5
113
330
1F
100
AcDbEntity
  8
0
  6
Continuous
 62
     7
370
    25
100
AcDbSpline
210
0.0
220
0.0
230
1.0
 70
     8
 71
     3
 72
    29
 73
    25
 74
     0
 42
0.000000001
 43
0.00000001
 40
0.3326188730538299
 40
0.3326188730538299
 40
0.3326188730538299
 40
0.3326188730538299
 40
0.3398593728277818
 40
0.3910167957178082
 40
0.4401129020176182
 40
0.4871476917276847
 40
0.5321211648485444
 40
0.5750333213808144
 40
0.6158841613252003
 40
0.6546736846825236
 40
0.6914018914537441
 40
0.7260687816399919
 40
0.7586743552426116
 40
0.7892186122632198
 40
0.8177015527037828
 40
0.8441231765667325
 40
0.8684834838551101
 40
0.890782474572806
 40
0.9110201487248991
 40
0.9291965063181925
 40
0.9453115473621049
 40
0.9593652718701934
 40
0.9891542838793695
 40
1.0
 40
1.0
 40
1.0
 40
1.0
 10
-12.47523655031641
 20
-20.50288938207612
 30
0.0
 10
-12.47464483296249
 20
-20.49188390577846
 30
0.0
 10
-12.46974316005988
 20
-20.40312667373481
 30
0.0
 10
-12.45879268518349
 20
-20.23985864174886
 30
0.0
 10
-12.43907373384546
 20
-20.0165149826826
 30
0.0
 10
-12.41567460816336
 20
-19.80299445414487
 30
0.0
 10
-12.38900057283599
 20
-19.59934875399968
 30
0.0
 10
-12.35945735287673
 20
-19.40561685936622
 30
0.0
 10
-12.32745077110777
 20
-19.22182503663978
 30
0.0
 10
-12.29338639442601
 20
-19.04798685536189
 30
0.0
 10
-12.2576691780983
 20
-18.88410321308764
 30
0.0
 10
-12.22070311373801
 20
-18.73016236820026
 30
0.0
 10
-12.18289087068507
 20
-18.58613998562929
 30
0.0
 10
-12.14463346484539
 20
-18.45199917978686
 30
0.0
 10
-12.10632984101672
 20
-18.32769060742928
 30
0.0
 10
-12.0683767534148
 20
-18.21315243285111
 30
0.0
 10
-12.03116765927813
 20
-18.10831075891873
 30
0.0
 10
-11.99509488522321
 20
-18.01307855696083
 30
0.0
 10
-11.96054109369765
 20
-17.92735954789982
 30
0.0
 10
-11.92790533503267
 20
-17.85103612266031
 30
0.0
 10
-11.89751903867506
 20
-17.78400809710712
 30
0.0
 10
-11.85824994968313
 20
-17.70161771055342
 30
0.0
 10
-11.81897754651819
 20
-17.62814131013056
 30
0.0
 10
-11.78862573584482
 20
-17.57429477212197
 30
0.0
 10
-11.78045343158346
 20
-17.55993165680773
 30
0.0
  0
ARC
  5
114
330
1F
100
AcDbEntity
  8
0
  6
Continuous
 62
     7
370
    25
100
AcDbCircle
 10
0.0
 20
0.0
 30
0.0
 40
24.0
100
AcDbArc
 50
238.6810610094
 51
241.3189389906
  0
SPLINE
  5
115
330
1F
100
AcDbEntity
  8
0
  6
Continuous
 62
     7
370
    25
100
AcDbSpline
210
0.0
220
0.0
230
1.0
 70
     8
 71
     3
 72
    29
 73
    25
 74
     0
 42
0.000000001
 43
0.00000001
 40
0.1146165153578265
 40
0.1146165153578265
 40
0.1146165153578265
 40
0.1146165153578265
 40
0.1254622314784576
 40
0.1552512434876337
 40
0.1693049679957221
 40
0.1854200090396344
 40
0.2035963666329278
 40
0.2238340407850208
 40
0.2461330315027167
 40
0.2704933387910942
 40
0.2969149626540439
 40
0.3253979030946068
 40
0.3559421601152148
 40
0.3885477337178345
 40
0.4232146239040822
 40
0.4599428306753026
 40
0.4987323540326257
 40
0.5395831939770115
 40
0.5824953505092814
 40
0.6274688236301409
 40
0.6745036133402074
 40
0.7235997196400171
 40
0.7747571425300435
 40
0.7819976423039959
 40
0.7819976423039959
 40
0.7819976423039959
 40
0.7819976423039959
 10
-9.317120187722121
 20
-18.9821377682548
 30
0.0
 10
-9.325472858331063
 20
-18.99639674900973
 30
0.0
 10
-9.356929422815647
 20
-19.049605457108
 30
0.0
 10
-9.400925650578015
 20
-19.12035455612795
 30
0.0
 10
-9.452643273865172
 20
-19.19555777805528
 30
0.0
 10
-9.495498098580951
 20
-19.25538709540449
 30
0.0
 10
-9.545278244409708
 20
-19.32181220409989
 30
0.0
 10
-9.602236188080997
 20
-19.39459616988862
 30
0.0
 10
-9.666673307207404
 20
-19.4734522095841
 30
0.0
 10
-9.738864313139796
 20
-19.55809706732445
 30
0.0
 10
-9.819080738226624
 20
-19.64823449262885
 30
0.0
 10
-9.907583307882138
 20
-19.74356069010029
 30
0.0
 10
-10.00462395050595
 20
-19.84376297836155
 30
0.0
 10
-10.1104448709995
 20
-19.94852053270495
 30
0.0
 10
-10.22527852117187
 20
-20.05750450596257
 30
0.0
 10
-10.34934731048223
 20
-20.17037834379196
 30
0.0
 10
-10.48286340327569
 20
-20.28679805000141
 30
0.0
 10
-10.62602849988015
 20
-20.40641247426486
 30
0.0
 10
-10.77903363217638
 20
-20.52886360057589
 30
0.0
 10
-10.9420589642099
 20
-20.65378684286343
 30
0.0
 10
-11.115273603312
 20
-20.78081134439935
 30
0.0
 10
-11.29883541016853
 20
-20.9095602867272
 30
0.0
 10
-11.43475443605606
 20
-21.00067769214663
 30
0.0
 10
-11.50916961732415
 20
-21.04930128142316
 30
0.0
 10
-11.51840478070171
 20
-21.05531646183234
 30
0.0
  0
ARC
  5
116
330
1F
100
AcDbEntity
  8
0
  6
Continuous
 62
     7
370
    25
100
AcDbCircle
 10
-8.8252914423
 20
-19.2702427581
 30
0.0
 40
0.5700000000000014
100
AcDbArc
 50
65.3933993483
 51
149.6389469986
  0
ARC
  5
117
330
1F
100
AcDbEntity
  8
0
  6
Continuous
 62
     7
370
    25
100
AcDbCircle
 10
0.0
 20
0.0
 30
0.0
 40
20.62500000000001
100
AcDbArc
 50
245.3933993483
 51
246.6066006517
  0
ARC
  5
118
330
1F
100
AcDbEntity
  8
0
  6
Continuous
 62
     7
370
    25
100
AcDbCircle
 10
-8.4153085773
 20
-19.4527788901
 30
0.0
 40
0.5700000000000055
100
AcDbArc
 50
342.3610530014
 51
66.6066006517
  0
SPLINE
  5
119
330
1F
100
AcDbEntity
  8
0
  6
Continuous
 62
     7
370
    25
100
AcDbSpline
210
0.0
220
0.0
230
1.0
 70
     8
 71
     3
 72
    29
 73
    25
 74
     0
 42
0.000000001
 43
0.00000001
 40
0.3326188730538289
 40
0.3326188730538289
 40
0.3326188730538289
 40
0.3326188730538289
 40
0.3398593728277818
 40
0.3910167957178082
 40
0.4401129020176182
 40
0.4871476917276847
 40
0.5321211648485444
 40
0.5750333213808144
 40
0.6158841613252003
 40
0.6546736846825236
 40
0.6914018914537441
 40
0.7260687816399919
 40
0.7586743552426116
 40
0.7892186122632198
 40
0.8177015527037828
 40
0.8441231765667325
 40
0.8684834838551101
 40
0.890782474572806
 40
0.9110201487248991
 40
0.9291965063181925
 40
0.9453115473621049
 40
0.9593652718701934
 40
0.9891542838793695
 40
1.0
 40
1.0
 40
1.0
 40
1.0
 10
-7.939832302201728
 20
-22.64859958171618
 30
0.0
 10
-7.941541682476981
 20
-22.63771157652515
 30
0.0
 10
-7.955200789074208
 20
-22.54987478785286
 30
0.0
 10
-7.978434940933661
 20
-22.38789782234246
 30
0.0
 10
-8.00558265378327
 20
-22.16533495757385
 30
0.0
 10
-8.027088269250632
 20
-21.95161541309304
 30
0.0
 10
-8.043337447438232
 20
-21.74687401631042
 30
0.0
 10
-8.054718943495702
 20
-21.55123324757516
 30
0.0
 10
-8.061624250952237
 20
-21.36480317460791
 30
0.0
 10
-8.064447252828646
 20
-21.18768139252246
 30
0.0
 10
-8.063583868535419
 20
-21.01995297419438
 30
0.0
 10
-8.059431702719285
 20
-20.86169042916883
 30
0.0
 10
-8.052389684974617
 20
-20.71295367381833
 30
0.0
 10
-8.042857736992595
 20
-20.57379000448863
 30
0.0
 10
-8.031236344707176
 20
-20.44423410149174
 30
0.0
 10
-8.017926448668646
 20
-20.32430797022061
 30
0.0
 10
-8.003328272208831
 20
-20.21402113273098
 30
0.0
 10
-7.987843662944564
 20
-20.11337003142702
 30
0.0
 10
-7.971866938776679
 20
-20.02234005115647
 30
0.0
 10
-7.955812882130946
 20
-19.9408991201135
 30
0.0
 10
-7.940026509378506
 20
-19.86901815148332
 30
0.0
 10
-7.91874546877356
 20
-19.78026368986311
 30
0.0
 10
-7.895607864489838
 20
-19.70022773333443
 30
0.0
 10
-7.877114638463799
 20
-19.64124737509702
 30
0.0
 10
-7.872107178248476
 20
-19.62549901071648
 30
0.0
  0
ARC
  5
11A
330
1F
100
AcDbEntity
  8
0
  6
Continuous
 62
     7
370
    25
100
AcDbCircle
 10
0.0
 20
0.0
 30
0.0
 40
24.0
100
AcDbArc
 50
250.6810610094
 51
253.3189389906
  0
SPLINE
  5
11B
330
1F
100
AcDbEntity
  8
0
  6
Continuous
 62
     7
370
    25
100
AcDbSpline
210
0.0
220
0.0
230
1.0
 70
     8
 71
     3
 72
    29
 73
    25
 74
     0
 42
0.000000001
 43
0.00000001
 40
0.1146165153578265
 40
0.1146165153578265
 40
0.1146165153578265
 40
0.1146165153578265
 40
0.1254622314784576
 40
0.1552512434876337
 40
0.1693049679957221
 40
0.1854200090396344
 40
0.2035963666329278
 40
0.2238340407850208
 40
0.2461330315027167
 40
0.2704933387910942
 40
0.2969149626540439
 40
0.3253979030946068
 40
0.3559421601152148
 40
0.3885477337178345
 40
0.4232146239040822
 40
0.4599428306753026
 40
0.4987323540326257
 40
0.5395831939770115
 40
0.5824953505092814
 40
0.6274688236301409
 40
0.6745036133402074
 40
0.7235997196400171
 40
0.7747571425300435
 40
0.7819976423039963
 40
0.7819976423039963
 40
0.7819976423039963
 40
0.7819976423039963
 10
-5.166910398635387
 20
-20.50447072659858
 30
0.0
 10
-5.172115934553149
 20
-20.52015473228206
 30
0.0
 10
-5.191822385164131
 20
-20.57874088995585
 30
0.0
 10
-5.22014762499016
 20
-20.65709128151997
 30
0.0
 10
-5.255099465098294
 20
-20.74140383111834
 30
0.0
 10
-5.284578594543352
 20
-20.80883575340337
 30
0.0
 10
-5.319460368088317
 20
-20.88415918839067
 30
0.0
 10
-5.360041006641564
 20
-20.967194872273
 30
0.0
 10
-5.406674927568977
 20
-21.0577249486935
 30
0.0
 10
-5.459689731324481
 20
-21.15552946731193
 30
0.0
 10
-5.519412610561607
 20
-21.2603751061809
 30
0.0
 10
-5.586161755833411
 20
-21.37201891642346
 30
0.0
 10
-5.660248600413356
 20
-21.49020742836021
 30
0.0
 10
-5.741976759652087
 20
-21.61467718530366
 30
0.0
 10
-5.831641976899664
 20
-21.74515485563415
 30
0.0
 10
-5.929531775017347
 20
-21.88135748105581
 30
0.0
 10
-6.035925202880112
 20
-22.02299269396678
 30
0.0
 10
-6.151092561437785
 20
-22.16975895337436
 30
0.0
 10
-6.275295143779434
 20
-22.32134578454214
 30
0.0
 10
-6.408784978640413
 20
-22.47743402669081
 30
0.0
 10
-6.551804583400491
 20
-22.63769608659268
 30
0.0
 10
-6.704586714073184
 20
-22.80179620126078
 30
0.0
 10
-6.818591209315468
 20
-22.91918162724347
 30
0.0
 10
-6.881270827670906
 20
-22.98221446059334
 30
0.0
 10
-6.889053554241603
 20
-22.99001829331136
 30
0.0
  0
ARC
  5
11C
330
1F
100
AcDbEntity
  8
0
  6
Continuous
 62
     7
370
    25
100
AcDbCircle
 10
-4.6259288958
 20
-20.6840229852
 30
0.0
 40
0.5700000000000007
100
AcDbArc
 50
77.3933993483
 51
161.6389469986
  0
ARC
  5
11D
330
1F
100
AcDbEntity
  8
0
  6
Continuous
 62
     7
370
    25
100
AcDbCircle
 10
0.0
 20
0.0
 30
0.0
 40
20.625
100
AcDbArc
 50
257.3933993483
 51
258.6066006517
  0
ARC
  5
11E
330
1F
100
AcDbEntity
  8
0
  6
Continuous
 62
     7
370
    25
100
AcDbCircle
 10
-4.1869537442
 20
-20.7773300341
 30
0.0
 40
0.5700000000000097
100
AcDbArc
 50
354.3610530014
 51
78.6066006517
  0
SPLINE
  5
11F
330
1F
100
AcDbEntity
  8
0
  6
Continuous
 62
     7
370
    25
100
AcDbSpline
210
0.0
220
0.0
230
1.0
 70
     8
 71
     3
 72
    29
 73
    25
 74
     0
 42
0.000000001
 43
0.00000001
 40
0.3326188730538295
 40
0.3326188730538295
 40
0.3326188730538295
 40
0.3326188730538295
 40
0.3398593728277818
 40
0.3910167957178082
 40
0.4401129020176182
 40
0.4871476917276847
 40
0.5321211648485444
 40
0.5750333213808144
 40
0.6158841613252003
 40
0.6546736846825236
 40
0.6914018914537441
 40
0.7260687816399919
 40
0.7586743552426116
 40
0.7892186122632198
 40
0.8177015527037828
 40
0.8441231765667325
 40
0.8684834838551101
 40
0.890782474572806
 40
0.9110201487248991
 40
0.9291965063181925
 40
0.9453115473621049
 40
0.9593652718701934
 40
0.9891542838793695
 40
1.0
 40
1.0
 40
1.0
 40
1.0
 10
-3.057419282938375
 20
-23.80445729959658
 30
0.0
 10
-3.061355052722254
 20
-23.79416262358547
 30
0.0
 10
-3.092977970317357
 20
-23.7110851674372
 30
0.0
 10
-3.149381304986563
 20
-23.55747843904687
 30
0.0
 10
-3.222209196703103
 20
-23.34542343374143
 30
0.0
 10
-3.287679654728616
 20
-23.14084544295148
 30
0.0
 10
-3.346141879372177
 20
-22.94395653102906
 30
0.0
 10
-3.397950665454187
 20
-22.75495732857429
 30
0.0
 10
-3.443466067065023
 20
-22.57403689414566
 30
0.0
 10
-3.483053068771344
 20
-22.40137258305438
 30
0.0
 10
-3.51708125054919
 20
-22.23712992540366
 30
0.0
 10
-3.545924452847676
 20
-22.08146251288551
 30
0.0
 10
-3.569960430378073
 20
-21.93451189468242
 30
0.0
 10
-3.589570532119879
 20
-21.79640748199653
 30
0.0
 10
-3.605139281986214
 20
-21.66726646299951
 30
0.0
 10
-3.617054283835923
 20
-21.54719372244138
 30
0.0
 10
-3.625705035414079
 20
-21.43628178540777
 30
0.0
 10
-3.63148534266871
 20
-21.3346107208623
 30
0.0
 10
-3.634783945369467
 20
-21.24224821633034
 30
0.0
 10
-3.636013230054313
 20
-21.15924913896744
 30
0.0
 10
-3.635516721147746
 20
-21.08565677051256
 30
0.0
 10
-3.633153812521977
 20
-20.99441722968979
 30
0.0
 10
-3.627162231453221
 20
-20.91131967241073
 30
0.0
 10
-3.621335832792198
 20
-20.84978321861864
 30
0.0
 10
-3.619712066662784
 20
-20.83333788426426
 30
0.0
  0
ARC
  5
120
330
1F
100
AcDbEntity
  8
0
  6
Continuous
 62
     7
370
    25
100
AcDbCircle
 10
0.0
 20
0.0
 30
0.0
 40
24.0
100
AcDbArc
 50
262.6810610094
 51
265.3189389906
  0
SPLINE
  5
121
330
1F
100
AcDbEntity
  8
0
  6
Continuous
 62
     7
370
    25
100
AcDbSpline
210
0.0
220
0.0
230
1.0
 70
     8
 71
     3
 72
    29
 73
    25
 74
     0
 42
0.000000001
 43
0.00000001
 40
0.1146165153578265
 40
0.1146165153578265
 40
0.1146165153578265
 40
0.1146165153578265
 40
0.1254622314784576
 40
0.1552512434876337
 40
0.1693049679957221
 40
0.1854200090396344
 40
0.2035963666329278
 40
0.2238340407850208
 40
0.2461330315027167
 40
0.2704933387910942
 40
0.2969149626540439
 40
0.3253979030946068
 40
0.3559421601152148
 40
0.3885477337178345
 40
0.4232146239040822
 40
0.4599428306753026
 40
0.4987323540326257
 40
0.5395831939770115
 40
0.5824953505092814
 40
0.6274688236301409
 40
0.6745036133402074
 40
0.7235997196400171
 40
0.7747571425300435
 40
0.7819976423039965
 40
0.7819976423039965
 40
0.7819976423039965
 40
0.7819976423039965
 10
-0.7908818315415249
 20
-21.13065992282309
 30
0.0
 10
-0.7927127258695698
 20
-21.14708348712656
 30
0.0
 10
-0.7998077961532084
 20
-21.20848659815794
 30
0.0
 10
-0.8112240991429203
 20
-21.29101399418798
 30
0.0
 10
-0.8278825929417691
 20
-21.38075100846345
 30
0.0
 10
-0.8426976477028022
 20
-21.45283843710618
 30
0.0
 10
-0.8611565480787393
 20
-21.53376820283449
 30
0.0
 10
-0.8835863128816607
 20
-21.62342654697536
 30
0.0
 10
-0.9103789094911718
 20
-21.7216740613698
 30
0.0
 10
-0.9419005097524189
 20
-21.82836371408451
 30
0.0
 10
-0.9785196667350129
 20
-21.9433353089943
 30
0.0
 10
-1.020598129676792
 20
-22.06641736177394
 30
0.0
 10
-1.068493225596601
 20
-22.19742669228314
 30
0.0
 10
-1.122556710846568
 20
-22.33616872617604
 30
0.0
 10
-1.183134694914187
 20
-22.48243759328463
 30
0.0
 10
-1.250567247934082
 20
-22.63601629799493
 30
0.0
 10
-1.325188107536237
 20
-22.79667687916206
 30
0.0
 10
-1.40732436184385
 20
-22.964180583915
 30
0.0
 10
-1.497296145392478
 20
-23.13827804802319
 30
0.0
 10
-1.595416336742196
 20
-23.31870948485659
 30
0.0
 10
-1.70199026414803
 20
-23.50520488208402
 30
0.0
 10
-1.817315406396491
 20
-23.69748420664167
 30
0.0
 10
-1.904422827497177
 20
-23.8360073467944
 30
0.0
 10
-1.952627482847655
 20
-23.91069458693512
 30
0.0
 10
-1.958617630114686
 20
-23.91994600702527
 30
0.0
  0
ARC
  5
122
330
1F
100
AcDbEntity
  8
0
  6
Continuous
 62
     7
370
    25
100
AcDbCircle
 10
-0.2243910588
 20
-21.1938121548
 30
0.0
 40
0.5699999999999991
100
AcDbArc
 50
89.3933993483
 51
173.6389469986
  0
ARC
  5
123
330
1F
100
AcDbEntity
  8
0
  6
Continuous
 62
     7
370
    25
100
AcDbCircle
 10
0.0
 20
0.0
 30
0.0
 40
20.62500000000001
100
AcDbArc
 50
269.3933993483
 51
270.6066006517
  0
ARC
  5
124
330
1F
100
AcDbEntity
  8
0
  6
Continuous
 62
     7
370
    25
100
AcDbCircle
 10
0.2243910588
 20
-21.1938121548
 30
0.0
 40
0.570000000000009
100
AcDbArc
 50
6.3610530014
 51
90.6066006517
  0
SPLINE
  5
125
330
1F
100
AcDbEntity
  8
0
  6
Continuous
 62
     7
370
    25
100
AcDbSpline
210
0.0
220
0.0
230
1.0
 70
     8
 71
     3
 72
    29
 73
    25
 74
     0
 42
0.000000001
 43
0.00000001
 40
0.3326188730538296
 40
0.3326188730538296
 40
0.3326188730538296
 40
0.3326188730538296
 40
0.3398593728277818
 40
0.3910167957178082
 40
0.4401129020176182
 40
0.4871476917276847
 40
0.5321211648485444
 40
0.5750333213808144
 40
0.6158841613252003
 40
0.6546736846825236
 40
0.6914018914537441
 40
0.7260687816399919
 40
0.7586743552426116
 40
0.7892186122632198
 40
0.8177015527037828
 40
0.8441231765667325
 40
0.8684834838551101
 40
0.890782474572806
 40
0.9110201487248991
 40
0.9291965063181925
 40
0.9453115473621049
 40
0.9593652718701934
 40
0.9891542838793695
 40
1.0
 40
1.0
 40
1.0
 40
1.0
 10
1.958617630114684
 20
-23.91994600702527
 30
0.0
 10
1.952627482847654
 20
-23.91069458693511
 30
0.0
 10
1.904422827497176
 20
-23.8360073467944
 30
0.0
 10
1.81731540639649
 20
-23.69748420664167
 30
0.0
 10
1.701990264148031
 20
-23.50520488208402
 30
0.0
 10
1.595416336742196
 20
-23.31870948485659
 30
0.0
 10
1.497296145392478
 20
-23.1382780480232
 30
0.0
 10
1.407324361843851
 20
-22.96418058391499
 30
0.0
 10
1.325188107536237
 20
-22.79667687916206
 30
0.0
 10
1.250567247934083
 20
-22.63601629799494
 30
0.0
 10
1.183134694914187
 20
-22.48243759328463
 30
0.0
 10
1.122556710846569
 20
-22.33616872617604
 30
0.0
 10
1.068493225596601
 20
-22.19742669228314
 30
0.0
 10
1.020598129676792
 20
-22.06641736177393
 30
0.0
 10
0.9785196667350129
 20
-21.9433353089943
 30
0.0
 10
0.941900509752419
 20
-21.82836371408451
 30
0.0
 10
0.910378909491172
 20
-21.7216740613698
 30
0.0
 10
0.8835863128816607
 20
-21.62342654697536
 30
0.0
 10
0.8611565480787394
 20
-21.5337682028345
 30
0.0
 10
0.8426976477028023
 20
-21.45283843710618
 30
0.0
 10
0.8278825929417692
 20
-21.38075100846346
 30
0.0
 10
0.8112240991429197
 20
-21.29101399418798
 30
0.0
 10
0.7998077961532111
 20
-21.20848659815795
 30
0.0
 10
0.7927127258695681
 20
-21.14708348712656
 30
0.0
 10
0.7908818315415239
 20
-21.1306599228231
 30
0.0
  0
ARC
  5
126
330
1F
100
AcDbEntity
  8
0
  6
Continuous
 62
     7
370
    25
100
AcDbCircle
 10
0.0
 20
0.0
 30
0.0
 40
24.0
100
AcDbArc
 50
274.6810610094
 51
277.3189389906
  0
SPLINE
  5
127
330
1F
100
AcDbEntity
  8
0
  6
Continuous
 62
     7
370
    25
100
AcDbSpline
210
0.0
220
0.0
230
1.0
 70
     8
 71
     3
 72
    29
 73
    25
 74
     0
 42
0.000000001
 43
0.00000001
 40
0.1146165153578265
 40
0.1146165153578265
 40
0.1146165153578265
 40
0.1146165153578265
 40
0.1254622314784576
 40
0.1552512434876337
 40
0.1693049679957221
 40
0.1854200090396344
 40
0.2035963666329278
 40
0.2238340407850208
 40
0.2461330315027167
 40
0.2704933387910942
 40
0.2969149626540439
 40
0.3253979030946068
 40
0.3559421601152148
 40
0.3885477337178345
 40
0.4232146239040822
 40
0.4599428306753026
 40
0.4987323540326257
 40
0.5395831939770115
 40
0.5824953505092814
 40
0.6274688236301409
 40
0.6745036133402074
 40
0.7235997196400171
 40
0.7747571425300435
 40
0.7819976423039972
 40
0.7819976423039972
 40
0.7819976423039972
 40
0.7819976423039972
 10
3.619712066663064
 20
-20.83333788426421
 30
0.0
 10
3.621335832792479
 20
-20.8497832186186
 30
0.0
 10
3.627162231453505
 20
-20.91131967241067
 30
0.0
 10
3.633153812522262
 20
-20.99441722968974
 30
0.0
 10
3.63551672114803
 20
-21.08565677051251
 30
0.0
 10
3.6360132300546
 20
-21.15924913896739
 30
0.0
 10
3.634783945369752
 20
-21.24224821633029
 30
0.0
 10
3.631485342668998
 20
-21.33461072086225
 30
0.0
 10
3.625705035414367
 20
-21.43628178540772
 30
0.0
 10
3.617054283836215
 20
-21.54719372244133
 30
0.0
 10
3.605139281986506
 20
-21.66726646299946
 30
0.0
 10
3.589570532120175
 20
-21.79640748199649
 30
0.0
 10
3.569960430378369
 20
-21.93451189468237
 30
0.0
 10
3.545924452847975
 20
-22.08146251288546
 30
0.0
 10
3.517081250549489
 20
-22.23712992540361
 30
0.0
 10
3.483053068771645
 20
-22.40137258305432
 30
0.0
 10
3.443466067065327
 20
-22.57403689414561
 30
0.0
 10
3.397950665454497
 20
-22.75495732857425
 30
0.0
 10
3.346141879372484
 20
-22.94395653102901
 30
0.0
 10
3.287679654728928
 20
-23.14084544295144
 30
0.0
 10
3.222209196703418
 20
-23.34542343374138
 30
0.0
 10
3.149381304986881
 20
-23.55747843904683
 30
0.0
 10
3.092977970317676
 20
-23.71108516743716
 30
0.0
 10
3.061355052722574
 20
-23.79416262358543
 30
0.0
 10
3.057419282938694
 20
-23.80445729959654
 30
0.0
  0
ARC
  5
128
330
1F
100
AcDbEntity
  8
0
  6
Continuous
 62
     7
370
    25
100
AcDbCircle
 10
4.1869537442
 20
-20.7773300341
 30
0.0
 40
0.5700000000000002
100
AcDbArc
 50
101.3933993483
 51
185.6389469986
  0
ARC
  5
129
330
1F
100
AcDbEntity
  8
0
  6
Continuous
 62
     7
370
    25
100
AcDbCircle
 10
0.0
 20
0.0
 30
0.0
 40
20.62500000000001
100
AcDbArc
 50
281.3933993483
 51
282.6066006517
  0
ARC
  5
12A
330
1F
100
AcDbEntity
  8
0
  6
Continuous
 62
     7
370
    25
100
AcDbCircle
 10
4.6259288958
 20
-20.6840229852
 30
0.0
 40
0.5700000000000077
100
AcDbArc
 50
18.3610530014
 51
102.6066006517
  0
SPLINE
  5
12B
330
1F
100
AcDbEntity
  8
0
  6
Continuous
 62
     7
370
    25
100
AcDbSpline
210
0.0
220
0.0
230
1.0
 70
     8
 71
     3
 72
    29
 73
    25
 74
     0
 42
0.000000001
 43
0.00000001
 40
0.3326188730538298
 40
0.3326188730538298
 40
0.3326188730538298
 40
0.3326188730538298
 40
0.3398593728277818
 40
0.3910167957178082
 40
0.4401129020176182
 40
0.4871476917276847
 40
0.5321211648485444
 40
0.5750333213808144
 40
0.6158841613252003
 40
0.6546736846825236
 40
0.6914018914537441
 40
0.7260687816399919
 40
0.7586743552426116
 40
0.7892186122632198
 40
0.8177015527037828
 40
0.8441231765667325
 40
0.8684834838551101
 40
0.890782474572806
 40
0.9110201487248991
 40
0.9291965063181925
 40
0.9453115473621049
 40
0.9593652718701934
 40
0.9891542838793695
 40
1.0
 40
1.0
 40
1.0
 40
1.0
 10
6.889053554241912
 20
-22.99001829331127
 30
0.0
 10
6.881270827671215
 20
-22.98221446059324
 30
0.0
 10
6.818591209315777
 20
-22.91918162724338
 30
0.0
 10
6.704586714073492
 20
-22.8017962012607
 30
0.0
 10
6.551804583400798
 20
-22.63769608659259
 30
0.0
 10
6.408784978640716
 20
-22.47743402669072
 30
0.0
 10
6.275295143779736
 20
-22.32134578454207
 30
0.0
 10
6.151092561438084
 20
-22.16975895337427
 30
0.0
 10
6.035925202880409
 20
-22.02299269396671
 30
0.0
 10
5.929531775017645
 20
-21.88135748105574
 30
0.0
 10
5.831641976899956
 20
-21.74515485563407
 30
0.0
 10
5.741976759652379
 20
-21.61467718530358
 30
0.0
 10
5.660248600413645
 20
-21.49020742836013
 30
0.0
 10
5.586161755833697
 20
-21.37201891642338
 30
0.0
 10
5.519412610561896
 20
-21.26037510618083
 30
0.0
 10
5.459689731324766
 20
-21.15552946731185
 30
0.0
 10
5.406674927569262
 20
-21.05772494869343
 30
0.0
 10
5.360041006641848
 20
-20.96719487227293
 30
0.0
 10
5.319460368088601
 20
-20.88415918839061
 30
0.0
 10
5.284578594543633
 20
-20.8088357534033
 30
0.0
 10
5.255099465098574
 20
-20.74140383111827
 30
0.0
 10
5.220147624990438
 20
-20.65709128151989
 30
0.0
 10
5.191822385164413
 20
-20.57874088995579
 30
0.0
 10
5.172115934553423
 20
-20.52015473228199
 30
0.0
 10
5.166910398635662
 20
-20.50447072659851
 30
0.0
  0
ARC
  5
12C
330
1F
100
AcDbEntity
  8
0
  6
Continuous
 62
     7
370
    25
100
AcDbCircle
 10
0.0
 20
0.0
 30
0.0
 40
24.0
100
AcDbArc
 50
286.6810610094
 51
289.3189389906
  0
ENDSEC
  0
SECTION
  2
OBJECTS
  0
DICTIONARY
  5
C
330
0
100
AcDbDictionary
281
     1
  3
ACAD_GROUP
350
D
  3
ACAD_LAYOUT
350
1A
  3
ACAD_MLINESTYLE
350
17
  3
ACAD_PLOTSETTINGS
350
19
  3
ACAD_PLOTSTYLENAME
350
E
  3
ACAD_SCALELIST
350
47
  0
DICTIONARY
  5
D
102
{ACAD_REACTORS
330
C
102
}
330
C
100
AcDbDictionary
281
     1
  0
DICTIONARY
  5
1A
102
{ACAD_REACTORS
330
C
102
}
330
C
100
AcDbDictionary
281
     1
  3
Layout1
350
1E
  3
Layout2
350
26
  3
Model
350
22
  0
DICTIONARY
  5
17
102
{ACAD_REACTORS
330
C
102
}
330
C
100
AcDbDictionary
281
     1
  3
Standard
350
18
  0
DICTIONARY
  5
19
102
{ACAD_REACTORS
330
C
102
}
330
C
100
AcDbDictionary
281
     1
  0
ACDBDICTIONARYWDFLT
  5
E
102
{ACAD_REACTORS
330
C
102
}
330
C
100
AcDbDictionary
281
     1
  3
Normal
350
F
100
AcDbDictionaryWithDefault
340
F
  0
DICTIONARY
  5
47
102
{ACAD_REACTORS
330
C
102
}
330
C
100
AcDbDictionary
281
     1
  3
A0
350
48
  3
A1
350
49
  3
A2
350
4A
  3
A3
350
4B
  3
A4
350
4C
  3
A5
350
4D
  3
A6
350
4E
  3
A7
350
4F
  3
A8
350
50
  3
A9
350
51
  3
B0
350
52
  3
B1
350
53
  3
B2
350
54
  3
B3
350
55
  3
B4
350
56
  3
B5
350
57
  3
B6
350
58
  3
B7
350
59
  3
B8
350
5A
  3
B9
350
5B
  3
C0
350
5C
  3
C1
350
5D
  3
C2
350
5E
  3
C3
350
5F
  3
C4
350
60
  3
C5
350
61
  3
C6
350
62
  3
C7
350
63
  3
C8
350
64
  3
C9
350
65
  3
D0
350
66
  3
D1
350
67
  3
D2
350
68
  0
LAYOUT
  5
1E
102
{ACAD_REACTORS
330
1A
102
}
330
1A
100
AcDbPlotSettings
  1

  2
none_device
  4

  6

 40
0.0
 41
0.0
 42
0.0
 43
0.0
 44
0.0
 45
0.0
 46
0.0
 47
0.0
 48
0.0
 49
0.0
140
0.0
141
0.0
142
1.0
143
1.0
 70
   688
 72
     1
 73
     0
 74
     5
  7

 75
    16
147
1.0
148
0.0
149
0.0
100
AcDbLayout
  1
Layout1
 70
     1
 71
     1
 10
0.0
 20
0.0
 11
420.0
 21
297.0
 12
0.0
 22
0.0
 32
0.0
 14
1.0000000000E+20
 24
1.0000000000E+20
 34
1.0000000000E+20
 15
-1.0000000000E+20
 25
-1.0000000000E+20
 35
-1.0000000000E+20
146
0.0
 13
0.0
 23
0.0
 33
0.0
 16
1.0
 26
0.0
 36
0.0
 17
0.0
 27
1.0
 37
0.0
 76
     0
330
1B
  0
LAYOUT
  5
26
102
{ACAD_REACTORS
330
1A
102
}
330
1A
100
AcDbPlotSettings
  1

  2
none_device
  4

  6

 40
0.0
 41
0.0
 42
0.0
 43
0.0
 44
0.0
 45
0.0
 46
0.0
 47
0.0
 48
0.0
 49
0.0
140
0.0
141
0.0
142
1.0
143
1.0
 70
   688
 72
     1
 73
     0
 74
     5
  7

 75
    16
147
1.0
148
0.0
149
0.0
100
AcDbLayout
  1
Layout2
 70
     1
 71
     2
 10
0.0
 20
0.0
 11
0.0
 21
0.0
 12
0.0
 22
0.0
 32
0.0
 14
0.0
 24
0.0
 34
0.0
 15
0.0
 25
0.0
 35
0.0
146
0.0
 13
0.0
 23
0.0
 33
0.0
 16
1.0
 26
0.0
 36
0.0
 17
0.0
 27
1.0
 37
0.0
 76
     0
330
23
  0
LAYOUT
  5
22
102
{ACAD_REACTORS
330
1A
102
}
330
1A
100
AcDbPlotSettings
  1

  2
none_device
  4
ANSI_A_(11.00_x_8.50_Inches)
  6

 40
6.35
 41
19.05
 42
6.35000508
 43
19.05000254
 44
279.4
 45
215.9
 46
133.34999746
 47
88.89999873
 48
0.0
 49
0.0
140
0.0
141
0.0
142
0.1758992265
143
1.0
 70
  1696
 72
     0
 73
     0
 74
     0
  7

 75
     0
147
0.0179189148
148
-1300.4909072572
149
0.0
100
AcDbLayout
  1
Model
 70
     1
 71
     0
 10
0.0
 20
0.0
 11
420.0
 21
297.0
 12
0.0
 22
0.0
 32
0.0
 14
-24.0
 24
-23.919946007
 34
0.0
 15
24.0
 25
23.919946007
 35
0.0
146
0.0
 13
0.0
 23
0.0
 33
0.0
 16
1.0
 26
0.0
 36
0.0
 17
0.0
 27
1.0
 37
0.0
 76
     0
330
1F
331
29
  0
MLINESTYLE
  5
18
102
{ACAD_REACTORS
330
17
102
}
330
17
100
AcDbMlineStyle
  2
Standard
 70
     0
  3

 62
   256
 51
90.0
 52
90.0
 71
     2
 49
0.5
 62
   256
  6
BYLAYER
 49
-0.5
 62
   256
  6
BYLAYER
  0
ACDBPLACEHOLDER
  5
F
102
{ACAD_REACTORS
330
E
102
}
330
E
  0
SCALE
  5
48
102
{ACAD_REACTORS
330
47
102
}
330
47
100
AcDbScale
 70
     0
300
1:1
140
1.0
141
1.0
290
     1
  0
SCALE
  5
49
102
{ACAD_REACTORS
330
47
102
}
330
47
100
AcDbScale
 70
     0
300
1:2
140
1.0
141
2.0
290
     0
  0
SCALE
  5
4A
102
{ACAD_REACTORS
330
47
102
}
330
47
100
AcDbScale
 70
     0
300
1:4
140
1.0
141
4.0
290
     0
  0
SCALE
  5
4B
102
{ACAD_REACTORS
330
47
102
}
330
47
100
AcDbScale
 70
     0
300
1:5
140
1.0
141
5.0
290
     0
  0
SCALE
  5
4C
102
{ACAD_REACTORS
330
47
102
}
330
47
100
AcDbScale
 70
     0
300
1:8
140
1.0
141
8.0
290
     0
  0
SCALE
  5
4D
102
{ACAD_REACTORS
330
47
102
}
330
47
100
AcDbScale
 70
     0
300
1:10
140
1.0
141
10.0
290
     0
  0
SCALE
  5
4E
102
{ACAD_REACTORS
330
47
102
}
330
47
100
AcDbScale
 70
     0
300
1:16
140
1.0
141
16.0
290
     0
  0
SCALE
  5
4F
102
{ACAD_REACTORS
330
47
102
}
330
47
100
AcDbScale
 70
     0
300
1:20
140
1.0
141
20.0
290
     0
  0
SCALE
  5
50
102
{ACAD_REACTORS
330
47
102
}
330
47
100
AcDbScale
 70
     0
300
1:30
140
1.0
141
30.0
290
     0
  0
SCALE
  5
51
102
{ACAD_REACTORS
330
47
102
}
330
47
100
AcDbScale
 70
     0
300
1:40
140
1.0
141
40.0
290
     0
  0
SCALE
  5
52
102
{ACAD_REACTORS
330
47
102
}
330
47
100
AcDbScale
 70
     0
300
1:50
140
1.0
141
50.0
290
     0
  0
SCALE
  5
53
102
{ACAD_REACTORS
330
47
102
}
330
47
100
AcDbScale
 70
     0
300
1:100
140
1.0
141
100.0
290
     0
  0
SCALE
  5
54
102
{ACAD_REACTORS
330
47
102
}
330
47
100
AcDbScale
 70
     0
300
2:1
140
2.0
141
1.0
290
     0
  0
SCALE
  5
55
102
{ACAD_REACTORS
330
47
102
}
330
47
100
AcDbScale
 70
     0
300
4:1
140
4.0
141
1.0
290
     0
  0
SCALE
  5
56
102
{ACAD_REACTORS
330
47
102
}
330
47
100
AcDbScale
 70
     0
300
8:1
140
8.0
141
1.0
290
     0
  0
SCALE
  5
57
102
{ACAD_REACTORS
330
47
102
}
330
47
100
AcDbScale
 70
     0
300
10:1
140
10.0
141
1.0
290
     0
  0
SCALE
  5
58
102
{ACAD_REACTORS
330
47
102
}
330
47
100
AcDbScale
 70
     0
300
100:1
140
100.0
141
1.0
290
     0
  0
SCALE
  5
59
102
{ACAD_REACTORS
330
47
102
}
330
47
100
AcDbScale
 70
     0
300
1/128" = 1'-0"
140
0.0078125
141
12.0
290
     0
  0
SCALE
  5
5A
102
{ACAD_REACTORS
330
47
102
}
330
47
100
AcDbScale
 70
     0
300
1/64" = 1'-0"
140
0.015625
141
12.0
290
     0
  0
SCALE
  5
5B
102
{ACAD_REACTORS
330
47
102
}
330
47
100
AcDbScale
 70
     0
300
1/32" = 1'-0"
140
0.03125
141
12.0
290
     0
  0
SCALE
  5
5C
102
{ACAD_REACTORS
330
47
102
}
330
47
100
AcDbScale
 70
     0
300
1/16" = 1'-0"
140
0.0625
141
12.0
290
     0
  0
SCALE
  5
5D
102
{ACAD_REACTORS
330
47
102
}
330
47
100
AcDbScale
 70
     0
300
3/32" = 1'-0"
140
0.09375
141
12.0
290
     0
  0
SCALE
  5
5E
102
{ACAD_REACTORS
330
47
102
}
330
47
100
AcDbScale
 70
     0
300
1/8" = 1'-0"
140
0.125
141
12.0
290
     0
  0
SCALE
  5
5F
102
{ACAD_REACTORS
330
47
102
}
330
47
100
AcDbScale
 70
     0
300
3/16" = 1'-0"
140
0.1875
141
12.0
290
     0
  0
SCALE
  5
60
102
{ACAD_REACTORS
330
47
102
}
330
47
100
AcDbScale
 70
     0
300
1/4" = 1'-0"
140
0.25
141
12.0
290
     0
  0
SCALE
  5
61
102
{ACAD_REACTORS
330
47
102
}
330
47
100
AcDbScale
 70
     0
300
3/8" = 1'-0"
140
0.375
141
12.0
290
     0
  0
SCALE
  5
62
102
{ACAD_REACTORS
330
47
102
}
330
47
100
AcDbScale
 70
     0
300
1/2" = 1'-0"
140
0.5
141
12.0
290
     0
  0
SCALE
  5
63
102
{ACAD_REACTORS
330
47
102
}
330
47
100
AcDbScale
 70
     0
300
3/4" = 1'-0"
140
0.75
141
12.0
290
     0
  0
SCALE
  5
64
102
{ACAD_REACTORS
330
47
102
}
330
47
100
AcDbScale
 70
     0
300
1" = 1'-0"
140
1.0
141
12.0
290
     0
  0
SCALE
  5
65
102
{ACAD_REACTORS
330
47
102
}
330
47
100
AcDbScale
 70
     0
300
1-1/2" = 1'-0"
140
1.5
141
12.0
290
     0
  0
SCALE
  5
66
102
{ACAD_REACTORS
330
47
102
}
330
47
100
AcDbScale
 70
     0
300
3" = 1'-0"
140
3.0
141
12.0
290
     0
  0
SCALE
  5
67
102
{ACAD_REACTORS
330
47
102
}
330
47
100
AcDbScale
 70
     0
300
6" = 1'-0"
140
6.0
141
12.0
290
     0
  0
SCALE
  5
68
102
{ACAD_REACTORS
330
47
102
}
330
47
100
AcDbScale
 70
     0
300
1'-0" = 1'-0"
140
12.0
141
12.0
290
     0
  0
ENDSEC
  0
EOF
